mtllib botanical_burner.mtl
o Model
v 0.000000 0.000000 0.000000
v 0.000000 0.000000 1.000000
v 1.000000 0.000000 0.000000
v 1.000000 0.000000 1.000000
v 0.000000 0.125000 0.125000
v 0.000000 0.125000 0.875000
v 0.125000 0.125000 0.000000
v 0.125000 0.125000 0.125000
v 0.125000 0.125000 0.875000
v 0.125000 0.125000 1.000000
v 0.875000 0.125000 0.000000
v 0.875000 0.125000 0.125000
v 0.875000 0.125000 0.875000
v 0.875000 0.125000 1.000000
v 1.000000 0.125000 0.125000
v 1.000000 0.125000 0.875000
v 0.000000 0.250000 0.375000
v 0.000000 0.250000 0.625000
v 0.062500 0.250000 0.375000
v 0.062500 0.250000 0.625000
v 0.125000 0.250000 0.375000
v 0.125000 0.250000 0.625000
v 0.375000 0.250000 0.000000
v 0.375000 0.250000 0.062500
v 0.375000 0.250000 0.125000
v 0.375000 0.250000 0.875000
v 0.375000 0.250000 0.937500
v 0.375000 0.250000 1.000000
v 0.625000 0.250000 0.000000
v 0.625000 0.250000 0.062500
v 0.625000 0.250000 0.125000
v 0.625000 0.250000 0.875000
v 0.625000 0.250000 0.937500
v 0.625000 0.250000 1.000000
v 0.875000 0.250000 0.375000
v 0.875000 0.250000 0.625000
v 0.937500 0.250000 0.375000
v 0.937500 0.250000 0.625000
v 1.000000 0.250000 0.375000
v 1.000000 0.250000 0.625000
v 0.062500 0.375000 0.250000
v 0.062500 0.375000 0.437500
v 0.062500 0.375000 0.562500
v 0.062500 0.375000 0.750000
v 0.125000 0.375000 0.125000
v 0.125000 0.375000 0.250000
v 0.125000 0.375000 0.750000
v 0.125000 0.375000 0.875000
v 0.250000 0.375000 0.062500
v 0.250000 0.375000 0.125000
v 0.250000 0.375000 0.250000
v 0.250000 0.375000 0.750000
v 0.250000 0.375000 0.875000
v 0.250000 0.375000 0.937500
v 0.437500 0.375000 0.062500
v 0.437500 0.375000 0.937500
v 0.562500 0.375000 0.062500
v 0.562500 0.375000 0.937500
v 0.750000 0.375000 0.062500
v 0.750000 0.375000 0.125000
v 0.750000 0.375000 0.250000
v 0.750000 0.375000 0.750000
v 0.750000 0.375000 0.875000
v 0.750000 0.375000 0.937500
v 0.875000 0.375000 0.125000
v 0.875000 0.375000 0.250000
v 0.875000 0.375000 0.750000
v 0.875000 0.375000 0.875000
v 0.937500 0.375000 0.250000
v 0.937500 0.375000 0.437500
v 0.937500 0.375000 0.562500
v 0.937500 0.375000 0.750000
v 0.000000 0.500000 0.500000
v 0.062500 0.500000 0.500000
v 0.125000 0.500000 0.125000
v 0.250000 0.500000 0.250000
v 0.250000 0.500000 0.750000
v 0.375000 0.500000 0.375000
v 0.375000 0.500000 0.625000
v 0.500000 0.500000 0.000000
v 0.500000 0.500000 0.062500
v 0.500000 0.500000 0.937500
v 0.500000 0.500000 1.000000
v 0.625000 0.500000 0.375000
v 0.625000 0.500000 0.625000
v 0.750000 0.500000 0.250000
v 0.750000 0.500000 0.750000
v 0.937500 0.500000 0.500000
v 1.000000 0.500000 0.500000
v 0.250000 0.875000 0.250000
v 0.250000 0.875000 0.750000
v 0.375000 0.875000 0.375000
v 0.375000 0.875000 0.625000
v 0.625000 0.875000 0.375000
v 0.625000 0.875000 0.625000
v 0.750000 0.875000 0.250000
v 0.750000 0.875000 0.750000
v 0.000000 1.000000 0.000000
v 0.000000 1.000000 1.000000
v 0.250000 1.000000 0.250000
v 0.250000 1.000000 0.750000
v 0.750000 1.000000 0.250000
v 0.750000 1.000000 0.750000
v 1.000000 1.000000 0.000000
v 1.000000 1.000000 1.000000
vn 0.0000 -1.0000 0.0000
vn -0.4472 -0.8944 0.0000
vn 0.0000 -0.8944 -0.4472
vn 0.0000 -0.8944 0.4472
vn 0.4472 -0.8944 0.0000
vn -0.8944 -0.4472 0.0000
vn 0.0000 -0.4472 -0.8944
vn 0.0000 -0.4472 0.8944
vn 0.8944 -0.4472 0.0000
vn -1.0000 0.0000 0.0000
vn 0.0000 0.0000 -1.0000
vn 0.0000 0.0000 1.0000
vn 1.0000 0.0000 0.0000
vn -0.7071 0.7071 0.0000
vn 0.0000 0.7071 -0.7071
vn 0.0000 0.7071 0.7071
vn 0.7071 0.7071 0.0000
vn 0.0000 1.0000 0.0000
vt 0.000000 0.000000
vt 0.000000 1.000000
vt 0.062500 0.125000
vt 0.062500 0.250000
vt 0.062500 0.437500
vt 0.062500 0.562500
vt 0.062500 0.750000
vt 0.062500 0.875000
vt 0.125000 0.062500
vt 0.125000 0.125000
vt 0.125000 0.187500
vt 0.125000 0.250000
vt 0.125000 0.375000
vt 0.125000 0.750000
vt 0.125000 0.812500
vt 0.125000 0.875000
vt 0.125000 0.937500
vt 0.187500 0.125000
vt 0.187500 0.250000
vt 0.187500 0.750000
vt 0.187500 0.875000
vt 0.250000 0.062500
vt 0.250000 0.125000
vt 0.250000 0.187500
vt 0.250000 0.250000
vt 0.250000 0.312500
vt 0.250000 0.375000
vt 0.250000 0.500000
vt 0.250000 0.687500
vt 0.250000 0.750000
vt 0.250000 0.812500
vt 0.250000 0.875000
vt 0.250000 0.937500
vt 0.312500 0.250000
vt 0.312500 0.750000
vt 0.375000 0.125000
vt 0.375000 0.187500
vt 0.375000 0.250000
vt 0.375000 0.375000
vt 0.375000 0.500000
vt 0.375000 0.625000
vt 0.375000 0.875000
vt 0.437500 0.062500
vt 0.437500 0.250000
vt 0.437500 0.375000
vt 0.437500 0.500000
vt 0.437500 0.937500
vt 0.500000 0.250000
vt 0.500000 0.312500
vt 0.500000 0.375000
vt 0.500000 0.500000
vt 0.562500 0.062500
vt 0.562500 0.250000
vt 0.562500 0.375000
vt 0.562500 0.500000
vt 0.562500 0.937500
vt 0.625000 0.125000
vt 0.625000 0.187500
vt 0.625000 0.250000
vt 0.625000 0.375000
vt 0.625000 0.500000
vt 0.625000 0.625000
vt 0.625000 0.875000
vt 0.687500 0.250000
vt 0.687500 0.750000
vt 0.750000 0.062500
vt 0.750000 0.125000
vt 0.750000 0.187500
vt 0.750000 0.250000
vt 0.750000 0.312500
vt 0.750000 0.375000
vt 0.750000 0.500000
vt 0.750000 0.687500
vt 0.750000 0.750000
vt 0.750000 0.812500
vt 0.750000 0.875000
vt 0.750000 0.937500
vt 0.812500 0.125000
vt 0.812500 0.250000
vt 0.812500 0.750000
vt 0.812500 0.875000
vt 0.875000 0.062500
vt 0.875000 0.125000
vt 0.875000 0.187500
vt 0.875000 0.250000
vt 0.875000 0.375000
vt 0.875000 0.750000
vt 0.875000 0.812500
vt 0.875000 0.875000
vt 0.875000 0.937500
vt 0.937500 0.125000
vt 0.937500 0.250000
vt 0.937500 0.437500
vt 0.937500 0.562500
vt 0.937500 0.750000
vt 0.937500 0.875000
vt 1.000000 0.000000
vt 1.000000 1.000000
usemtl Material
f 1/1/1 3/97/1 4/98/1 2/2/1
f 1/1/10 2/97/10 6/83/10 5/10/10
f 1/97/11 7/83/11 11/10/11 3/1/11
f 2/1/12 4/97/12 14/83/12 10/10/12
f 3/97/13 15/83/13 16/10/13 4/1/13
f 5/8/18 6/3/18 9/18/18 8/21/18
f 7/17/18 8/15/18 12/88/18 11/90/18
f 8/16/18 9/10/18 13/83/18 12/89/18
f 9/11/18 10/9/18 14/82/18 13/84/18
f 12/81/18 13/78/18 16/91/18 15/96/18
f 5/12/4 8/10/4 19/37/4 17/38/4
f 6/85/3 18/59/3 20/58/3 9/83/3
f 7/85/5 23/59/5 24/58/5 8/83/5
f 9/10/5 27/37/5 28/38/5 10/12/5
f 11/12/2 12/10/2 30/37/2 29/38/2
f 13/83/2 14/85/2 34/59/2 33/58/2
f 12/83/4 15/85/4 39/59/4 37/58/4
f 13/10/3 38/37/3 40/38/3 16/12/3
f 8/10/4 21/36/4 19/37/4
f 9/83/3 20/58/3 22/57/3
f 8/83/5 24/58/5 25/57/5
f 9/10/5 26/36/5 27/37/5
f 12/10/2 31/36/2 30/37/2
f 13/83/2 33/58/2 32/57/2
f 12/83/4 37/58/4 35/57/4
f 13/10/3 36/36/3 38/37/3
f 8/83/13 45/86/13 46/71/13 21/59/13
f 9/10/13 22/38/13 47/27/13 48/13/13
f 8/10/12 25/38/12 50/27/12 45/13/12
f 9/83/11 48/86/11 53/71/11 26/59/11
f 12/83/12 65/86/12 60/71/12 31/59/12
f 13/10/11 32/38/11 63/27/11 68/13/11
f 12/10/10 35/38/10 66/27/10 65/13/10
f 13/83/10 68/86/10 67/71/10 36/59/10
f 19/44/16 21/48/16 46/50/16 41/45/16
f 20/53/15 44/54/15 47/50/15 22/48/15
f 24/53/17 49/54/17 50/50/17 25/48/17
f 26/48/17 53/50/17 54/45/17 27/44/17
f 30/44/14 31/48/14 60/50/14 59/45/14
f 32/48/14 33/53/14 64/54/14 63/50/14
f 35/48/16 37/53/16 69/54/16 66/50/16
f 36/48/15 67/50/15 72/45/15 38/44/15
f 19/59/13 41/71/13 42/54/13
f 20/38/13 43/45/13 44/27/13
f 24/38/12 55/45/12 49/27/12
f 27/59/11 54/71/11 56/54/11
f 30/59/12 59/71/12 57/54/12
f 33/38/11 58/45/11 64/27/11
f 37/38/10 70/45/10 69/27/10
f 38/59/10 72/71/10 71/54/10
f 17/38/8 19/44/8 42/45/8 73/40/8
f 18/59/7 73/61/7 43/54/7 20/53/7
f 23/59/9 80/61/9 55/54/9 24/53/9
f 27/44/9 56/45/9 83/40/9 28/38/9
f 29/38/6 30/44/6 57/45/6 80/40/6
f 33/53/6 34/59/6 83/61/6 58/54/6
f 37/53/8 39/59/8 89/61/8 70/54/8
f 38/44/7 71/45/7 89/40/7 40/38/7
f 1/1/10 5/10/10 98/2/10
f 2/97/10 99/98/10 6/83/10
f 1/97/11 98/98/11 7/83/11
f 2/1/12 10/10/12 99/2/12
f 41/4/1 46/12/1 42/5/1
f 43/6/1 47/14/1 44/7/1
f 42/5/1 46/12/1 47/14/1 43/6/1
f 45/10/1 50/23/1 51/25/1 46/12/1
f 46/12/1 51/25/1 52/30/1 47/14/1
f 47/14/1 52/30/1 53/32/1 48/16/1
f 49/22/1 55/43/1 50/23/1
f 53/32/1 56/47/1 54/33/1
f 50/23/1 55/43/1 57/52/1 60/67/1
f 50/23/1 60/67/1 61/69/1 51/25/1
f 52/30/1 62/74/1 63/76/1 53/32/1
f 53/32/1 63/76/1 58/56/1 56/47/1
f 57/52/1 59/66/1 60/67/1
f 58/56/1 63/76/1 64/77/1
f 60/67/1 65/83/1 66/85/1 61/69/1
f 61/69/1 66/85/1 67/87/1 62/74/1
f 62/74/1 67/87/1 68/89/1 63/76/1
f 66/85/1 70/93/1 71/94/1 67/87/1
f 66/85/1 69/92/1 70/93/1
f 67/87/1 71/94/1 72/95/1
f 3/1/11 11/10/11 104/2/11
f 4/97/12 105/98/12 14/83/12
f 3/97/13 104/98/13 15/83/13
f 4/1/13 16/10/13 105/2/13
f 42/45/10 43/54/10 74/51/10
f 45/49/12 50/49/12 75/49/12
f 55/54/11 81/51/11 57/45/11
f 56/45/12 58/54/12 82/51/12
f 70/54/13 88/51/13 71/45/13
f 51/71/13 76/72/13 77/28/13 52/27/13
f 51/27/12 61/71/12 86/72/12 76/28/12
f 52/71/11 77/72/11 87/28/11 62/27/11
f 61/27/10 62/71/10 87/72/10 86/28/10
f 42/45/8 74/46/8 73/40/8
f 43/54/7 73/61/7 74/55/7
f 55/54/9 80/61/9 81/55/9
f 56/45/9 82/46/9 83/40/9
f 57/45/6 81/46/6 80/40/6
f 58/54/6 83/61/6 82/55/6
f 70/54/8 89/61/8 88/55/8
f 71/45/7 88/46/7 89/40/7
f 5/10/10 17/38/10 73/51/10 98/2/10
f 6/83/10 99/98/10 73/51/10 18/59/10
f 7/83/11 98/98/11 80/51/11 23/59/11
f 10/10/12 28/38/12 83/51/12 99/2/12
f 11/10/11 29/38/11 80/51/11 104/2/11
f 14/83/12 105/98/12 83/51/12 34/59/12
f 15/83/13 104/98/13 89/51/13 39/59/13
f 16/10/13 40/38/13 89/51/13 105/2/13
f 76/25/1 78/39/1 79/41/1 77/30/1
f 76/25/1 86/69/1 84/60/1 78/39/1
f 77/30/1 79/41/1 85/62/1 87/74/1
f 84/60/1 86/69/1 87/74/1 85/62/1
f 78/61/13 92/63/13 93/42/13 79/40/13
f 78/40/12 84/61/12 94/63/12 92/42/12
f 79/61/11 93/63/11 95/42/11 85/40/11
f 84/40/10 85/61/10 95/63/10 94/42/10
f 73/51/10 99/98/10 98/2/10
f 80/51/11 98/98/11 104/2/11
f 83/51/12 105/98/12 99/2/12
f 89/51/13 104/98/13 105/2/13
f 90/30/18 91/25/18 93/39/18 92/41/18
f 90/30/18 92/41/18 94/62/18 96/74/18
f 91/25/18 97/69/18 95/60/18 93/39/18
f 94/62/18 95/60/18 97/69/18 96/74/18
f 90/35/13 100/20/13 101/19/13 91/34/13
f 90/29/12 96/73/12 102/75/12 100/31/12
f 91/26/11 101/24/11 103/68/11 97/70/11
f 96/65/10 97/64/10 103/79/10 102/80/10
f 98/2/18 99/1/18 101/25/18 100/30/18
f 98/2/18 100/30/18 102/74/18 104/98/18
f 99/1/18 105/97/18 103/69/18 101/25/18
f 102/74/18 103/69/18 105/97/18 104/98/18
