mtllib charging_chamber.mtl
o Model
v 0.000000 0.000000 0.000000
v 0.000000 0.000000 1.000000
v 1.000000 0.000000 0.000000
v 1.000000 0.000000 1.000000
v 0.000000 0.500000 0.125000
v 0.000000 0.500000 0.375000
v 0.000000 0.500000 0.625000
v 0.000000 0.500000 0.875000
v 0.125000 0.500000 0.000000
v 0.125000 0.500000 0.125000
v 0.125000 0.500000 0.875000
v 0.125000 0.500000 1.000000
v 0.250000 0.500000 0.250000
v 0.250000 0.500000 0.375000
v 0.250000 0.500000 0.500000
v 0.250000 0.500000 0.625000
v 0.250000 0.500000 0.750000
v 0.375000 0.500000 0.000000
v 0.375000 0.500000 0.250000
v 0.375000 0.500000 0.750000
v 0.375000 0.500000 1.000000
v 0.437500 0.500000 0.437500
v 0.437500 0.500000 0.562500
v 0.500000 0.500000 0.250000
v 0.500000 0.500000 0.500000
v 0.500000 0.500000 0.750000
v 0.562500 0.500000 0.437500
v 0.562500 0.500000 0.562500
v 0.625000 0.500000 0.000000
v 0.625000 0.500000 0.250000
v 0.625000 0.500000 0.750000
v 0.625000 0.500000 1.000000
v 0.750000 0.500000 0.250000
v 0.750000 0.500000 0.375000
v 0.750000 0.500000 0.500000
v 0.750000 0.500000 0.625000
v 0.750000 0.500000 0.750000
v 0.875000 0.500000 0.000000
v 0.875000 0.500000 0.125000
v 0.875000 0.500000 0.875000
v 0.875000 0.500000 1.000000
v 1.000000 0.500000 0.125000
v 1.000000 0.500000 0.375000
v 1.000000 0.500000 0.625000
v 1.000000 0.500000 0.875000
v 0.250000 0.625000 0.375000
v 0.250000 0.625000 0.500000
v 0.250000 0.625000 0.625000
v 0.375000 0.625000 0.250000
v 0.375000 0.625000 0.375000
v 0.375000 0.625000 0.625000
v 0.375000 0.625000 0.750000
v 0.437500 0.625000 0.437500
v 0.437500 0.625000 0.562500
v 0.500000 0.625000 0.250000
v 0.500000 0.625000 0.750000
v 0.562500 0.625000 0.437500
v 0.562500 0.625000 0.562500
v 0.625000 0.625000 0.250000
v 0.625000 0.625000 0.375000
v 0.625000 0.625000 0.625000
v 0.625000 0.625000 0.750000
v 0.750000 0.625000 0.375000
v 0.750000 0.625000 0.500000
v 0.750000 0.625000 0.625000
v 0.000000 0.875000 0.125000
v 0.000000 0.875000 0.375000
v 0.000000 0.875000 0.625000
v 0.000000 0.875000 0.875000
v 0.125000 0.875000 0.000000
v 0.125000 0.875000 0.125000
v 0.125000 0.875000 0.875000
v 0.125000 0.875000 1.000000
v 0.250000 0.875000 0.250000
v 0.250000 0.875000 0.750000
v 0.375000 0.875000 0.000000
v 0.375000 0.875000 1.000000
v 0.625000 0.875000 0.000000
v 0.625000 0.875000 1.000000
v 0.750000 0.875000 0.250000
v 0.750000 0.875000 0.750000
v 0.875000 0.875000 0.000000
v 0.875000 0.875000 0.125000
v 0.875000 0.875000 0.875000
v 0.875000 0.875000 1.000000
v 1.000000 0.875000 0.125000
v 1.000000 0.875000 0.375000
v 1.000000 0.875000 0.625000
v 1.000000 0.875000 0.875000
v 0.000000 1.000000 0.000000
v 0.000000 1.000000 0.375000
v 0.000000 1.000000 0.625000
v 0.000000 1.000000 1.000000
v 0.250000 1.000000 0.250000
v 0.250000 1.000000 0.375000
v 0.250000 1.000000 0.625000
v 0.250000 1.000000 0.750000
v 0.375000 1.000000 0.000000
v 0.375000 1.000000 0.250000
v 0.375000 1.000000 0.375000
v 0.375000 1.000000 0.625000
v 0.375000 1.000000 0.750000
v 0.375000 1.000000 1.000000
v 0.625000 1.000000 0.000000
v 0.625000 1.000000 0.250000
v 0.625000 1.000000 0.375000
v 0.625000 1.000000 0.625000
v 0.625000 1.000000 0.750000
v 0.625000 1.000000 1.000000
v 0.750000 1.000000 0.250000
v 0.750000 1.000000 0.375000
v 0.750000 1.000000 0.625000
v 0.750000 1.000000 0.750000
v 1.000000 1.000000 0.000000
v 1.000000 1.000000 0.375000
v 1.000000 1.000000 0.625000
v 1.000000 1.000000 1.000000
vn 0.0000 -1.0000 0.0000
vn -1.0000 0.0000 0.0000
vn 0.0000 0.0000 -1.0000
vn 0.0000 0.0000 1.0000
vn 1.0000 0.0000 0.0000
vn -0.9487 0.0000 -0.3162
vn -0.9487 0.0000 0.3162
vn -0.3162 0.0000 -0.9487
vn -0.3162 0.0000 0.9487
vn 0.3162 0.0000 -0.9487
vn 0.3162 0.0000 0.9487
vn 0.9487 0.0000 -0.3162
vn 0.9487 0.0000 0.3162
vn -0.8944 0.0000 -0.4472
vn -0.8944 0.0000 0.4472
vn -0.4472 0.0000 -0.8944
vn -0.4472 0.0000 0.8944
vn 0.4472 0.0000 -0.8944
vn 0.4472 0.0000 0.8944
vn 0.8944 0.0000 -0.4472
vn 0.8944 0.0000 0.4472
vn 0.0000 1.0000 0.0000
vt 0.000000 0.000000
vt 0.000000 0.125000
vt 0.000000 0.250000
vt 0.000000 0.375000
vt 0.000000 0.500000
vt 0.000000 0.625000
vt 0.000000 0.750000
vt 0.000000 0.875000
vt 0.000000 1.000000
vt 0.125000 0.000000
vt 0.125000 0.125000
vt 0.125000 0.375000
vt 0.125000 0.500000
vt 0.125000 0.625000
vt 0.125000 0.875000
vt 0.125000 1.000000
vt 0.187500 0.250000
vt 0.187500 0.375000
vt 0.187500 0.625000
vt 0.187500 0.750000
vt 0.250000 0.000000
vt 0.250000 0.187500
vt 0.250000 0.250000
vt 0.250000 0.375000
vt 0.250000 0.437500
vt 0.250000 0.500000
vt 0.250000 0.562500
vt 0.250000 0.625000
vt 0.250000 0.750000
vt 0.250000 0.812500
vt 0.250000 0.875000
vt 0.250000 1.000000
vt 0.312500 0.375000
vt 0.312500 0.500000
vt 0.312500 0.625000
vt 0.375000 0.000000
vt 0.375000 0.125000
vt 0.375000 0.187500
vt 0.375000 0.250000
vt 0.375000 0.312500
vt 0.375000 0.375000
vt 0.375000 0.500000
vt 0.375000 0.625000
vt 0.375000 0.687500
vt 0.375000 0.750000
vt 0.375000 0.812500
vt 0.375000 0.875000
vt 0.375000 1.000000
vt 0.437500 0.250000
vt 0.437500 0.437500
vt 0.437500 0.500000
vt 0.437500 0.562500
vt 0.437500 0.750000
vt 0.500000 0.250000
vt 0.500000 0.312500
vt 0.500000 0.437500
vt 0.500000 0.500000
vt 0.500000 0.562500
vt 0.500000 0.687500
vt 0.500000 0.750000
vt 0.562500 0.250000
vt 0.562500 0.437500
vt 0.562500 0.500000
vt 0.562500 0.562500
vt 0.562500 0.750000
vt 0.625000 0.000000
vt 0.625000 0.125000
vt 0.625000 0.187500
vt 0.625000 0.250000
vt 0.625000 0.312500
vt 0.625000 0.375000
vt 0.625000 0.500000
vt 0.625000 0.625000
vt 0.625000 0.687500
vt 0.625000 0.750000
vt 0.625000 0.812500
vt 0.625000 0.875000
vt 0.625000 1.000000
vt 0.687500 0.375000
vt 0.687500 0.500000
vt 0.687500 0.625000
vt 0.750000 0.000000
vt 0.750000 0.187500
vt 0.750000 0.250000
vt 0.750000 0.375000
vt 0.750000 0.437500
vt 0.750000 0.500000
vt 0.750000 0.562500
vt 0.750000 0.625000
vt 0.750000 0.750000
vt 0.750000 0.812500
vt 0.750000 0.875000
vt 0.750000 1.000000
vt 0.812500 0.250000
vt 0.812500 0.375000
vt 0.812500 0.625000
vt 0.812500 0.750000
vt 0.875000 0.000000
vt 0.875000 0.125000
vt 0.875000 0.375000
vt 0.875000 0.500000
vt 0.875000 0.625000
vt 0.875000 0.875000
vt 0.875000 1.000000
vt 1.000000 0.000000
vt 1.000000 0.125000
vt 1.000000 0.250000
vt 1.000000 0.375000
vt 1.000000 0.500000
vt 1.000000 0.625000
vt 1.000000 0.750000
vt 1.000000 0.875000
vt 1.000000 1.000000
usemtl MaterialTop
f 5/8/22 6/6/22 14/28/22
f 7/4/22 8/2/22 16/24/22
f 5/8/22 14/28/22 13/29/22 10/15/22
f 8/2/22 11/11/22 17/23/22 16/24/22
f 9/16/22 10/15/22 13/29/22 19/45/22
f 11/11/22 12/10/22 20/39/22 17/23/22
f 9/16/22 19/45/22 18/48/22
f 12/10/22 21/36/22 20/39/22
f 15/26/22 23/50/22 25/57/22 22/52/22
f 22/52/22 25/57/22 27/64/22 24/60/22
f 23/50/22 26/54/22 28/62/22 25/57/22
f 25/57/22 28/62/22 35/87/22 27/64/22
f 29/78/22 30/75/22 38/104/22
f 31/69/22 32/66/22 41/98/22
f 30/75/22 33/90/22 39/103/22 38/104/22
f 31/69/22 41/98/22 40/99/22 37/84/22
f 33/90/22 34/89/22 42/112/22 39/103/22
f 36/85/22 37/84/22 40/99/22 45/106/22
f 34/89/22 43/110/22 42/112/22
f 36/85/22 45/106/22 44/108/22
f 15/26/11 22/51/11 53/52/11 47/27/11
f 15/26/10 47/25/10 54/50/10 23/51/10
f 22/58/13 24/60/13 55/53/13 53/52/13
f 23/56/12 54/50/12 56/49/12 26/54/12
f 24/60/7 27/58/7 57/64/7 55/65/7
f 26/54/6 56/61/6 58/62/6 28/56/6
f 27/63/9 35/87/9 64/88/9 57/64/9
f 28/63/8 58/62/8 64/86/8 35/87/8
f 46/28/22 47/26/22 53/52/22 50/43/22
f 47/26/22 48/24/22 51/41/22 54/50/22
f 49/45/22 50/43/22 53/52/22 55/60/22
f 51/41/22 52/39/22 56/54/22 54/50/22
f 55/60/22 57/64/22 60/73/22 59/75/22
f 56/54/22 62/69/22 61/71/22 58/62/22
f 57/64/22 64/87/22 63/89/22 60/73/22
f 58/62/22 61/71/22 65/85/22 64/87/22
f 46/35/5 95/14/5 47/34/5
f 47/34/5 96/12/5 48/33/5
f 49/44/4 55/59/4 99/47/4
f 52/40/3 102/37/3 56/55/3
f 55/59/4 59/74/4 105/77/4
f 56/55/3 108/67/3 62/70/3
f 63/81/2 64/80/2 111/102/2
f 64/80/2 65/79/2 112/100/2
f 46/28/4 50/43/4 100/46/4 95/30/4
f 48/24/3 96/22/3 101/38/3 51/41/3
f 49/45/5 99/20/5 100/19/5 50/43/5
f 51/41/5 101/18/5 102/17/5 52/39/5
f 59/75/2 60/73/2 106/96/2 105/97/2
f 61/71/2 62/69/2 108/94/2 107/95/2
f 60/73/4 63/89/4 111/91/4 106/76/4
f 61/71/3 107/68/3 112/83/3 65/85/3
f 47/34/5 95/14/5 96/12/5
f 55/59/4 105/77/4 99/47/4
f 56/55/3 102/37/3 108/67/3
f 64/80/2 112/100/2 111/102/2
f 91/6/22 92/4/22 96/24/22 95/28/22
f 90/9/22 91/6/22 94/29/22 98/48/22
f 92/4/22 93/1/22 103/36/22 97/23/22
f 94/29/22 95/28/22 100/43/22 99/45/22
f 96/24/22 97/23/22 102/39/22 101/41/22
f 98/48/22 99/45/22 105/75/22 104/78/22
f 102/39/22 103/36/22 109/66/22 108/69/22
f 105/75/22 106/73/22 111/89/22 110/90/22
f 107/71/22 108/69/22 113/84/22 112/85/22
f 104/78/22 110/90/22 115/110/22 114/113/22
f 109/66/22 117/105/22 116/108/22 113/84/22
f 111/89/22 112/85/22 116/108/22 115/110/22
usemtl MaterialSide
f 1/1/1 3/105/1 4/113/1 2/9/1
f 1/1/2 2/105/2 7/72/2 6/42/2
f 1/105/3 18/72/3 29/42/3 3/1/3
f 2/1/4 4/105/4 32/72/4 21/42/4
f 3/105/5 43/72/5 44/42/5 4/1/5
f 1/1/2 6/42/2 5/13/2
f 2/105/2 8/101/2 7/72/2
f 1/105/3 9/101/3 18/72/3
f 2/1/4 21/42/4 12/13/4
f 3/1/3 29/42/3 38/13/3
f 4/105/4 41/101/4 32/72/4
f 3/105/5 42/101/5 43/72/5
f 4/1/5 44/42/5 45/13/5
f 1/1/2 5/13/2 66/15/2 90/9/2
f 2/105/2 93/113/2 69/103/2 8/101/2
f 1/105/3 90/113/3 70/103/3 9/101/3
f 2/1/4 12/13/4 73/15/4 93/9/4
f 3/1/3 38/13/3 82/15/3 114/9/3
f 4/105/4 117/113/4 85/103/4 41/101/4
f 3/105/5 114/113/5 86/103/5 42/101/5
f 4/1/5 45/13/5 89/15/5 117/9/5
f 6/109/3 95/93/3 46/89/3 14/87/3
f 7/5/4 16/26/4 48/28/4 96/32/4
f 13/26/2 14/42/2 46/43/2 95/48/2
f 16/72/2 17/87/2 96/78/2 48/73/2
f 13/87/3 99/78/3 49/73/3 19/72/3
f 17/26/4 20/42/4 52/43/4 102/48/4
f 18/5/2 19/26/2 49/28/2 99/32/2
f 20/87/2 21/109/2 102/93/2 52/89/2
f 29/109/5 105/93/5 59/89/5 30/87/5
f 31/26/5 62/28/5 108/32/5 32/5/5
f 30/42/3 59/43/3 105/48/3 33/26/3
f 31/72/4 37/87/4 108/78/4 62/73/4
f 33/87/5 111/78/5 63/73/5 34/72/5
f 36/42/5 65/43/5 112/48/5 37/26/5
f 34/26/3 63/28/3 111/32/3 43/5/3
f 36/87/4 44/109/4 112/93/4 65/89/4
f 6/42/2 7/72/2 68/77/2 67/47/2
f 5/5/4 10/13/4 71/15/4 66/8/4
f 8/109/3 69/112/3 72/103/3 11/101/3
f 9/109/5 70/112/5 71/103/5 10/101/5
f 11/13/5 72/15/5 73/8/5 12/5/5
f 18/72/3 76/77/3 78/47/3 29/42/3
f 21/42/4 32/72/4 79/77/4 77/47/4
f 38/5/2 39/13/2 83/15/2 82/8/2
f 40/101/2 41/109/2 85/112/2 84/103/2
f 39/101/4 42/109/4 86/112/4 83/103/4
f 40/13/3 84/15/3 89/8/3 45/5/3
f 43/72/5 87/77/5 88/47/5 44/42/5
f 6/109/3 67/112/3 91/113/3 95/93/3
f 7/5/4 96/32/4 92/9/4 68/8/4
f 13/26/2 95/48/2 94/32/2 74/31/2
f 17/87/2 75/92/2 97/93/2 96/78/2
f 13/87/3 74/92/3 94/93/3 99/78/3
f 17/26/4 102/48/4 97/32/4 75/31/4
f 18/5/2 99/32/2 98/9/2 76/8/2
f 21/109/2 77/112/2 103/113/2 102/93/2
f 29/109/5 78/112/5 104/113/5 105/93/5
f 32/5/5 108/32/5 109/9/5 79/8/5
f 33/26/3 105/48/3 110/32/3 80/31/3
f 37/87/4 81/92/4 113/93/4 108/78/4
f 33/87/5 80/92/5 110/93/5 111/78/5
f 37/26/5 112/48/5 113/32/5 81/31/5
f 43/5/3 111/32/3 115/9/3 87/8/3
f 44/109/4 88/112/4 116/113/4 112/93/4
f 66/2/1 71/11/1 74/23/1 67/4/1
f 68/6/1 75/29/1 72/15/1 69/8/1
f 70/10/1 76/36/1 74/23/1 71/11/1
f 72/15/1 75/29/1 77/48/1 73/16/1
f 78/66/1 82/98/1 83/99/1 80/84/1
f 79/78/1 81/90/1 84/103/1 85/104/1
f 80/84/1 83/99/1 86/106/1 87/108/1
f 81/90/1 88/110/1 89/112/1 84/103/1
f 66/15/2 67/47/2 91/48/2 90/9/2
f 67/47/2 68/77/2 92/78/2 91/48/2
f 68/77/2 69/103/2 93/113/2 92/78/2
f 67/6/19 74/28/19 94/29/19 91/7/19
f 68/108/18 92/107/18 97/84/18 75/85/18
f 70/103/3 90/113/3 98/78/3 76/77/3
f 73/15/4 77/47/4 103/48/4 93/9/4
f 74/45/21 76/48/21 98/32/21 94/29/21
f 75/39/20 97/23/20 103/21/20 77/36/20
f 76/77/3 98/78/3 104/48/3 78/47/3
f 77/47/4 79/77/4 109/78/4 103/48/4
f 78/78/15 80/75/15 110/90/15 104/93/15
f 79/66/14 109/82/14 113/84/14 81/69/14
f 78/47/3 104/48/3 114/9/3 82/15/3
f 79/77/4 85/103/4 117/113/4 109/78/4
f 80/89/17 87/110/17 115/111/17 110/90/17
f 81/24/16 113/23/16 116/3/16 88/4/16
f 86/103/5 114/113/5 115/78/5 87/77/5
f 87/77/5 115/78/5 116/48/5 88/47/5
f 88/47/5 116/48/5 117/9/5 89/15/5
