mtllib cold_distiller.mtl
o Model
v 0.000000 0.000000 0.000000
v 0.000000 0.000000 1.000000
v 1.000000 0.000000 0.000000
v 1.000000 0.000000 1.000000
v 0.000000 0.125000 0.375000
v 0.000000 0.125000 0.625000
v 0.125000 0.125000 0.375000
v 0.125000 0.125000 0.625000
v 0.375000 0.125000 0.000000
v 0.375000 0.125000 0.125000
v 0.375000 0.125000 0.875000
v 0.375000 0.125000 1.000000
v 0.625000 0.125000 0.000000
v 0.625000 0.125000 0.125000
v 0.625000 0.125000 0.875000
v 0.625000 0.125000 1.000000
v 0.875000 0.125000 0.375000
v 0.875000 0.125000 0.625000
v 1.000000 0.125000 0.375000
v 1.000000 0.125000 0.625000
v 0.000000 0.250000 0.250000
v 0.000000 0.250000 0.375000
v 0.000000 0.250000 0.625000
v 0.000000 0.250000 0.750000
v 0.125000 0.250000 0.250000
v 0.125000 0.250000 0.375000
v 0.125000 0.250000 0.625000
v 0.125000 0.250000 0.750000
v 0.250000 0.250000 0.000000
v 0.250000 0.250000 0.125000
v 0.250000 0.250000 0.875000
v 0.250000 0.250000 1.000000
v 0.375000 0.250000 0.000000
v 0.375000 0.250000 0.125000
v 0.375000 0.250000 0.875000
v 0.375000 0.250000 1.000000
v 0.625000 0.250000 0.000000
v 0.625000 0.250000 0.125000
v 0.625000 0.250000 0.875000
v 0.625000 0.250000 1.000000
v 0.750000 0.250000 0.000000
v 0.750000 0.250000 0.125000
v 0.750000 0.250000 0.875000
v 0.750000 0.250000 1.000000
v 0.875000 0.250000 0.250000
v 0.875000 0.250000 0.375000
v 0.875000 0.250000 0.625000
v 0.875000 0.250000 0.750000
v 1.000000 0.250000 0.250000
v 1.000000 0.250000 0.375000
v 1.000000 0.250000 0.625000
v 1.000000 0.250000 0.750000
v 0.000000 0.375000 0.125000
v 0.000000 0.375000 0.250000
v 0.000000 0.375000 0.375000
v 0.000000 0.375000 0.625000
v 0.000000 0.375000 0.750000
v 0.000000 0.375000 0.875000
v 0.125000 0.375000 0.000000
v 0.125000 0.375000 0.125000
v 0.125000 0.375000 0.250000
v 0.125000 0.375000 0.375000
v 0.125000 0.375000 0.625000
v 0.125000 0.375000 0.750000
v 0.125000 0.375000 0.875000
v 0.125000 0.375000 1.000000
v 0.250000 0.375000 0.000000
v 0.250000 0.375000 0.125000
v 0.250000 0.375000 0.375000
v 0.250000 0.375000 0.625000
v 0.250000 0.375000 0.875000
v 0.250000 0.375000 1.000000
v 0.375000 0.375000 0.000000
v 0.375000 0.375000 0.125000
v 0.375000 0.375000 0.250000
v 0.375000 0.375000 0.750000
v 0.375000 0.375000 0.875000
v 0.375000 0.375000 1.000000
v 0.625000 0.375000 0.000000
v 0.625000 0.375000 0.125000
v 0.625000 0.375000 0.250000
v 0.625000 0.375000 0.750000
v 0.625000 0.375000 0.875000
v 0.625000 0.375000 1.000000
v 0.750000 0.375000 0.000000
v 0.750000 0.375000 0.125000
v 0.750000 0.375000 0.375000
v 0.750000 0.375000 0.625000
v 0.750000 0.375000 0.875000
v 0.750000 0.375000 1.000000
v 0.875000 0.375000 0.000000
v 0.875000 0.375000 0.125000
v 0.875000 0.375000 0.250000
v 0.875000 0.375000 0.375000
v 0.875000 0.375000 0.625000
v 0.875000 0.375000 0.750000
v 0.875000 0.375000 0.875000
v 0.875000 0.375000 1.000000
v 1.000000 0.375000 0.125000
v 1.000000 0.375000 0.250000
v 1.000000 0.375000 0.375000
v 1.000000 0.375000 0.625000
v 1.000000 0.375000 0.750000
v 1.000000 0.375000 0.875000
v 0.000000 0.625000 0.125000
v 0.000000 0.625000 0.250000
v 0.000000 0.625000 0.375000
v 0.000000 0.625000 0.625000
v 0.000000 0.625000 0.750000
v 0.000000 0.625000 0.875000
v 0.125000 0.625000 0.000000
v 0.125000 0.625000 0.125000
v 0.125000 0.625000 0.250000
v 0.125000 0.625000 0.375000
v 0.125000 0.625000 0.625000
v 0.125000 0.625000 0.750000
v 0.125000 0.625000 0.875000
v 0.125000 0.625000 1.000000
v 0.250000 0.625000 0.000000
v 0.250000 0.625000 0.125000
v 0.250000 0.625000 0.375000
v 0.250000 0.625000 0.625000
v 0.250000 0.625000 0.875000
v 0.250000 0.625000 1.000000
v 0.375000 0.625000 0.000000
v 0.375000 0.625000 0.125000
v 0.375000 0.625000 0.250000
v 0.375000 0.625000 0.750000
v 0.375000 0.625000 0.875000
v 0.375000 0.625000 1.000000
v 0.625000 0.625000 0.000000
v 0.625000 0.625000 0.125000
v 0.625000 0.625000 0.250000
v 0.625000 0.625000 0.750000
v 0.625000 0.625000 0.875000
v 0.625000 0.625000 1.000000
v 0.750000 0.625000 0.000000
v 0.750000 0.625000 0.125000
v 0.750000 0.625000 0.375000
v 0.750000 0.625000 0.625000
v 0.750000 0.625000 0.875000
v 0.750000 0.625000 1.000000
v 0.875000 0.625000 0.000000
v 0.875000 0.625000 0.125000
v 0.875000 0.625000 0.250000
v 0.875000 0.625000 0.375000
v 0.875000 0.625000 0.625000
v 0.875000 0.625000 0.750000
v 0.875000 0.625000 0.875000
v 0.875000 0.625000 1.000000
v 1.000000 0.625000 0.125000
v 1.000000 0.625000 0.250000
v 1.000000 0.625000 0.375000
v 1.000000 0.625000 0.625000
v 1.000000 0.625000 0.750000
v 1.000000 0.625000 0.875000
v 0.000000 0.750000 0.250000
v 0.000000 0.750000 0.375000
v 0.000000 0.750000 0.625000
v 0.000000 0.750000 0.750000
v 0.125000 0.750000 0.250000
v 0.125000 0.750000 0.375000
v 0.125000 0.750000 0.625000
v 0.125000 0.750000 0.750000
v 0.250000 0.750000 0.000000
v 0.250000 0.750000 0.125000
v 0.250000 0.750000 0.875000
v 0.250000 0.750000 1.000000
v 0.375000 0.750000 0.000000
v 0.375000 0.750000 0.125000
v 0.375000 0.750000 0.375000
v 0.375000 0.750000 0.625000
v 0.375000 0.750000 0.875000
v 0.375000 0.750000 1.000000
v 0.625000 0.750000 0.000000
v 0.625000 0.750000 0.125000
v 0.625000 0.750000 0.375000
v 0.625000 0.750000 0.625000
v 0.625000 0.750000 0.875000
v 0.625000 0.750000 1.000000
v 0.750000 0.750000 0.000000
v 0.750000 0.750000 0.125000
v 0.750000 0.750000 0.875000
v 0.750000 0.750000 1.000000
v 0.875000 0.750000 0.250000
v 0.875000 0.750000 0.375000
v 0.875000 0.750000 0.625000
v 0.875000 0.750000 0.750000
v 1.000000 0.750000 0.250000
v 1.000000 0.750000 0.375000
v 1.000000 0.750000 0.625000
v 1.000000 0.750000 0.750000
v 0.000000 0.875000 0.000000
v 0.000000 0.875000 0.125000
v 0.000000 0.875000 0.375000
v 0.000000 0.875000 0.625000
v 0.000000 0.875000 0.875000
v 0.000000 0.875000 1.000000
v 0.062500 0.875000 0.062500
v 0.062500 0.875000 0.125000
v 0.062500 0.875000 0.875000
v 0.062500 0.875000 0.937500
v 0.125000 0.875000 0.000000
v 0.125000 0.875000 0.062500
v 0.125000 0.875000 0.125000
v 0.125000 0.875000 0.375000
v 0.125000 0.875000 0.625000
v 0.125000 0.875000 0.875000
v 0.125000 0.875000 0.937500
v 0.125000 0.875000 1.000000
v 0.250000 0.875000 0.375000
v 0.250000 0.875000 0.625000
v 0.312500 0.875000 0.312500
v 0.312500 0.875000 0.687500
v 0.375000 0.875000 0.000000
v 0.375000 0.875000 0.125000
v 0.375000 0.875000 0.250000
v 0.375000 0.875000 0.375000
v 0.375000 0.875000 0.625000
v 0.375000 0.875000 0.750000
v 0.375000 0.875000 0.875000
v 0.375000 0.875000 1.000000
v 0.625000 0.875000 0.000000
v 0.625000 0.875000 0.125000
v 0.625000 0.875000 0.250000
v 0.625000 0.875000 0.375000
v 0.625000 0.875000 0.625000
v 0.625000 0.875000 0.750000
v 0.625000 0.875000 0.875000
v 0.625000 0.875000 1.000000
v 0.687500 0.875000 0.312500
v 0.687500 0.875000 0.687500
v 0.750000 0.875000 0.375000
v 0.750000 0.875000 0.625000
v 0.875000 0.875000 0.000000
v 0.875000 0.875000 0.062500
v 0.875000 0.875000 0.125000
v 0.875000 0.875000 0.375000
v 0.875000 0.875000 0.625000
v 0.875000 0.875000 0.875000
v 0.875000 0.875000 0.937500
v 0.875000 0.875000 1.000000
v 0.937500 0.875000 0.062500
v 0.937500 0.875000 0.125000
v 0.937500 0.875000 0.875000
v 0.937500 0.875000 0.937500
v 1.000000 0.875000 0.000000
v 1.000000 0.875000 0.125000
v 1.000000 0.875000 0.375000
v 1.000000 0.875000 0.625000
v 1.000000 0.875000 0.875000
v 1.000000 0.875000 1.000000
v 0.062500 0.937500 0.062500
v 0.062500 0.937500 0.125000
v 0.062500 0.937500 0.875000
v 0.062500 0.937500 0.937500
v 0.125000 0.937500 0.062500
v 0.125000 0.937500 0.125000
v 0.125000 0.937500 0.875000
v 0.125000 0.937500 0.937500
v 0.875000 0.937500 0.062500
v 0.875000 0.937500 0.125000
v 0.875000 0.937500 0.875000
v 0.875000 0.937500 0.937500
v 0.937500 0.937500 0.062500
v 0.937500 0.937500 0.125000
v 0.937500 0.937500 0.875000
v 0.937500 0.937500 0.937500
v 0.000000 1.000000 0.125000
v 0.000000 1.000000 0.875000
v 0.125000 1.000000 0.000000
v 0.125000 1.000000 0.125000
v 0.125000 1.000000 0.875000
v 0.125000 1.000000 1.000000
v 0.250000 1.000000 0.375000
v 0.250000 1.000000 0.625000
v 0.312500 1.000000 0.312500
v 0.312500 1.000000 0.687500
v 0.375000 1.000000 0.250000
v 0.375000 1.000000 0.375000
v 0.375000 1.000000 0.625000
v 0.375000 1.000000 0.750000
v 0.625000 1.000000 0.250000
v 0.625000 1.000000 0.375000
v 0.625000 1.000000 0.625000
v 0.625000 1.000000 0.750000
v 0.687500 1.000000 0.312500
v 0.687500 1.000000 0.687500
v 0.750000 1.000000 0.375000
v 0.750000 1.000000 0.625000
v 0.875000 1.000000 0.000000
v 0.875000 1.000000 0.125000
v 0.875000 1.000000 0.875000
v 0.875000 1.000000 1.000000
v 1.000000 1.000000 0.125000
v 1.000000 1.000000 0.875000
vn 0.0000 -1.0000 0.0000
vn -1.0000 0.0000 0.0000
vn 0.0000 0.0000 -1.0000
vn 0.0000 0.0000 1.0000
vn 1.0000 0.0000 0.0000
vn -0.7071 0.0000 -0.7071
vn -0.7071 0.0000 0.7071
vn 0.7071 0.0000 -0.7071
vn 0.7071 0.0000 0.7071
vn 0.0000 1.0000 0.0000
vt 0.000000 0.000000
vt 0.000000 0.125000
vt 0.000000 0.875000
vt 0.000000 1.000000
vt 0.062500 0.062500
vt 0.062500 0.125000
vt 0.062500 0.375000
vt 0.062500 0.625000
vt 0.062500 0.875000
vt 0.062500 0.937500
vt 0.125000 0.000000
vt 0.125000 0.062500
vt 0.125000 0.125000
vt 0.125000 0.187500
vt 0.125000 0.312500
vt 0.125000 0.375000
vt 0.125000 0.437500
vt 0.125000 0.562500
vt 0.125000 0.625000
vt 0.125000 0.687500
vt 0.125000 0.812500
vt 0.125000 0.875000
vt 0.125000 0.937500
vt 0.125000 1.000000
vt 0.187500 0.125000
vt 0.187500 0.250000
vt 0.187500 0.375000
vt 0.187500 0.625000
vt 0.187500 0.750000
vt 0.187500 0.875000
vt 0.250000 0.187500
vt 0.250000 0.250000
vt 0.250000 0.312500
vt 0.250000 0.375000
vt 0.250000 0.437500
vt 0.250000 0.562500
vt 0.250000 0.625000
vt 0.250000 0.687500
vt 0.250000 0.750000
vt 0.250000 0.812500
vt 0.312500 0.125000
vt 0.312500 0.250000
vt 0.312500 0.312500
vt 0.312500 0.375000
vt 0.312500 0.625000
vt 0.312500 0.687500
vt 0.312500 0.750000
vt 0.312500 0.875000
vt 0.375000 0.062500
vt 0.375000 0.125000
vt 0.375000 0.187500
vt 0.375000 0.250000
vt 0.375000 0.312500
vt 0.375000 0.375000
vt 0.375000 0.437500
vt 0.375000 0.562500
vt 0.375000 0.625000
vt 0.375000 0.687500
vt 0.375000 0.750000
vt 0.375000 0.812500
vt 0.375000 0.875000
vt 0.375000 0.937500
vt 0.437500 0.125000
vt 0.437500 0.250000
vt 0.437500 0.375000
vt 0.437500 0.625000
vt 0.437500 0.750000
vt 0.437500 0.875000
vt 0.562500 0.125000
vt 0.562500 0.250000
vt 0.562500 0.375000
vt 0.562500 0.625000
vt 0.562500 0.750000
vt 0.562500 0.875000
vt 0.625000 0.062500
vt 0.625000 0.125000
vt 0.625000 0.187500
vt 0.625000 0.250000
vt 0.625000 0.312500
vt 0.625000 0.375000
vt 0.625000 0.437500
vt 0.625000 0.562500
vt 0.625000 0.625000
vt 0.625000 0.687500
vt 0.625000 0.750000
vt 0.625000 0.812500
vt 0.625000 0.875000
vt 0.625000 0.937500
vt 0.687500 0.125000
vt 0.687500 0.250000
vt 0.687500 0.312500
vt 0.687500 0.375000
vt 0.687500 0.625000
vt 0.687500 0.687500
vt 0.687500 0.750000
vt 0.687500 0.875000
vt 0.750000 0.187500
vt 0.750000 0.250000
vt 0.750000 0.312500
vt 0.750000 0.375000
vt 0.750000 0.437500
vt 0.750000 0.562500
vt 0.750000 0.625000
vt 0.750000 0.687500
vt 0.750000 0.750000
vt 0.750000 0.812500
vt 0.812500 0.125000
vt 0.812500 0.250000
vt 0.812500 0.375000
vt 0.812500 0.625000
vt 0.812500 0.750000
vt 0.812500 0.875000
vt 0.875000 0.000000
vt 0.875000 0.062500
vt 0.875000 0.125000
vt 0.875000 0.187500
vt 0.875000 0.312500
vt 0.875000 0.375000
vt 0.875000 0.437500
vt 0.875000 0.562500
vt 0.875000 0.625000
vt 0.875000 0.687500
vt 0.875000 0.812500
vt 0.875000 0.875000
vt 0.875000 0.937500
vt 0.875000 1.000000
vt 0.937500 0.062500
vt 0.937500 0.125000
vt 0.937500 0.375000
vt 0.937500 0.625000
vt 0.937500 0.875000
vt 0.937500 0.937500
vt 1.000000 0.000000
vt 1.000000 0.125000
vt 1.000000 0.875000
vt 1.000000 1.000000
usemtl MaterialTop
f 171/57/10 172/54/10 178/80/10 177/83/10
f 171/66/5 218/57/5 219/54/5 172/65/5
f 171/56/4 177/82/4 226/83/4 218/57/4
f 172/55/3 219/54/3 227/80/3 178/81/3
f 177/72/2 178/71/2 227/80/2 226/83/2
f 193/4/10 194/3/10 200/9/10 199/10/10
f 197/2/10 198/1/10 202/5/10 201/6/10
f 193/4/10 199/10/10 204/23/10 203/24/10
f 198/1/10 210/11/10 209/12/10 202/5/10
f 206/19/10 207/16/10 212/34/10 211/37/10
f 205/22/10 206/19/10 211/37/10 213/46/10
f 207/16/10 208/13/10 214/43/10 212/34/10
f 205/22/10 213/46/10 217/59/10 216/61/10
f 208/13/10 221/50/10 220/52/10 214/43/10
f 216/61/10 217/59/10 225/85/10 224/87/10
f 220/52/10 221/50/10 229/76/10 228/78/10
f 224/87/10 225/85/10 231/94/10 237/124/10
f 228/78/10 229/76/10 240/115/10 232/91/10
f 231/94/10 233/103/10 238/121/10 237/124/10
f 232/91/10 240/115/10 239/118/10 234/100/10
f 233/103/10 234/100/10 239/118/10 238/121/10
f 235/126/10 236/125/10 243/132/10 247/136/10
f 241/114/10 242/113/10 252/133/10 246/127/10
f 243/132/10 244/131/10 248/135/10 247/136/10
f 245/128/10 246/127/10 252/133/10 251/134/10
f 205/30/5 258/22/5 272/9/5 206/28/5
f 207/27/5 273/6/5 259/13/5 208/25/5
f 205/21/4 216/60/4 272/23/4 258/22/4
f 208/14/3 259/13/3 273/12/3 221/51/3
f 224/86/4 237/123/4 262/124/4 292/125/4
f 229/77/3 293/114/3 263/115/3 240/116/3
f 237/112/2 238/110/2 292/131/2 262/124/2
f 239/109/2 240/107/2 263/115/2 293/128/2
f 253/10/10 254/9/10 258/22/10 257/23/10
f 255/6/10 256/5/10 260/12/10 259/13/10
f 206/28/5 272/9/5 273/6/5 207/27/5
f 211/28/2 212/27/2 276/44/2 275/45/2
f 211/37/6 275/45/6 277/46/6 213/38/6
f 212/34/7 214/33/7 278/43/7 276/44/7
f 213/47/6 277/46/6 279/58/6 217/59/6
f 214/42/7 220/52/7 282/53/7 278/43/7
f 218/57/5 280/45/5 281/44/5 219/54/5
f 216/60/4 224/86/4 292/125/4 272/23/4
f 217/60/3 279/58/3 283/84/3 225/86/3
f 218/57/4 226/83/4 284/84/4 280/58/4
f 219/54/3 281/53/3 285/79/3 227/80/3
f 220/51/4 228/77/4 286/79/4 282/53/4
f 221/51/3 273/12/3 293/114/3 229/77/3
f 226/83/2 227/80/2 285/92/2 284/93/2
f 225/85/8 283/84/8 287/94/8 231/95/8
f 228/78/9 232/90/9 288/91/9 286/79/9
f 231/104/8 287/94/8 289/93/8 233/103/8
f 232/99/9 234/100/9 290/92/9 288/91/9
f 233/110/5 289/93/5 290/92/5 234/109/5
f 238/110/2 239/109/2 293/128/2 292/131/2
f 261/125/10 262/124/10 266/131/10 265/132/10
f 263/115/10 264/114/10 268/127/10 267/128/10
f 269/3/10 270/2/10 273/13/10 272/22/10
f 275/37/10 276/34/10 281/54/10 280/57/10
f 275/37/10 280/57/10 279/59/10 277/46/10
f 276/34/10 278/43/10 282/52/10 281/54/10
f 271/24/10 272/22/10 292/124/10 291/126/10
f 279/59/10 280/57/10 284/83/10 283/85/10
f 281/54/10 282/52/10 286/78/10 285/80/10
f 273/13/10 274/11/10 294/113/10 293/115/10
f 283/85/10 284/83/10 289/103/10 287/94/10
f 285/80/10 286/78/10 288/91/10 290/100/10
f 284/83/10 285/80/10 290/100/10 289/103/10
f 292/124/10 293/115/10 296/134/10 295/135/10
usemtl MaterialBottom
f 1/133/1 3/1/1 4/4/1 2/136/1
usemtl MaterialSide
f 1/1/2 2/133/2 6/76/2 5/50/2
f 1/133/3 9/76/3 13/50/3 3/1/3
f 2/1/4 4/133/4 16/76/4 12/50/4
f 3/133/5 19/76/5 20/50/5 4/1/5
f 5/49/10 6/75/10 8/77/10 7/51/10
f 9/75/10 10/77/10 14/51/10 13/49/10
f 11/51/10 12/49/10 16/75/10 15/77/10
f 17/77/10 18/51/10 20/49/10 19/75/10
f 1/1/2 5/50/2 22/52/2 21/32/2
f 2/133/2 24/98/2 23/78/2 6/76/2
f 1/133/3 29/98/3 33/78/3 9/76/3
f 2/1/4 12/50/4 36/52/4 32/32/4
f 3/1/3 13/50/3 37/52/3 41/32/3
f 4/133/4 44/98/4 40/78/4 16/76/4
f 3/133/5 49/98/5 50/78/5 19/76/5
f 4/1/5 20/50/5 51/52/5 52/32/5
f 5/41/4 7/63/4 26/64/4 22/42/4
f 6/89/3 23/90/3 27/70/3 8/69/3
f 7/50/2 8/76/2 27/78/2 26/52/2
f 9/89/5 33/90/5 34/70/5 10/69/5
f 11/63/5 35/64/5 36/42/5 12/41/5
f 10/76/3 34/78/3 38/52/3 14/50/3
f 11/50/4 15/76/4 39/78/4 35/52/4
f 13/41/2 14/63/2 38/64/2 37/42/2
f 15/69/2 16/89/2 40/90/2 39/70/2
f 17/76/5 46/78/5 47/52/5 18/50/5
f 17/69/4 19/89/4 50/90/4 46/70/4
f 18/63/3 47/64/3 51/42/3 20/41/3
f 1/1/2 21/32/2 54/34/2 53/16/2
f 2/133/2 58/118/2 57/100/2 24/98/2
f 21/31/10 22/51/10 26/53/10 25/33/10
f 22/53/1 26/51/1 27/77/1 23/79/1
f 23/77/10 24/97/10 28/99/10 27/79/10
f 1/133/3 59/118/3 67/100/3 29/98/3
f 2/1/4 32/32/4 72/34/4 66/16/4
f 29/97/10 30/99/10 34/79/10 33/77/10
f 31/33/10 32/31/10 36/51/10 35/53/10
f 33/79/1 37/53/1 38/51/1 34/77/1
f 35/51/1 39/77/1 40/79/1 36/53/1
f 37/51/10 38/53/10 42/33/10 41/31/10
f 39/79/10 40/77/10 44/97/10 43/99/10
f 3/1/3 41/32/3 85/34/3 91/16/3
f 4/133/4 98/118/4 90/100/4 44/98/4
f 45/99/10 46/79/10 50/77/10 49/97/10
f 46/77/1 50/79/1 51/53/1 47/51/1
f 47/53/10 48/33/10 52/31/10 51/51/10
f 3/133/5 99/118/5 100/100/5 49/98/5
f 4/1/5 52/32/5 103/34/5 104/16/5
f 22/52/2 23/78/2 56/80/2 55/54/2
f 21/26/4 25/42/4 61/44/4 54/27/4
f 22/64/3 55/65/3 62/44/3 26/42/3
f 23/70/4 27/90/4 63/92/4 56/71/4
f 24/108/3 57/109/3 64/92/3 28/90/3
f 25/32/2 26/52/2 62/54/2 61/34/2
f 27/78/2 28/98/2 64/100/2 63/80/2
f 29/108/5 67/109/5 68/92/5 30/90/5
f 31/42/5 71/44/5 72/27/5 32/26/5
f 30/98/3 68/100/3 74/80/3 34/78/3
f 31/32/4 35/52/4 77/54/4 71/34/4
f 33/70/2 34/90/2 74/92/2 73/71/2
f 35/42/2 36/64/2 78/65/2 77/44/2
f 33/78/3 73/80/3 79/54/3 37/52/3
f 36/52/4 40/78/4 84/80/4 78/54/4
f 37/64/5 79/65/5 80/44/5 38/42/5
f 39/90/5 83/92/5 84/71/5 40/70/5
f 38/52/3 80/54/3 86/34/3 42/32/3
f 39/78/4 43/98/4 89/100/4 83/80/4
f 41/26/2 42/42/2 86/44/2 85/27/2
f 43/90/2 44/108/2 90/109/2 89/92/2
f 45/98/5 93/100/5 94/80/5 46/78/5
f 47/52/5 95/54/5 96/34/5 48/32/5
f 45/90/4 49/108/4 100/109/4 93/92/4
f 46/90/3 94/92/3 101/71/3 50/70/3
f 47/42/4 51/64/4 102/65/4 95/44/4
f 48/42/3 96/44/3 103/27/3 52/26/3
f 50/78/5 101/80/5 102/54/5 51/52/5
f 53/15/10 54/33/10 61/35/10 60/17/10
f 54/35/1 61/33/1 62/53/1 55/55/1
f 55/53/10 56/79/10 63/80/10 62/54/10
f 56/81/1 63/79/1 64/99/1 57/101/1
f 57/99/10 58/117/10 65/119/10 64/101/10
f 59/117/10 60/119/10 68/101/10 67/99/10
f 62/54/10 63/80/10 70/81/10 69/55/10
f 65/17/10 66/15/10 72/33/10 71/35/10
f 67/101/1 73/81/1 74/79/1 68/99/1
f 71/33/1 77/53/1 78/55/1 72/35/1
f 73/79/10 74/80/10 80/54/10 79/53/10
f 74/80/10 75/81/10 81/55/10 80/54/10
f 76/55/10 77/54/10 83/80/10 82/81/10
f 77/54/10 78/53/10 84/79/10 83/80/10
f 79/55/1 85/35/1 86/33/1 80/53/1
f 83/79/1 89/99/1 90/101/1 84/81/1
f 85/33/10 86/35/10 92/17/10 91/15/10
f 87/81/10 88/55/10 95/54/10 94/80/10
f 89/101/10 90/99/10 98/117/10 97/119/10
f 92/119/10 93/101/10 100/99/10 99/117/10
f 93/99/1 100/101/1 101/81/1 94/79/1
f 94/80/10 95/54/10 102/53/10 101/79/10
f 95/53/1 102/55/1 103/35/1 96/33/1
f 96/35/10 97/17/10 104/15/10 103/33/10
f 1/1/2 53/16/2 105/19/2 193/3/2
f 2/133/2 198/135/2 110/121/2 58/118/2
f 1/133/3 193/135/3 111/121/3 59/118/3
f 2/1/4 66/16/4 118/19/4 198/3/4
f 3/1/3 91/16/3 143/19/3 247/3/3
f 4/133/4 252/135/4 150/121/4 98/118/4
f 3/133/5 247/135/5 151/121/5 99/118/5
f 4/1/5 104/16/5 156/19/5 252/3/5
f 54/34/2 55/54/2 107/57/2 106/37/2
f 56/80/2 57/100/2 109/103/2 108/83/2
f 53/7/4 60/27/4 112/28/4 105/8/4
f 54/44/3 106/45/3 113/28/3 61/27/3
f 55/44/4 62/54/4 114/57/4 107/45/4
f 56/92/3 108/93/3 115/83/3 63/80/3
f 57/92/4 64/109/4 116/110/4 109/93/4
f 58/129/3 110/130/3 117/110/3 65/109/3
f 59/129/5 111/130/5 112/110/5 60/109/5
f 60/16/2 61/34/2 113/37/2 112/19/2
f 64/100/2 65/118/2 117/121/2 116/103/2
f 65/27/5 117/28/5 118/8/5 66/7/5
f 60/118/3 112/121/3 120/103/3 68/100/3
f 62/54/4 69/65/4 121/66/4 114/57/4
f 63/80/3 115/83/3 122/72/3 70/71/3
f 65/16/4 71/34/4 123/37/4 117/19/4
f 67/92/2 68/109/2 120/110/2 119/93/2
f 69/54/2 70/80/2 122/83/2 121/57/2
f 71/27/2 72/44/2 124/45/2 123/28/2
f 67/100/3 119/103/3 125/83/3 73/80/3
f 72/34/4 78/54/4 130/57/4 124/37/4
f 73/92/5 125/93/5 126/83/5 74/80/5
f 74/80/5 126/83/5 127/72/5 75/71/5
f 76/65/5 128/66/5 129/57/5 77/54/5
f 77/54/5 129/57/5 130/45/5 78/44/5
f 75/80/3 127/83/3 133/57/3 81/54/3
f 76/54/4 82/80/4 134/83/4 128/57/4
f 79/44/2 80/54/2 132/57/2 131/45/2
f 80/54/2 81/65/2 133/66/2 132/57/2
f 82/71/2 83/80/2 135/83/2 134/72/2
f 83/80/2 84/92/2 136/93/2 135/83/2
f 79/54/3 131/57/3 137/37/3 85/34/3
f 84/80/4 90/100/4 142/103/4 136/83/4
f 85/44/5 137/45/5 138/28/5 86/27/5
f 87/80/5 139/83/5 140/57/5 88/54/5
f 89/109/5 141/110/5 142/93/5 90/92/5
f 86/34/3 138/37/3 144/19/3 92/16/3
f 87/71/4 94/80/4 146/83/4 139/72/4
f 88/65/3 140/66/3 147/57/3 95/54/3
f 89/100/4 97/118/4 149/121/4 141/103/4
f 91/7/2 92/27/2 144/28/2 143/8/2
f 92/118/5 144/121/5 145/103/5 93/100/5
f 96/34/5 148/37/5 149/19/5 97/16/5
f 97/109/2 98/129/2 150/130/2 149/110/2
f 92/109/4 99/129/4 151/130/4 144/110/4
f 93/109/3 145/110/3 152/93/3 100/92/3
f 94/80/4 101/92/4 153/93/4 146/83/4
f 95/54/3 147/57/3 154/45/3 102/44/3
f 96/27/4 103/44/4 155/45/4 148/28/4
f 97/27/3 149/28/3 156/8/3 104/7/3
f 100/100/5 152/103/5 153/83/5 101/80/5
f 102/54/5 154/57/5 155/37/5 103/34/5
f 105/20/1 112/18/1 113/36/1 106/38/1
f 106/36/10 107/56/10 114/58/10 113/38/10
f 107/58/1 114/57/1 115/83/1 108/84/1
f 108/82/10 109/102/10 116/104/10 115/84/10
f 109/104/1 116/102/1 117/120/1 110/122/1
f 111/122/1 119/104/1 120/102/1 112/120/1
f 114/57/1 121/56/1 122/82/1 115/83/1
f 117/18/1 123/36/1 124/38/1 118/20/1
f 119/102/10 120/104/10 126/84/10 125/82/10
f 123/38/10 124/36/10 130/56/10 129/58/10
f 125/84/1 131/58/1 132/57/1 126/83/1
f 126/83/1 132/57/1 133/56/1 127/82/1
f 128/56/1 134/82/1 135/83/1 129/57/1
f 129/57/1 135/83/1 136/84/1 130/58/1
f 131/56/10 132/58/10 138/38/10 137/36/10
f 135/84/10 136/82/10 142/102/10 141/104/10
f 137/38/1 143/20/1 144/18/1 138/36/1
f 139/82/1 146/83/1 147/57/1 140/56/1
f 141/102/1 149/120/1 150/122/1 142/104/1
f 144/120/1 151/122/1 152/104/1 145/102/1
f 145/104/10 146/84/10 153/82/10 152/102/10
f 146/83/1 153/84/1 154/58/1 147/57/1
f 147/58/10 148/38/10 155/36/10 154/56/10
f 148/36/1 155/38/1 156/20/1 149/18/1
f 107/57/2 108/83/2 159/85/2 158/59/2
f 106/28/4 113/45/4 161/47/4 157/29/4
f 107/66/3 158/67/3 162/47/3 114/45/3
f 108/72/4 115/93/4 163/95/4 159/73/4
f 109/110/3 160/111/3 164/95/3 116/93/3
f 113/37/2 114/57/2 162/59/2 161/39/2
f 115/83/2 116/103/2 164/105/2 163/85/2
f 119/110/5 165/111/5 166/95/5 120/93/5
f 123/45/5 167/47/5 168/29/5 124/28/5
f 120/103/3 166/105/3 170/85/3 126/83/3
f 123/37/4 129/57/4 173/59/4 167/39/4
f 125/72/2 126/93/2 170/95/2 169/73/2
f 129/45/2 130/66/2 174/67/2 173/47/2
f 125/83/3 169/85/3 175/59/3 131/57/3
f 130/57/4 136/83/4 180/85/4 174/59/4
f 131/66/5 175/67/5 176/47/5 132/45/5
f 135/93/5 179/95/5 180/73/5 136/72/5
f 132/57/3 176/59/3 182/39/3 138/37/3
f 135/83/4 141/103/4 183/105/4 179/85/4
f 137/28/2 138/45/2 182/47/2 181/29/2
f 141/93/2 142/110/2 184/111/2 183/95/2
f 145/103/5 185/105/5 186/85/5 146/83/5
f 147/57/5 187/59/5 188/39/5 148/37/5
f 145/93/4 152/110/4 189/111/4 185/95/4
f 146/93/3 186/95/3 190/73/3 153/72/3
f 147/45/4 154/66/4 191/67/4 187/47/4
f 148/45/3 188/47/3 192/29/3 155/28/3
f 153/83/5 190/85/5 191/59/5 154/57/5
f 105/19/2 106/37/2 157/39/2 194/22/2
f 109/103/2 110/121/2 197/124/2 160/105/2
f 111/121/3 203/124/3 165/105/3 119/103/3
f 118/19/4 124/37/4 168/39/4 210/22/4
f 137/37/3 181/39/3 235/22/3 143/19/3
f 142/103/4 150/121/4 242/124/4 184/105/4
f 151/121/5 248/124/5 189/105/5 152/103/5
f 155/37/5 192/39/5 251/22/5 156/19/5
f 157/40/1 161/38/1 162/58/1 158/60/1
f 158/58/10 159/84/10 163/86/10 162/60/10
f 159/86/1 163/84/1 164/104/1 160/106/1
f 165/106/1 169/86/1 170/84/1 166/104/1
f 167/38/1 173/58/1 174/60/1 168/40/1
f 169/84/10 170/86/10 176/60/10 175/58/10
f 173/60/10 174/58/10 180/84/10 179/86/10
f 175/60/1 181/40/1 182/38/1 176/58/1
f 179/84/1 183/104/1 184/106/1 180/86/1
f 185/104/1 189/106/1 190/86/1 186/84/1
f 186/86/10 187/60/10 191/58/10 190/84/10
f 187/58/1 191/60/1 192/40/1 188/38/1
f 105/19/2 194/22/2 193/3/2
f 110/121/2 198/135/2 197/124/2
f 111/121/3 193/135/3 203/124/3
f 118/19/4 210/22/4 198/3/4
f 143/19/3 235/22/3 247/3/3
f 150/121/4 252/135/4 242/124/4
f 151/121/5 247/135/5 248/124/5
f 156/19/5 251/22/5 252/3/5
f 157/39/2 158/59/2 195/61/2 194/22/2
f 159/85/2 160/105/2 197/124/2 196/87/2
f 158/47/4 162/67/4 206/68/4 195/48/4
f 159/95/3 196/96/3 207/74/3 163/73/3
f 162/59/2 163/85/2 207/87/2 206/61/2
f 165/105/3 203/124/3 215/87/3 169/85/3
f 168/39/4 174/59/4 222/61/4 210/22/4
f 169/95/5 215/96/5 216/74/5 170/73/5
f 173/67/5 221/68/5 222/48/5 174/47/5
f 170/85/3 216/87/3 224/61/3 176/59/3
f 173/59/4 179/85/4 229/87/4 221/61/4
f 175/47/2 176/67/2 224/68/2 223/48/2
f 179/73/2 180/95/2 230/96/2 229/74/2
f 175/59/3 223/61/3 235/22/3 181/39/3
f 180/85/4 184/105/4 242/124/4 230/87/4
f 186/85/5 238/87/5 239/61/5 187/59/5
f 186/73/4 190/95/4 249/96/4 238/74/4
f 187/67/3 239/68/3 250/48/3 191/47/3
f 189/105/5 248/124/5 249/87/5 190/85/5
f 191/59/5 250/61/5 251/22/5 192/39/5
f 195/62/1 206/60/1 207/86/1 196/88/1
f 215/88/1 223/62/1 224/60/1 216/86/1
f 221/60/1 229/86/1 230/88/1 222/62/1
f 238/86/1 249/88/1 250/62/1 239/60/1
f 199/9/2 200/22/2 254/23/2 253/10/2
f 201/124/2 202/131/2 256/132/2 255/125/2
f 199/131/3 253/132/3 257/125/3 204/124/3
f 202/9/4 209/22/4 260/23/4 256/10/4
f 236/22/3 261/23/3 265/10/3 243/9/3
f 241/124/4 246/131/4 268/132/4 264/125/4
f 243/131/5 265/132/5 266/125/5 244/124/5
f 245/22/5 267/23/5 268/10/5 246/9/5
f 194/22/2 195/61/2 269/24/2
f 196/87/2 197/124/2 270/126/2
f 203/124/3 271/126/3 215/87/3
f 210/22/4 222/61/4 274/24/4
f 223/61/3 291/24/3 235/22/3
f 230/87/4 242/124/4 294/126/4
f 248/124/5 295/126/5 249/87/5
f 250/61/5 296/24/5 251/22/5
f 194/135/3 269/136/3 254/132/3 200/131/3
f 197/3/4 201/9/4 255/10/4 270/4/4
f 203/3/2 204/9/2 257/10/2 271/4/2
f 209/131/2 210/135/2 274/136/2 260/132/2
f 235/135/5 291/136/5 261/132/5 236/131/5
f 241/9/5 264/10/5 294/4/5 242/3/5
f 244/9/3 266/10/3 295/4/3 248/3/3
f 245/131/4 251/135/4 296/136/4 267/132/4
f 195/61/2 196/87/2 270/126/2 269/24/2
f 215/87/3 271/126/3 291/24/3 223/61/3
f 222/61/4 230/87/4 294/126/4 274/24/4
f 249/87/5 295/126/5 296/24/5 250/61/5
f 254/132/3 269/136/3 272/126/3 258/125/3
f 255/10/4 259/23/4 273/24/4 270/4/4
f 257/10/2 258/23/2 272/24/2 271/4/2
f 259/125/2 260/132/2 274/136/2 273/126/2
f 261/132/5 291/136/5 292/126/5 262/125/5
f 263/23/5 293/24/5 294/4/5 264/10/5
f 262/23/3 292/24/3 295/4/3 266/10/3
f 263/125/4 267/132/4 296/136/4 293/126/4
