mtllib collector_crystal.mtl
o Model
v 0.500000 0.000000 0.500000
v 0.250000 1.000000 0.500000
v 0.269030 1.000000 0.404329
v 0.269030 1.000000 0.595671
v 0.323223 1.000000 0.323223
v 0.323223 1.000000 0.676777
v 0.404329 1.000000 0.269030
v 0.404329 1.000000 0.730970
v 0.500000 1.000000 0.250000
v 0.500000 1.000000 0.750000
v 0.595671 1.000000 0.269030
v 0.595671 1.000000 0.730970
v 0.676777 1.000000 0.323223
v 0.676777 1.000000 0.676777
v 0.730970 1.000000 0.404329
v 0.730970 1.000000 0.595671
v 0.750000 1.000000 0.500000
v 0.500000 2.000000 0.500000
vn -0.9526 -0.2381 -0.1895
vn -0.9526 -0.2381 0.1895
vn -0.1895 -0.2381 -0.9526
vn -0.1895 -0.2381 0.9526
vn 0.1895 -0.2381 -0.9526
vn 0.1895 -0.2381 0.9526
vn 0.9526 -0.2381 -0.1895
vn 0.9526 -0.2381 0.1895
vn -0.8076 -0.2381 0.5396
vn -0.8075 -0.2381 -0.5396
vn -0.5396 -0.2381 -0.8075
vn -0.5396 -0.2381 0.8075
vn 0.5396 -0.2381 -0.8075
vn 0.5396 -0.2381 0.8075
vn 0.8075 -0.2381 -0.5396
vn 0.8075 -0.2381 0.5396
vn -0.9526 0.2381 -0.1895
vn -0.9526 0.2381 0.1895
vn -0.1895 0.2381 -0.9526
vn -0.1895 0.2381 0.9526
vn 0.1895 0.2381 -0.9526
vn 0.1895 0.2381 0.9526
vn 0.9526 0.2381 -0.1895
vn 0.9526 0.2381 0.1895
vn -0.8076 0.2381 -0.5396
vn -0.8076 0.2381 0.5396
vn -0.5396 0.2381 -0.8075
vn -0.5396 0.2381 0.8075
vn 0.5396 0.2381 -0.8075
vn 0.5396 0.2381 0.8075
vn 0.8075 0.2381 -0.5396
vn 0.8075 0.2381 0.5396
vt 0.000000 0.000000
vt 0.000000 1.000000
vt 0.031250 0.000000
vt 0.031250 1.000000
vt 0.062500 0.000000
vt 0.062500 1.000000
vt 0.093750 0.000000
vt 0.093750 1.000000
vt 0.125000 0.000000
vt 0.125000 1.000000
vt 0.156250 0.000000
vt 0.156250 1.000000
vt 0.187500 0.000000
vt 0.187500 1.000000
vt 0.218750 0.000000
vt 0.218750 1.000000
vt 0.250000 0.000000
vt 0.250000 1.000000
vt 0.281250 0.000000
vt 0.281250 1.000000
vt 0.312500 0.000000
vt 0.312500 1.000000
vt 0.343750 0.000000
vt 0.343750 1.000000
vt 0.375000 0.000000
vt 0.375000 1.000000
vt 0.406250 0.000000
vt 0.406250 1.000000
vt 0.437500 0.000000
vt 0.437500 1.000000
vt 0.468750 0.000000
vt 0.468750 1.000000
vt 0.500000 0.000000
vt 0.500000 1.000000
vt 0.531250 0.000000
vt 0.531250 1.000000
vt 0.562500 0.000000
vt 0.562500 1.000000
vt 0.593750 0.000000
vt 0.593750 1.000000
vt 0.625000 0.000000
vt 0.625000 1.000000
vt 0.656250 0.000000
vt 0.656250 1.000000
vt 0.687500 0.000000
vt 0.687500 1.000000
vt 0.718750 0.000000
vt 0.718750 1.000000
vt 0.750000 0.000000
vt 0.750000 1.000000
vt 0.781250 0.000000
vt 0.781250 1.000000
vt 0.812500 0.000000
vt 0.812500 1.000000
vt 0.843750 0.000000
vt 0.843750 1.000000
vt 0.875000 0.000000
vt 0.875000 1.000000
vt 0.906250 0.000000
vt 0.906250 1.000000
vt 0.937500 0.000000
vt 0.937500 1.000000
vt 0.968750 0.000000
vt 0.968750 1.000000
vt 1.000000 0.000000
vt 1.000000 1.000000
usemtl Material
f 1/47/1 2/50/1 3/46/1
f 1/51/2 4/54/2 2/50/2
f 1/43/10 3/46/10 5/42/10
f 1/55/9 6/58/9 4/54/9
f 1/39/11 5/42/11 7/38/11
f 1/59/12 8/62/12 6/58/12
f 1/35/3 7/38/3 9/34/3
f 1/63/4 10/66/4 8/62/4
f 1/31/5 9/34/5 11/30/5
f 1/3/6 12/6/6 10/2/6
f 1/27/13 11/30/13 13/26/13
f 1/7/14 14/10/14 12/6/14
f 1/23/15 13/26/15 15/22/15
f 1/11/16 16/14/16 14/10/16
f 1/19/7 15/22/7 17/18/7
f 1/15/8 17/18/8 16/14/8
f 2/49/17 18/48/17 3/45/17
f 2/49/18 4/53/18 18/52/18
f 3/45/25 18/44/25 5/41/25
f 4/53/26 6/57/26 18/56/26
f 5/41/27 18/40/27 7/37/27
f 6/57/28 8/61/28 18/60/28
f 7/37/19 18/36/19 9/33/19
f 8/61/20 10/65/20 18/64/20
f 9/33/21 18/32/21 11/29/21
f 10/1/22 12/5/22 18/4/22
f 11/29/29 18/28/29 13/25/29
f 12/5/30 14/9/30 18/8/30
f 13/25/31 18/24/31 15/21/31
f 14/9/32 16/13/32 18/12/32
f 15/21/23 18/20/23 17/17/23
f 16/13/24 17/17/24 18/16/24
