mtllib darkness_obelisk.mtl
o Model
v 0.000000 0.000000 0.000000
v 0.000000 0.000000 1.000000
v 1.000000 0.000000 0.000000
v 1.000000 0.000000 1.000000
v 0.000000 0.125000 0.000000
v 0.000000 0.125000 1.000000
v 0.125000 0.125000 0.500000
v 0.250000 0.125000 0.250000
v 0.250000 0.125000 0.750000
v 0.500000 0.125000 0.125000
v 0.500000 0.125000 0.875000
v 0.750000 0.125000 0.250000
v 0.750000 0.125000 0.750000
v 0.875000 0.125000 0.500000
v 1.000000 0.125000 0.000000
v 1.000000 0.125000 1.000000
v 0.125000 0.250000 0.500000
v 0.312500 0.250000 0.312500
v 0.312500 0.250000 0.687500
v 0.500000 0.250000 0.125000
v 0.500000 0.250000 0.875000
v 0.687500 0.250000 0.312500
v 0.687500 0.250000 0.687500
v 0.875000 0.250000 0.500000
v 0.000000 0.375000 0.125000
v 0.000000 0.375000 0.875000
v 0.125000 0.375000 0.000000
v 0.125000 0.375000 0.125000
v 0.125000 0.375000 0.500000
v 0.125000 0.375000 0.875000
v 0.125000 0.375000 1.000000
v 0.250000 0.375000 0.250000
v 0.250000 0.375000 0.750000
v 0.500000 0.375000 0.125000
v 0.500000 0.375000 0.875000
v 0.750000 0.375000 0.250000
v 0.750000 0.375000 0.750000
v 0.875000 0.375000 0.000000
v 0.875000 0.375000 0.125000
v 0.875000 0.375000 0.500000
v 0.875000 0.375000 0.875000
v 0.875000 0.375000 1.000000
v 1.000000 0.375000 0.125000
v 1.000000 0.375000 0.875000
v 0.062500 0.437500 0.062500
v 0.062500 0.437500 0.125000
v 0.062500 0.437500 0.875000
v 0.062500 0.437500 0.937500
v 0.125000 0.437500 0.062500
v 0.125000 0.437500 0.125000
v 0.125000 0.437500 0.875000
v 0.125000 0.437500 0.937500
v 0.875000 0.437500 0.062500
v 0.875000 0.437500 0.125000
v 0.875000 0.437500 0.875000
v 0.875000 0.437500 0.937500
v 0.937500 0.437500 0.062500
v 0.937500 0.437500 0.125000
v 0.937500 0.437500 0.875000
v 0.937500 0.437500 0.937500
v 0.000000 1.000000 0.125000
v 0.000000 1.000000 0.875000
v 0.062500 1.000000 0.062500
v 0.062500 1.000000 0.125000
v 0.062500 1.000000 0.875000
v 0.062500 1.000000 0.937500
v 0.125000 1.000000 0.000000
v 0.125000 1.000000 0.062500
v 0.125000 1.000000 0.937500
v 0.125000 1.000000 1.000000
v 0.875000 1.000000 0.000000
v 0.875000 1.000000 0.062500
v 0.875000 1.000000 0.937500
v 0.875000 1.000000 1.000000
v 0.937500 1.000000 0.062500
v 0.937500 1.000000 0.125000
v 0.937500 1.000000 0.875000
v 0.937500 1.000000 0.937500
v 1.000000 1.000000 0.125000
v 1.000000 1.000000 0.875000
v 0.000000 1.937500 0.125000
v 0.000000 1.937500 0.875000
v 0.062500 1.937500 0.062500
v 0.062500 1.937500 0.125000
v 0.062500 1.937500 0.875000
v 0.062500 1.937500 0.937500
v 0.125000 1.937500 0.000000
v 0.125000 1.937500 0.062500
v 0.125000 1.937500 0.125000
v 0.125000 1.937500 0.875000
v 0.125000 1.937500 0.937500
v 0.125000 1.937500 1.000000
v 0.875000 1.937500 0.000000
v 0.875000 1.937500 0.062500
v 0.875000 1.937500 0.125000
v 0.875000 1.937500 0.875000
v 0.875000 1.937500 0.937500
v 0.875000 1.937500 1.000000
v 0.937500 1.937500 0.062500
v 0.937500 1.937500 0.125000
v 0.937500 1.937500 0.875000
v 0.937500 1.937500 0.937500
v 1.000000 1.937500 0.125000
v 1.000000 1.937500 0.875000
v 0.062500 2.000000 0.125000
v 0.062500 2.000000 0.875000
v 0.125000 2.000000 0.062500
v 0.125000 2.000000 0.125000
v 0.125000 2.000000 0.875000
v 0.125000 2.000000 0.937500
v 0.875000 2.000000 0.062500
v 0.875000 2.000000 0.125000
v 0.875000 2.000000 0.875000
v 0.875000 2.000000 0.937500
v 0.937500 2.000000 0.125000
v 0.937500 2.000000 0.875000
vn 0.0000 -1.0000 0.0000
vn -0.5774 -0.5774 -0.5774
vn -0.5774 -0.5774 0.5774
vn 0.5774 -0.5774 -0.5774
vn 0.5774 -0.5774 0.5774
vn -1.0000 0.0000 0.0000
vn 0.0000 0.0000 -1.0000
vn 0.0000 0.0000 1.0000
vn 1.0000 0.0000 0.0000
vn -0.8944 0.0000 -0.4472
vn -0.8944 0.0000 0.4472
vn -0.4472 0.0000 -0.8944
vn -0.4472 0.0000 0.8944
vn 0.4472 0.0000 -0.8944
vn 0.4472 0.0000 0.8944
vn 0.8944 0.0000 -0.4472
vn 0.8944 0.0000 0.4472
vn -0.5774 0.5774 -0.5774
vn -0.5774 0.5774 0.5774
vn 0.5774 0.5774 -0.5774
vn 0.5774 0.5774 0.5774
vn -0.7071 0.7071 0.0000
vn 0.0000 0.7071 -0.7071
vn 0.0000 0.7071 0.7071
vn 0.7071 0.7071 0.0000
vn 0.0000 1.0000 0.0000
vt 0.000000 0.000000
vt 0.000000 0.125000
vt 0.000000 0.375000
vt 0.000000 0.875000
vt 0.000000 0.937499
vt 0.000000 0.937500
vt 0.000000 0.937520
vt 0.000000 1.000000
vt 0.062500 0.000000
vt 0.062500 0.062500
vt 0.062500 0.125000
vt 0.062500 0.437500
vt 0.062500 0.875000
vt 0.062500 0.937500
vt 0.062500 1.000000
vt 0.125000 0.000000
vt 0.125000 0.062500
vt 0.125000 0.125000
vt 0.125000 0.375000
vt 0.125000 0.437500
vt 0.125000 0.500000
vt 0.125000 0.875000
vt 0.125000 0.937469
vt 0.125000 0.937500
vt 0.125000 0.937543
vt 0.125000 1.000000
vt 0.250000 0.125000
vt 0.250000 0.250000
vt 0.250000 0.375000
vt 0.250000 0.750000
vt 0.312500 0.250000
vt 0.500000 0.125000
vt 0.500000 0.250000
vt 0.500000 0.375000
vt 0.500000 0.875000
vt 0.687500 0.250000
vt 0.750000 0.125000
vt 0.750000 0.250000
vt 0.750000 0.375000
vt 0.750000 0.750000
vt 0.875000 0.000000
vt 0.875000 0.062500
vt 0.875000 0.125000
vt 0.875000 0.375000
vt 0.875000 0.437500
vt 0.875000 0.500000
vt 0.875000 0.875000
vt 0.875000 0.937470
vt 0.875000 0.937500
vt 0.875000 0.937519
vt 0.875000 1.000000
vt 0.937500 0.000000
vt 0.937500 0.062500
vt 0.937500 0.125000
vt 0.937500 0.437500
vt 0.937500 0.875000
vt 0.937500 0.937500
vt 0.937500 1.000000
vt 1.000000 0.000000
vt 1.000000 0.125000
vt 1.000000 0.375000
vt 1.000000 0.875000
vt 1.000000 0.937484
vt 1.000000 0.937500
vt 1.000000 1.000000
usemtl Material
f 1/65/1 3/8/1 4/1/1 2/59/1
f 1/1/6 2/59/6 6/60/6 5/2/6
f 1/59/7 5/60/7 15/2/7 3/1/7
f 2/1/8 4/59/8 16/60/8 6/2/8
f 3/59/9 15/60/9 16/2/9 4/1/9
f 5/8/26 6/1/26 7/21/26
f 5/8/26 7/21/26 8/30/26
f 6/1/26 9/28/26 7/21/26
f 5/8/26 8/30/26 10/35/26
f 6/1/26 11/32/26 9/28/26
f 5/8/26 10/35/26 15/65/26
f 6/1/26 16/59/26 11/32/26
f 10/35/26 12/40/26 15/65/26
f 11/32/26 16/59/26 13/38/26
f 12/40/26 14/46/26 15/65/26
f 13/38/26 16/59/26 14/46/26
f 14/46/26 16/59/26 15/65/26
f 7/32/10 17/33/10 8/27/10
f 7/32/11 9/37/11 17/33/11
f 8/37/12 20/33/12 10/32/12
f 9/27/13 11/32/13 21/33/13
f 10/32/14 20/33/14 12/27/14
f 11/32/15 13/37/15 21/33/15
f 12/37/16 24/33/16 14/32/16
f 13/27/17 14/32/17 24/33/17
f 8/27/18 17/33/18 18/31/18
f 9/37/19 19/36/19 17/33/19
f 8/37/18 18/36/18 20/33/18
f 9/27/19 21/33/19 19/31/19
f 12/27/20 20/33/20 22/31/20
f 13/37/21 23/36/21 21/33/21
f 12/37/20 22/36/20 24/33/20
f 13/27/21 24/33/21 23/31/21
f 17/33/2 32/29/2 18/31/2
f 17/33/3 19/36/3 33/39/3
f 18/36/2 32/39/2 20/33/2
f 19/31/3 21/33/3 33/29/3
f 20/33/4 36/29/4 22/31/4
f 21/33/5 23/36/5 37/39/5
f 22/36/4 36/39/4 24/33/4
f 23/31/5 24/33/5 37/29/5
f 17/33/10 29/34/10 32/29/10
f 17/33/11 33/39/11 29/34/11
f 20/33/12 32/39/12 34/34/12
f 21/33/13 35/34/13 33/29/13
f 20/33/14 34/34/14 36/29/14
f 21/33/15 37/39/15 35/34/15
f 24/33/16 36/39/16 40/34/16
f 24/33/17 40/34/17 37/29/17
f 25/62/1 29/46/1 26/60/1
f 25/62/1 28/47/1 32/40/1 29/46/1
f 26/60/1 29/46/1 33/38/1 30/43/1
f 27/51/1 34/35/1 32/40/1 28/47/1
f 30/43/1 33/38/1 35/32/1 31/41/1
f 27/51/1 38/26/1 34/35/1
f 31/41/1 35/32/1 42/16/1
f 34/35/1 38/26/1 39/22/1 36/30/1
f 35/32/1 37/28/1 41/18/1 42/16/1
f 36/30/1 39/22/1 43/4/1 40/21/1
f 37/28/1 40/21/1 44/2/1 41/18/1
f 40/21/1 43/4/1 44/2/1
f 25/61/7 46/55/7 50/45/7 28/44/7
f 26/3/8 30/19/8 51/20/8 47/12/8
f 27/3/6 28/19/6 50/20/6 49/12/6
f 30/44/6 31/61/6 52/55/6 51/45/6
f 38/61/9 53/55/9 54/45/9 39/44/9
f 41/19/9 55/20/9 56/12/9 42/3/9
f 39/19/7 54/20/7 58/12/7 43/3/7
f 41/44/8 44/61/8 59/55/8 55/45/8
f 45/57/1 49/49/1 50/47/1 46/56/1
f 47/54/1 51/43/1 52/42/1 48/53/1
f 53/24/1 57/14/1 58/13/1 54/22/1
f 55/18/1 59/11/1 60/10/1 56/17/1
f 25/19/6 26/44/6 62/51/6 61/26/6
f 27/44/7 67/51/7 71/26/7 38/19/7
f 31/19/8 42/44/8 74/51/8 70/26/8
f 43/44/9 79/51/9 80/26/9 44/19/9
f 25/61/7 61/65/7 64/58/7 46/55/7
f 26/3/8 47/12/8 65/15/8 62/8/8
f 27/3/6 49/12/6 68/15/6 67/8/6
f 31/61/6 70/65/6 69/58/6 52/55/6
f 38/61/9 71/65/9 72/58/9 53/55/9
f 42/3/9 56/12/9 73/15/9 74/8/9
f 43/3/7 58/12/7 76/15/7 79/8/7
f 44/61/8 80/65/8 77/58/8 59/55/8
f 45/12/6 46/20/6 64/26/6 63/15/6
f 47/45/6 48/55/6 66/58/6 65/51/6
f 45/55/7 63/58/7 68/51/7 49/45/7
f 48/12/8 52/20/8 69/26/8 66/15/8
f 53/55/7 72/58/7 75/58/7 57/55/7
f 56/45/8 60/55/8 78/58/8 73/51/8
f 57/55/9 75/58/9 76/51/9 58/45/9
f 59/20/9 77/26/9 78/15/9 60/12/9
f 61/16/6 62/41/6 82/50/6 81/25/6
f 61/59/7 81/64/7 84/57/7 64/52/7
f 62/1/8 65/9/8 85/14/8 82/7/8
f 63/9/6 64/16/6 84/24/6 83/14/6
f 65/41/6 66/52/6 86/57/6 85/49/6
f 63/52/7 83/57/7 88/49/7 68/41/7
f 66/9/8 69/16/8 91/24/8 86/14/8
f 67/1/6 68/9/6 88/14/6 87/5/6
f 69/52/6 70/59/6 92/64/6 91/57/6
f 67/41/7 87/49/7 93/24/7 71/16/7
f 70/16/8 74/41/8 98/48/8 92/23/8
f 71/59/9 93/64/9 94/57/9 72/52/9
f 73/9/9 97/14/9 98/6/9 74/1/9
f 72/16/7 94/24/7 99/14/7 75/9/7
f 73/41/8 78/52/8 102/57/8 97/49/8
f 75/52/9 99/57/9 100/49/9 76/41/9
f 77/16/9 101/24/9 102/14/9 78/9/9
f 76/9/7 100/14/7 103/6/7 79/1/7
f 77/52/8 80/59/8 104/63/8 101/57/8
f 79/41/9 103/49/9 104/24/9 80/16/9
f 83/14/26 84/13/26 89/22/26 88/24/26
f 85/11/26 86/10/26 91/17/26 90/18/26
f 94/49/26 95/47/26 100/56/26 99/57/26
f 96/43/26 97/42/26 102/53/26 101/54/26
f 81/64/7 105/58/7 84/57/7
f 82/7/8 85/14/8 106/15/8
f 87/5/6 88/14/6 107/15/6
f 91/57/6 92/64/6 110/58/6
f 93/64/9 111/58/9 94/57/9
f 97/14/9 114/15/9 98/6/9
f 100/14/7 115/15/7 103/6/7
f 101/57/8 104/63/8 116/58/8
f 81/25/22 82/50/22 106/51/22 105/26/22
f 84/57/7 105/58/7 108/51/7 89/49/7
f 85/14/8 90/24/8 109/26/8 106/15/8
f 88/14/6 89/24/6 108/26/6 107/15/6
f 90/49/6 91/57/6 110/58/6 109/51/6
f 87/49/23 107/51/23 111/26/23 93/24/23
f 92/23/24 98/48/24 114/51/24 110/26/24
f 94/57/9 111/58/9 112/51/9 95/49/9
f 96/24/9 113/26/9 114/15/9 97/14/9
f 95/24/7 112/26/7 115/15/7 100/14/7
f 96/49/8 101/57/8 116/58/8 113/51/8
f 103/49/25 115/51/25 116/26/25 104/24/25
f 105/13/26 106/11/26 109/18/26 108/22/26
f 107/24/26 108/22/26 112/47/26 111/49/26
f 108/22/26 109/18/26 113/43/26 112/47/26
f 109/18/26 110/17/26 114/42/26 113/43/26
f 112/47/26 113/43/26 116/54/26 115/56/26
