mtllib heat_generator.mtl
o Model
v 0.000000 0.000000 0.000000
v 0.000000 0.000000 1.000000
v 1.000000 0.000000 0.000000
v 1.000000 0.000000 1.000000
v 0.000000 0.250000 0.500000
v 0.031250 0.250000 0.500000
v 0.500000 0.250000 0.000000
v 0.500000 0.250000 0.031250
v 0.500000 0.250000 0.968750
v 0.500000 0.250000 1.000000
v 0.968750 0.250000 0.500000
v 1.000000 0.250000 0.500000
v 0.000000 0.281250 0.406250
v 0.000000 0.281250 0.593750
v 0.031250 0.281250 0.406250
v 0.031250 0.281250 0.593750
v 0.406250 0.281250 0.000000
v 0.406250 0.281250 0.031250
v 0.406250 0.281250 0.968750
v 0.406250 0.281250 1.000000
v 0.593750 0.281250 0.000000
v 0.593750 0.281250 0.031250
v 0.593750 0.281250 0.968750
v 0.593750 0.281250 1.000000
v 0.968750 0.281250 0.406250
v 0.968750 0.281250 0.593750
v 1.000000 0.281250 0.406250
v 1.000000 0.281250 0.593750
v 0.031250 0.312500 0.437500
v 0.031250 0.312500 0.562500
v 0.062500 0.312500 0.437500
v 0.062500 0.312500 0.562500
v 0.437500 0.312500 0.031250
v 0.437500 0.312500 0.062500
v 0.437500 0.312500 0.937500
v 0.437500 0.312500 0.968750
v 0.562500 0.312500 0.031250
v 0.562500 0.312500 0.062500
v 0.562500 0.312500 0.937500
v 0.562500 0.312500 0.968750
v 0.937500 0.312500 0.437500
v 0.937500 0.312500 0.562500
v 0.968750 0.312500 0.437500
v 0.968750 0.312500 0.562500
v 0.000000 0.375000 0.375000
v 0.000000 0.375000 0.625000
v 0.031250 0.375000 0.375000
v 0.031250 0.375000 0.625000
v 0.375000 0.375000 0.000000
v 0.375000 0.375000 0.031250
v 0.375000 0.375000 0.968750
v 0.375000 0.375000 1.000000
v 0.625000 0.375000 0.000000
v 0.625000 0.375000 0.031250
v 0.625000 0.375000 0.968750
v 0.625000 0.375000 1.000000
v 0.968750 0.375000 0.375000
v 0.968750 0.375000 0.625000
v 1.000000 0.375000 0.375000
v 1.000000 0.375000 0.625000
v 0.031250 0.437500 0.437500
v 0.031250 0.437500 0.562500
v 0.062500 0.437500 0.437500
v 0.062500 0.437500 0.562500
v 0.437500 0.437500 0.031250
v 0.437500 0.437500 0.062500
v 0.437500 0.437500 0.937500
v 0.437500 0.437500 0.968750
v 0.562500 0.437500 0.031250
v 0.562500 0.437500 0.062500
v 0.562500 0.437500 0.937500
v 0.562500 0.437500 0.968750
v 0.937500 0.437500 0.437500
v 0.937500 0.437500 0.562500
v 0.968750 0.437500 0.437500
v 0.968750 0.437500 0.562500
v 0.000000 0.468750 0.406250
v 0.000000 0.468750 0.593750
v 0.031250 0.468750 0.406250
v 0.031250 0.468750 0.593750
v 0.406250 0.468750 0.000000
v 0.406250 0.468750 0.031250
v 0.406250 0.468750 0.968750
v 0.406250 0.468750 1.000000
v 0.593750 0.468750 0.000000
v 0.593750 0.468750 0.031250
v 0.593750 0.468750 0.968750
v 0.593750 0.468750 1.000000
v 0.968750 0.468750 0.406250
v 0.968750 0.468750 0.593750
v 1.000000 0.468750 0.406250
v 1.000000 0.468750 0.593750
v 0.000000 0.500000 0.500000
v 0.031250 0.500000 0.500000
v 0.500000 0.500000 0.000000
v 0.500000 0.500000 0.031250
v 0.500000 0.500000 0.968750
v 0.500000 0.500000 1.000000
v 0.968750 0.500000 0.500000
v 1.000000 0.500000 0.500000
v 0.000000 0.750000 0.000000
v 0.000000 0.750000 1.000000
v 0.062500 0.750000 0.187500
v 0.062500 0.750000 0.312500
v 0.062500 0.750000 0.687500
v 0.062500 0.750000 0.812500
v 0.093750 0.750000 0.406250
v 0.093750 0.750000 0.593750
v 0.125000 0.750000 0.500000
v 0.187500 0.750000 0.062500
v 0.187500 0.750000 0.187500
v 0.187500 0.750000 0.312500
v 0.187500 0.750000 0.375000
v 0.187500 0.750000 0.625000
v 0.187500 0.750000 0.687500
v 0.187500 0.750000 0.812500
v 0.187500 0.750000 0.937500
v 0.218750 0.750000 0.468750
v 0.218750 0.750000 0.531250
v 0.250000 0.750000 0.500000
v 0.312500 0.750000 0.062500
v 0.312500 0.750000 0.187500
v 0.312500 0.750000 0.812500
v 0.312500 0.750000 0.937500
v 0.375000 0.750000 0.187500
v 0.375000 0.750000 0.375000
v 0.375000 0.750000 0.625000
v 0.375000 0.750000 0.812500
v 0.406250 0.750000 0.093750
v 0.406250 0.750000 0.906250
v 0.468750 0.750000 0.218750
v 0.468750 0.750000 0.781250
v 0.500000 0.750000 0.125000
v 0.500000 0.750000 0.250000
v 0.500000 0.750000 0.750000
v 0.500000 0.750000 0.875000
v 0.531250 0.750000 0.218750
v 0.531250 0.750000 0.781250
v 0.593750 0.750000 0.093750
v 0.593750 0.750000 0.906250
v 0.625000 0.750000 0.187500
v 0.625000 0.750000 0.375000
v 0.625000 0.750000 0.625000
v 0.625000 0.750000 0.812500
v 0.687500 0.750000 0.062500
v 0.687500 0.750000 0.187500
v 0.687500 0.750000 0.812500
v 0.687500 0.750000 0.937500
v 0.750000 0.750000 0.500000
v 0.781250 0.750000 0.468750
v 0.781250 0.750000 0.531250
v 0.812500 0.750000 0.062500
v 0.812500 0.750000 0.187500
v 0.812500 0.750000 0.312500
v 0.812500 0.750000 0.375000
v 0.812500 0.750000 0.625000
v 0.812500 0.750000 0.687500
v 0.812500 0.750000 0.812500
v 0.812500 0.750000 0.937500
v 0.875000 0.750000 0.500000
v 0.906250 0.750000 0.406250
v 0.906250 0.750000 0.593750
v 0.937500 0.750000 0.187500
v 0.937500 0.750000 0.312500
v 0.937500 0.750000 0.687500
v 0.937500 0.750000 0.812500
v 1.000000 0.750000 0.000000
v 1.000000 0.750000 1.000000
v 0.062500 0.812500 0.187500
v 0.062500 0.812500 0.312500
v 0.062500 0.812500 0.687500
v 0.062500 0.812500 0.812500
v 0.093750 0.812500 0.406250
v 0.093750 0.812500 0.593750
v 0.125000 0.812500 0.500000
v 0.187500 0.812500 0.062500
v 0.187500 0.812500 0.187500
v 0.187500 0.812500 0.312500
v 0.187500 0.812500 0.375000
v 0.187500 0.812500 0.625000
v 0.187500 0.812500 0.687500
v 0.187500 0.812500 0.812500
v 0.187500 0.812500 0.937500
v 0.218750 0.812500 0.468750
v 0.218750 0.812500 0.531250
v 0.250000 0.812500 0.500000
v 0.281250 0.812500 0.406250
v 0.281250 0.812500 0.593750
v 0.312500 0.812500 0.062500
v 0.312500 0.812500 0.187500
v 0.312500 0.812500 0.812500
v 0.312500 0.812500 0.937500
v 0.375000 0.812500 0.187500
v 0.375000 0.812500 0.375000
v 0.375000 0.812500 0.625000
v 0.375000 0.812500 0.812500
v 0.406250 0.812500 0.093750
v 0.406250 0.812500 0.281250
v 0.406250 0.812500 0.437500
v 0.406250 0.812500 0.468750
v 0.406250 0.812500 0.531250
v 0.406250 0.812500 0.562500
v 0.406250 0.812500 0.718750
v 0.406250 0.812500 0.906250
v 0.437500 0.812500 0.406250
v 0.437500 0.812500 0.437500
v 0.437500 0.812500 0.500000
v 0.437500 0.812500 0.562500
v 0.437500 0.812500 0.593750
v 0.468750 0.812500 0.218750
v 0.468750 0.812500 0.406250
v 0.468750 0.812500 0.593750
v 0.468750 0.812500 0.781250
v 0.500000 0.812500 0.125000
v 0.500000 0.812500 0.250000
v 0.500000 0.812500 0.437500
v 0.500000 0.812500 0.562500
v 0.500000 0.812500 0.750000
v 0.500000 0.812500 0.875000
v 0.531250 0.812500 0.218750
v 0.531250 0.812500 0.406250
v 0.531250 0.812500 0.593750
v 0.531250 0.812500 0.781250
v 0.562500 0.812500 0.406250
v 0.562500 0.812500 0.437500
v 0.562500 0.812500 0.500000
v 0.562500 0.812500 0.562500
v 0.562500 0.812500 0.593750
v 0.593750 0.812500 0.093750
v 0.593750 0.812500 0.281250
v 0.593750 0.812500 0.437500
v 0.593750 0.812500 0.468750
v 0.593750 0.812500 0.531250
v 0.593750 0.812500 0.562500
v 0.593750 0.812500 0.718750
v 0.593750 0.812500 0.906250
v 0.625000 0.812500 0.187500
v 0.625000 0.812500 0.375000
v 0.625000 0.812500 0.625000
v 0.625000 0.812500 0.812500
v 0.687500 0.812500 0.062500
v 0.687500 0.812500 0.187500
v 0.687500 0.812500 0.812500
v 0.687500 0.812500 0.937500
v 0.718750 0.812500 0.406250
v 0.718750 0.812500 0.593750
v 0.750000 0.812500 0.500000
v 0.781250 0.812500 0.468750
v 0.781250 0.812500 0.531250
v 0.812500 0.812500 0.062500
v 0.812500 0.812500 0.187500
v 0.812500 0.812500 0.312500
v 0.812500 0.812500 0.375000
v 0.812500 0.812500 0.625000
v 0.812500 0.812500 0.687500
v 0.812500 0.812500 0.812500
v 0.812500 0.812500 0.937500
v 0.875000 0.812500 0.500000
v 0.906250 0.812500 0.406250
v 0.906250 0.812500 0.593750
v 0.937500 0.812500 0.187500
v 0.937500 0.812500 0.312500
v 0.937500 0.812500 0.687500
v 0.937500 0.812500 0.812500
v 0.250000 0.875000 0.500000
v 0.281250 0.875000 0.406250
v 0.281250 0.875000 0.593750
v 0.375000 0.875000 0.375000
v 0.375000 0.875000 0.625000
v 0.406250 0.875000 0.281250
v 0.406250 0.875000 0.437500
v 0.406250 0.875000 0.468750
v 0.406250 0.875000 0.531250
v 0.406250 0.875000 0.562500
v 0.406250 0.875000 0.718750
v 0.437500 0.875000 0.406250
v 0.437500 0.875000 0.437500
v 0.437500 0.875000 0.500000
v 0.437500 0.875000 0.562500
v 0.437500 0.875000 0.593750
v 0.468750 0.875000 0.406250
v 0.468750 0.875000 0.593750
v 0.500000 0.875000 0.250000
v 0.500000 0.875000 0.437500
v 0.500000 0.875000 0.562500
v 0.500000 0.875000 0.750000
v 0.531250 0.875000 0.406250
v 0.531250 0.875000 0.593750
v 0.562500 0.875000 0.406250
v 0.562500 0.875000 0.437500
v 0.562500 0.875000 0.500000
v 0.562500 0.875000 0.562500
v 0.562500 0.875000 0.593750
v 0.593750 0.875000 0.281250
v 0.593750 0.875000 0.437500
v 0.593750 0.875000 0.468750
v 0.593750 0.875000 0.531250
v 0.593750 0.875000 0.562500
v 0.593750 0.875000 0.718750
v 0.625000 0.875000 0.375000
v 0.625000 0.875000 0.625000
v 0.718750 0.875000 0.406250
v 0.718750 0.875000 0.593750
v 0.750000 0.875000 0.500000
vn 0.0000 -1.0000 0.0000
vn -0.3162 -0.9487 0.0000
vn 0.0000 -0.9487 -0.3162
vn 0.0000 -0.9487 0.3162
vn 0.3162 -0.9487 0.0000
vn -0.9487 -0.3162 0.0000
vn 0.0000 -0.3162 -0.9487
vn 0.0000 -0.3162 0.9487
vn 0.9487 -0.3162 0.0000
vn -1.0000 0.0000 0.0000
vn 0.0000 0.0000 -1.0000
vn 0.0000 0.0000 1.0000
vn 1.0000 0.0000 0.0000
vn -0.9487 0.0000 -0.3162
vn -0.9487 0.0000 0.3162
vn -0.3162 0.0000 -0.9487
vn -0.3162 0.0000 0.9487
vn 0.3162 0.0000 -0.9487
vn 0.3162 0.0000 0.9487
vn 0.9487 0.0000 -0.3162
vn 0.9487 0.0000 0.3162
vn -0.7071 0.0000 -0.7071
vn -0.7071 0.0000 0.7071
vn 0.7071 0.0000 -0.7071
vn 0.7071 0.0000 0.7071
vn -0.9487 0.3162 0.0000
vn 0.0000 0.3162 -0.9487
vn 0.0000 0.3162 0.9487
vn 0.9487 0.3162 0.0000
vn -0.3162 0.9487 0.0000
vn 0.0000 0.9487 -0.3162
vn 0.0000 0.9487 0.3162
vn 0.3162 0.9487 0.0000
vn 0.0000 1.0000 0.0000
vt 0.000000 0.000000
vt 0.000000 0.750000
vt 0.000000 1.000000
vt 0.062500 0.187500
vt 0.062500 0.218750
vt 0.062500 0.250000
vt 0.062500 0.312500
vt 0.062500 0.343750
vt 0.062500 0.406250
vt 0.062500 0.500000
vt 0.062500 0.593750
vt 0.062500 0.687500
vt 0.062500 0.750000
vt 0.062500 0.812500
vt 0.093750 0.375000
vt 0.093750 0.406250
vt 0.093750 0.437500
vt 0.093750 0.562500
vt 0.093750 0.593750
vt 0.093750 0.625000
vt 0.125000 0.218750
vt 0.125000 0.343750
vt 0.125000 0.406250
vt 0.125000 0.437500
vt 0.125000 0.500000
vt 0.125000 0.562500
vt 0.125000 0.593750
vt 0.125000 0.687500
vt 0.125000 0.812500
vt 0.187500 0.062500
vt 0.187500 0.125000
vt 0.187500 0.187500
vt 0.187500 0.250000
vt 0.187500 0.312500
vt 0.187500 0.375000
vt 0.187500 0.437500
vt 0.187500 0.562500
vt 0.187500 0.625000
vt 0.187500 0.687500
vt 0.187500 0.750000
vt 0.187500 0.812500
vt 0.187500 0.875000
vt 0.187500 0.937500
vt 0.218750 0.437500
vt 0.218750 0.468750
vt 0.218750 0.500000
vt 0.218750 0.531250
vt 0.218750 0.562500
vt 0.250000 0.062500
vt 0.250000 0.187500
vt 0.250000 0.312500
vt 0.250000 0.375000
vt 0.250000 0.406250
vt 0.250000 0.437500
vt 0.250000 0.500000
vt 0.250000 0.562500
vt 0.250000 0.593750
vt 0.250000 0.625000
vt 0.250000 0.687500
vt 0.250000 0.812500
vt 0.250000 0.937500
vt 0.281250 0.375000
vt 0.281250 0.406250
vt 0.281250 0.437500
vt 0.281250 0.562500
vt 0.281250 0.593750
vt 0.281250 0.625000
vt 0.312500 0.062500
vt 0.312500 0.125000
vt 0.312500 0.187500
vt 0.312500 0.250000
vt 0.312500 0.406250
vt 0.312500 0.500000
vt 0.312500 0.593750
vt 0.312500 0.750000
vt 0.312500 0.812500
vt 0.312500 0.875000
vt 0.312500 0.937500
vt 0.375000 0.093750
vt 0.375000 0.187500
vt 0.375000 0.250000
vt 0.375000 0.281250
vt 0.375000 0.375000
vt 0.375000 0.406250
vt 0.375000 0.437500
vt 0.375000 0.468750
vt 0.375000 0.500000
vt 0.375000 0.531250
vt 0.375000 0.562500
vt 0.375000 0.593750
vt 0.375000 0.625000
vt 0.375000 0.718750
vt 0.375000 0.750000
vt 0.375000 0.812500
vt 0.375000 0.906250
vt 0.406250 0.062500
vt 0.406250 0.093750
vt 0.406250 0.125000
vt 0.406250 0.250000
vt 0.406250 0.281250
vt 0.406250 0.312500
vt 0.406250 0.375000
vt 0.406250 0.437500
vt 0.406250 0.468750
vt 0.406250 0.500000
vt 0.406250 0.531250
vt 0.406250 0.562500
vt 0.406250 0.687500
vt 0.406250 0.718750
vt 0.406250 0.750000
vt 0.406250 0.875000
vt 0.406250 0.906250
vt 0.406250 0.937500
vt 0.437500 0.093750
vt 0.437500 0.125000
vt 0.437500 0.187500
vt 0.437500 0.218750
vt 0.437500 0.250000
vt 0.437500 0.281250
vt 0.437500 0.312500
vt 0.437500 0.343750
vt 0.437500 0.375000
vt 0.437500 0.406250
vt 0.437500 0.437500
vt 0.437500 0.468750
vt 0.437500 0.500000
vt 0.437500 0.531250
vt 0.437500 0.562500
vt 0.437500 0.593750
vt 0.437500 0.625000
vt 0.437500 0.718750
vt 0.437500 0.750000
vt 0.437500 0.781250
vt 0.437500 0.812500
vt 0.437500 0.875000
vt 0.437500 0.906250
vt 0.468750 0.218750
vt 0.468750 0.312500
vt 0.468750 0.375000
vt 0.468750 0.406250
vt 0.468750 0.437500
vt 0.468750 0.562500
vt 0.468750 0.593750
vt 0.468750 0.625000
vt 0.468750 0.781250
vt 0.500000 0.062500
vt 0.500000 0.125000
vt 0.500000 0.218750
vt 0.500000 0.250000
vt 0.500000 0.281250
vt 0.500000 0.312500
vt 0.500000 0.375000
vt 0.500000 0.437500
vt 0.500000 0.468750
vt 0.500000 0.500000
vt 0.500000 0.562500
vt 0.500000 0.625000
vt 0.500000 0.687500
vt 0.500000 0.750000
vt 0.500000 0.781250
vt 0.500000 0.875000
vt 0.500000 0.937500
vt 0.531250 0.218750
vt 0.531250 0.312500
vt 0.531250 0.375000
vt 0.531250 0.406250
vt 0.531250 0.437500
vt 0.531250 0.562500
vt 0.531250 0.593750
vt 0.531250 0.625000
vt 0.531250 0.781250
vt 0.562500 0.093750
vt 0.562500 0.125000
vt 0.562500 0.187500
vt 0.562500 0.218750
vt 0.562500 0.250000
vt 0.562500 0.281250
vt 0.562500 0.312500
vt 0.562500 0.343750
vt 0.562500 0.375000
vt 0.562500 0.406250
vt 0.562500 0.437500
vt 0.562500 0.468750
vt 0.562500 0.500000
vt 0.562500 0.531250
vt 0.562500 0.562500
vt 0.562500 0.593750
vt 0.562500 0.625000
vt 0.562500 0.718750
vt 0.562500 0.750000
vt 0.562500 0.781250
vt 0.562500 0.812500
vt 0.562500 0.875000
vt 0.562500 0.906250
vt 0.593750 0.062500
vt 0.593750 0.093750
vt 0.593750 0.125000
vt 0.593750 0.250000
vt 0.593750 0.281250
vt 0.593750 0.312500
vt 0.593750 0.375000
vt 0.593750 0.437500
vt 0.593750 0.468750
vt 0.593750 0.500000
vt 0.593750 0.531250
vt 0.593750 0.562500
vt 0.593750 0.625000
vt 0.593750 0.687500
vt 0.593750 0.718750
vt 0.593750 0.750000
vt 0.593750 0.875000
vt 0.593750 0.906250
vt 0.593750 0.937500
vt 0.625000 0.093750
vt 0.625000 0.187500
vt 0.625000 0.250000
vt 0.625000 0.281250
vt 0.625000 0.375000
vt 0.625000 0.406250
vt 0.625000 0.437500
vt 0.625000 0.468750
vt 0.625000 0.500000
vt 0.625000 0.531250
vt 0.625000 0.562500
vt 0.625000 0.593750
vt 0.625000 0.625000
vt 0.625000 0.718750
vt 0.625000 0.750000
vt 0.625000 0.812500
vt 0.625000 0.906250
vt 0.687500 0.062500
vt 0.687500 0.125000
vt 0.687500 0.187500
vt 0.687500 0.250000
vt 0.687500 0.406250
vt 0.687500 0.500000
vt 0.687500 0.593750
vt 0.687500 0.750000
vt 0.687500 0.812500
vt 0.687500 0.875000
vt 0.687500 0.937500
vt 0.718750 0.375000
vt 0.718750 0.406250
vt 0.718750 0.437500
vt 0.718750 0.562500
vt 0.718750 0.593750
vt 0.718750 0.625000
vt 0.750000 0.062500
vt 0.750000 0.187500
vt 0.750000 0.312500
vt 0.750000 0.375000
vt 0.750000 0.406250
vt 0.750000 0.437500
vt 0.750000 0.500000
vt 0.750000 0.562500
vt 0.750000 0.593750
vt 0.750000 0.625000
vt 0.750000 0.687500
vt 0.750000 0.812500
vt 0.750000 0.937500
vt 0.781250 0.437500
vt 0.781250 0.468750
vt 0.781250 0.500000
vt 0.781250 0.531250
vt 0.781250 0.562500
vt 0.812500 0.062500
vt 0.812500 0.125000
vt 0.812500 0.187500
vt 0.812500 0.250000
vt 0.812500 0.312500
vt 0.812500 0.375000
vt 0.812500 0.406250
vt 0.812500 0.437500
vt 0.812500 0.500000
vt 0.812500 0.562500
vt 0.812500 0.593750
vt 0.812500 0.625000
vt 0.812500 0.687500
vt 0.812500 0.750000
vt 0.812500 0.812500
vt 0.812500 0.875000
vt 0.812500 0.937500
vt 0.875000 0.187500
vt 0.875000 0.312500
vt 0.875000 0.406250
vt 0.875000 0.437500
vt 0.875000 0.500000
vt 0.875000 0.562500
vt 0.875000 0.593750
vt 0.875000 0.687500
vt 0.875000 0.812500
vt 0.906250 0.375000
vt 0.906250 0.406250
vt 0.906250 0.437500
vt 0.906250 0.562500
vt 0.906250 0.593750
vt 0.906250 0.625000
vt 0.937500 0.187500
vt 0.937500 0.250000
vt 0.937500 0.312500
vt 0.937500 0.687500
vt 0.937500 0.750000
vt 0.937500 0.812500
vt 1.000000 0.000000
vt 1.000000 0.750000
vt 1.000000 1.000000
usemtl MaterialTop
f 1/1/1 3/304/1 4/306/1 2/3/1
f 101/3/34 102/1/34 105/7/34 104/12/34
f 101/3/34 104/12/34 103/14/34
f 102/1/34 106/4/34 105/7/34
f 104/12/34 105/7/34 108/16/34 107/19/34
f 107/19/34 108/16/34 109/25/34
f 101/3/34 103/14/34 111/41/34 110/43/34
f 102/1/34 117/30/34 116/32/34 106/4/34
f 104/12/34 107/19/34 113/38/34 112/39/34
f 105/7/34 115/34/34 114/35/34 108/16/34
f 101/3/34 110/43/34 121/78/34
f 102/1/34 124/68/34 117/30/34
f 109/25/34 119/45/34 120/55/34 118/47/34
f 121/78/34 122/76/34 125/94/34 129/112/34
f 123/70/34 124/68/34 130/97/34 128/80/34
f 101/3/34 121/78/34 145/241/34 167/306/34
f 121/78/34 129/112/34 139/212/34 145/241/34
f 129/112/34 133/161/34 139/212/34
f 131/145/34 134/159/34 137/171/34 133/161/34
f 126/91/34 127/83/34 143/218/34 142/226/34
f 132/137/34 136/147/34 138/163/34 135/149/34
f 130/97/34 140/196/34 136/147/34
f 124/68/34 148/231/34 140/196/34 130/97/34
f 102/1/34 168/304/34 148/231/34 124/68/34
f 139/212/34 141/229/34 146/239/34 145/241/34
f 140/196/34 148/231/34 147/233/34 144/215/34
f 149/254/34 151/262/34 160/287/34 150/264/34
f 145/241/34 152/282/34 167/306/34
f 148/231/34 168/304/34 159/266/34
f 154/278/34 155/277/34 161/296/34 164/301/34
f 156/271/34 157/270/34 165/300/34 162/293/34
f 152/282/34 153/280/34 163/303/34 167/306/34
f 158/268/34 159/266/34 168/304/34 166/298/34
f 160/287/34 162/293/34 161/296/34
f 161/296/34 162/293/34 165/300/34 164/301/34
f 163/303/34 164/301/34 167/306/34
f 165/300/34 166/298/34 168/304/34
f 164/301/34 165/300/34 168/304/34 167/306/34
f 103/14/10 104/12/10 170/28/10 169/29/10
f 105/8/10 106/5/10 172/21/10 171/22/10
f 107/11/15 109/10/15 175/25/15 173/27/15
f 108/9/14 174/23/14 175/25/14 109/10/14
f 103/14/11 169/13/11 177/40/11 111/41/11
f 104/12/12 112/39/12 178/40/12 170/13/12
f 105/7/11 171/6/11 181/33/11 115/34/11
f 106/4/12 116/32/12 182/33/12 172/6/12
f 107/20/16 173/18/16 179/37/16 113/38/16
f 108/15/17 114/35/17 180/36/17 174/17/17
f 109/25/19 118/46/19 184/48/19 175/26/19
f 109/25/18 175/24/18 185/44/18 119/46/18
f 110/43/10 111/41/10 177/60/10 176/61/10
f 112/39/10 113/38/10 179/58/10 178/59/10
f 114/35/10 115/34/10 181/51/10 180/52/10
f 116/32/10 117/30/10 183/49/10 182/50/10
f 118/46/23 120/55/23 186/56/23 184/48/23
f 119/46/22 185/44/22 186/54/22 120/55/22
f 110/43/11 176/42/11 189/77/11 121/78/11
f 117/30/12 124/68/12 192/69/12 183/31/12
f 121/78/13 189/61/13 190/60/13 122/76/13
f 123/70/13 191/50/13 192/49/13 124/68/13
f 122/76/11 190/75/11 193/93/11 125/94/11
f 123/70/12 128/80/12 196/81/12 191/71/12
f 126/130/13 194/91/13 195/83/13 127/122/13
f 125/94/14 193/134/14 197/136/14 129/95/14
f 128/80/15 130/79/15 204/114/15 196/116/15
f 129/113/18 197/111/18 214/161/18 133/162/18
f 130/96/19 136/146/19 219/147/19 204/98/19
f 131/160/21 133/161/21 214/135/21 210/133/21
f 131/160/24 210/133/24 215/132/24 134/159/24
f 132/148/25 135/149/25 218/118/25 213/117/25
f 132/148/20 213/117/20 219/115/20 136/147/20
f 126/89/12 142/224/12 238/226/12 194/91/12
f 127/85/11 195/83/11 239/218/11 143/220/11
f 133/161/15 137/160/15 220/191/15 214/193/15
f 134/159/22 215/190/22 220/191/22 137/160/22
f 135/149/23 138/148/23 223/175/23 218/176/23
f 136/147/14 219/173/14 223/175/14 138/148/14
f 133/162/16 214/161/16 229/211/16 139/213/16
f 136/146/17 140/195/17 236/197/17 219/147/17
f 139/230/20 229/194/20 237/192/20 141/229/20
f 140/214/21 144/215/21 240/174/21 236/172/21
f 142/188/10 143/180/10 239/218/10 238/226/10
f 141/229/11 237/228/11 242/238/11 146/239/11
f 144/215/12 147/233/12 243/234/12 240/216/12
f 145/241/10 146/239/10 242/259/10 241/260/10
f 147/233/10 148/231/10 244/248/10 243/249/10
f 145/241/11 241/240/11 250/281/11 152/282/11
f 148/231/12 159/266/12 257/267/12 244/232/12
f 149/254/25 150/263/25 248/265/25 247/255/25
f 149/254/24 247/253/24 249/261/24 151/263/24
f 152/282/13 250/260/13 251/259/13 153/280/13
f 154/278/13 252/258/13 253/257/13 155/277/13
f 156/271/13 254/251/13 255/250/13 157/270/13
f 158/268/13 256/249/13 257/248/13 159/266/13
f 150/263/17 160/287/17 258/288/17 248/265/17
f 151/263/16 249/261/16 258/286/16 160/287/16
f 155/277/18 253/275/18 259/295/18 161/297/18
f 156/271/19 162/292/19 260/294/19 254/273/19
f 153/280/11 251/279/11 261/302/11 163/303/11
f 154/278/12 164/301/12 262/302/12 252/279/12
f 157/270/11 255/269/11 263/299/11 165/300/11
f 158/268/12 166/298/12 264/299/12 256/269/12
f 160/287/21 161/289/21 259/276/21 258/274/21
f 160/287/20 258/274/20 260/272/20 162/285/20
f 163/303/13 261/291/13 262/290/13 164/301/13
f 165/300/13 263/284/13 264/283/13 166/298/13
f 169/14/34 170/12/34 178/39/34 177/41/34
f 171/7/34 172/4/34 182/32/34 181/34/34
f 173/19/34 175/25/34 184/47/34 179/38/34
f 174/16/34 180/35/34 185/45/34 175/25/34
f 179/38/34 184/47/34 186/55/34 187/66/34
f 180/35/34 188/63/34 186/55/34 185/45/34
f 176/43/34 177/41/34 190/76/34 189/78/34
f 182/32/34 183/30/34 192/68/34 191/70/34
f 178/39/34 179/38/34 187/66/34 194/91/34
f 180/35/34 181/34/34 195/83/34 188/63/34
f 177/41/34 178/39/34 194/91/34 190/76/34
f 181/34/34 182/32/34 191/70/34 195/83/34
f 190/76/34 194/91/34 198/109/34 193/94/34
f 191/70/34 196/80/34 203/100/34 195/83/34
f 194/226/1 200/205/1 201/203/1 195/218/1
f 194/226/1 199/206/1 200/205/1
f 195/218/1 201/203/1 202/202/1
f 194/226/1 205/187/1 206/186/1 199/206/1
f 195/218/1 202/202/1 208/182/1 209/181/1
f 200/205/1 207/184/1 201/203/1
f 194/226/1 211/169/1 205/187/1
f 195/218/1 209/181/1 212/166/1
f 193/94/34 210/145/34 214/161/34 197/112/34
f 193/94/34 198/109/34 215/159/34 210/145/34
f 196/80/34 213/137/34 218/149/34 203/100/34
f 196/80/34 204/97/34 219/147/34 213/137/34
f 194/226/1 238/91/1 221/143/1 211/169/1
f 211/169/1 221/143/1 216/156/1
f 212/166/1 217/153/1 222/140/1
f 195/218/1 212/166/1 222/140/1 239/83/1
f 214/161/34 220/171/34 237/229/34 229/212/34
f 215/159/34 230/209/34 237/229/34 220/171/34
f 218/149/34 223/163/34 240/215/34 235/199/34
f 219/147/34 236/196/34 240/215/34 223/163/34
f 221/143/1 238/91/1 224/129/1
f 222/140/1 228/123/1 239/83/1
f 226/126/1 232/106/1 233/104/1
f 224/129/1 238/91/1 231/107/1 225/128/1
f 227/124/1 234/103/1 239/83/1 228/123/1
f 231/107/1 238/91/1 232/106/1
f 233/104/1 239/83/1 234/103/1
f 232/106/1 238/91/1 239/83/1 233/104/1
f 230/209/34 238/226/34 242/239/34 237/229/34
f 235/199/34 240/215/34 243/233/34 239/218/34
f 238/226/34 252/278/34 251/280/34 242/239/34
f 239/218/34 243/233/34 256/268/34 255/270/34
f 238/226/34 245/246/34 253/277/34 252/278/34
f 239/218/34 255/270/34 254/271/34 246/243/34
f 241/241/34 242/239/34 251/280/34 250/282/34
f 243/233/34 244/231/34 257/266/34 256/268/34
f 245/246/34 247/254/34 248/264/34 253/277/34
f 246/243/34 254/271/34 249/262/34 247/254/34
f 248/264/34 258/287/34 259/296/34 253/277/34
f 249/262/34 254/271/34 260/293/34 258/287/34
f 251/280/34 252/278/34 262/301/34 261/303/34
f 255/270/34 256/268/34 264/298/34 263/300/34
f 186/55/14 265/73/14 266/74/14 187/57/14
f 186/55/15 188/53/15 267/72/15 265/73/15
f 187/67/16 266/65/16 268/89/16 194/91/16
f 188/62/17 195/83/17 269/85/17 267/64/17
f 194/91/14 268/130/14 270/131/14 198/92/14
f 195/83/15 203/82/15 275/119/15 269/122/15
f 199/128/13 271/89/13 272/88/13 200/127/13
f 201/125/13 273/86/13 274/85/13 202/124/13
f 199/128/12 206/128/12 277/89/12 271/89/12
f 200/127/24 272/88/24 278/87/24 207/126/24
f 201/125/25 207/126/25 278/87/25 273/86/25
f 202/124/11 274/85/11 279/85/11 208/124/11
f 205/129/13 276/90/13 277/89/13 206/128/13
f 208/124/13 279/85/13 280/84/13 209/123/13
f 198/110/16 270/108/16 283/158/16 215/159/16
f 205/128/12 211/142/12 281/144/12 276/130/12
f 209/124/11 280/122/11 282/139/11 212/141/11
f 203/99/17 218/149/17 286/151/17 275/101/17
f 211/142/23 216/156/23 284/157/23 281/144/23
f 212/141/22 282/139/22 285/152/22 217/153/22
f 216/156/25 221/168/25 287/170/25 284/157/25
f 217/153/24 285/152/24 288/165/24 222/167/24
f 215/159/18 283/158/18 294/208/18 230/210/18
f 221/168/12 224/186/12 289/188/12 287/170/12
f 222/167/11 288/165/11 293/180/11 228/182/11
f 218/149/19 235/198/19 299/200/19 286/151/19
f 224/187/10 225/186/10 290/224/10 289/225/10
f 227/182/10 228/181/10 293/219/10 292/220/10
f 225/186/12 231/206/12 295/207/12 290/188/12
f 226/184/22 291/222/22 296/223/22 232/185/22
f 226/184/23 233/183/23 297/221/23 291/222/23
f 227/182/11 292/180/11 298/201/11 234/202/11
f 231/186/10 232/185/10 296/223/10 295/224/10
f 233/183/10 234/182/10 298/220/10 297/221/10
f 230/227/20 294/189/20 300/188/20 238/226/20
f 235/217/21 239/218/21 301/180/21 299/177/21
f 238/226/18 300/224/18 302/245/18 245/247/18
f 239/218/19 246/242/19 303/244/19 301/220/19
f 245/256/20 302/237/20 304/236/20 247/254/20
f 246/252/21 247/254/21 304/236/21 303/235/21
f 265/55/34 272/106/34 271/107/34 266/66/34
f 265/55/34 267/63/34 274/103/34 273/104/34
f 266/66/34 271/107/34 277/128/34 268/91/34
f 265/55/34 273/104/34 278/126/34 272/106/34
f 267/63/34 269/83/34 279/124/34 274/103/34
f 268/91/34 277/128/34 276/129/34 270/109/34
f 269/83/34 275/100/34 280/123/34 279/124/34
f 270/109/34 276/129/34 281/143/34 283/159/34
f 275/100/34 286/149/34 282/140/34 280/123/34
f 281/143/34 284/156/34 287/169/34 283/159/34
f 282/140/34 286/149/34 288/166/34 285/153/34
f 283/159/34 287/169/34 289/187/34 294/209/34
f 286/149/34 299/199/34 293/181/34 288/166/34
f 289/187/34 290/186/34 300/226/34 294/209/34
f 292/182/34 293/181/34 299/199/34 301/218/34
f 290/186/34 295/206/34 302/246/34 300/226/34
f 291/184/34 297/203/34 304/254/34 296/205/34
f 292/182/34 301/218/34 303/243/34 298/202/34
f 295/206/34 296/205/34 304/254/34 302/246/34
f 297/203/34 298/202/34 303/243/34 304/254/34
usemtl MaterialSide
f 1/1/10 2/304/10 5/149/10
f 1/304/11 7/149/11 3/1/11
f 2/1/12 4/304/12 10/149/12
f 3/304/13 12/149/13 4/1/13
f 1/1/10 5/149/10 13/100/10
f 2/304/10 14/199/10 5/149/10
f 1/304/11 17/199/11 7/149/11
f 2/1/12 10/149/12 20/100/12
f 3/1/11 7/149/11 21/100/11
f 4/304/12 24/199/12 10/149/12
f 3/304/13 27/199/13 12/149/13
f 4/1/13 12/149/13 28/100/13
f 1/1/10 13/100/10 45/83/10
f 2/304/10 46/218/10 14/199/10
f 1/304/11 49/218/11 17/199/11
f 2/1/12 20/100/12 52/83/12
f 3/1/11 21/100/11 53/83/11
f 4/304/12 56/218/12 24/199/12
f 3/304/13 59/218/13 27/199/13
f 4/1/13 28/100/13 60/83/13
f 5/149/32 6/150/32 15/100/32 13/99/32
f 5/149/31 14/198/31 16/199/31 6/150/31
f 7/149/33 17/198/33 18/199/33 8/150/33
f 9/150/33 19/100/33 20/99/33 10/149/33
f 7/149/30 8/150/30 22/100/30 21/99/30
f 9/150/30 10/149/30 24/198/30 23/199/30
f 11/150/32 12/149/32 27/198/32 25/199/32
f 11/150/31 26/100/31 28/99/31 12/149/31
f 6/149/10 30/178/10 29/120/10
f 8/149/11 33/178/11 37/120/11
f 9/149/12 40/178/12 36/120/12
f 11/149/13 43/178/13 44/120/13
f 6/149/10 29/120/10 47/83/10 15/100/10
f 6/149/10 16/199/10 48/218/10 30/178/10
f 8/149/11 18/199/11 50/218/11 33/178/11
f 9/149/12 36/120/12 51/83/12 19/100/12
f 8/149/11 37/120/11 54/83/11 22/100/11
f 9/149/12 23/199/12 55/218/12 40/178/12
f 11/149/13 25/199/13 57/218/13 43/178/13
f 11/149/13 44/120/13 58/83/13 26/100/13
f 29/120/34 30/178/34 32/179/34 31/121/34
f 33/178/34 34/179/34 38/121/34 37/120/34
f 35/121/34 36/120/34 40/178/34 39/179/34
f 41/179/34 42/121/34 44/120/34 43/178/34
f 13/82/28 15/100/28 47/102/28 45/83/28
f 14/217/27 46/218/27 48/201/27 16/199/27
f 17/217/29 49/218/29 50/201/29 18/199/29
f 19/100/29 51/102/29 52/83/29 20/82/29
f 21/82/26 22/100/26 54/102/26 53/83/26
f 23/199/26 24/217/26 56/218/26 55/201/26
f 25/199/28 27/217/28 59/218/28 57/201/28
f 26/100/27 58/102/27 60/83/27 28/82/27
f 1/1/10 45/83/10 101/2/10
f 2/304/10 102/305/10 46/218/10
f 29/120/10 61/124/10 47/83/10
f 30/178/10 48/218/10 62/182/10
f 29/120/12 31/138/12 63/141/12 61/124/12
f 30/178/11 62/182/11 64/167/11 32/164/11
f 31/120/10 32/178/10 64/182/10 63/124/10
f 1/304/11 101/305/11 49/218/11
f 2/1/12 52/83/12 102/2/12
f 33/178/11 50/218/11 65/182/11
f 36/120/12 68/124/12 51/83/12
f 33/178/13 65/182/13 66/167/13 34/164/13
f 35/138/13 67/141/13 68/124/13 36/120/13
f 34/178/11 66/182/11 70/124/11 38/120/11
f 35/120/12 39/178/12 71/182/12 67/124/12
f 37/120/10 38/138/10 70/141/10 69/124/10
f 39/164/10 40/178/10 72/182/10 71/167/10
f 37/120/11 69/124/11 54/83/11
f 40/178/12 55/218/12 72/182/12
f 3/1/11 53/83/11 167/2/11
f 4/304/12 168/305/12 56/218/12
f 41/178/13 73/182/13 74/124/13 42/120/13
f 41/164/12 43/178/12 75/182/12 73/167/12
f 42/138/11 74/141/11 76/124/11 44/120/11
f 43/178/13 57/218/13 75/182/13
f 44/120/13 76/124/13 58/83/13
f 3/304/13 167/305/13 59/218/13
f 4/1/13 60/83/13 168/2/13
f 45/83/8 47/102/8 79/104/8 77/86/8
f 46/218/7 78/221/7 80/203/7 48/201/7
f 49/218/9 81/221/9 82/203/9 50/201/9
f 51/102/9 83/104/9 84/86/9 52/83/9
f 53/83/6 54/102/6 86/104/6 85/86/6
f 55/201/6 56/218/6 88/221/6 87/203/6
f 57/201/8 59/218/8 91/221/8 89/203/8
f 58/102/7 90/104/7 92/86/7 60/83/7
f 61/124/1 63/123/1 64/181/1 62/182/1
f 65/182/1 69/124/1 70/123/1 66/181/1
f 67/123/1 71/181/1 72/182/1 68/124/1
f 73/181/1 75/182/1 76/124/1 74/123/1
f 47/83/10 61/124/10 94/155/10 79/104/10
f 48/218/10 80/203/10 94/155/10 62/182/10
f 50/218/11 82/203/11 96/155/11 65/182/11
f 51/83/12 68/124/12 97/155/12 83/104/12
f 54/83/11 69/124/11 96/155/11 86/104/11
f 55/218/12 87/203/12 97/155/12 72/182/12
f 57/218/13 89/203/13 99/155/13 75/182/13
f 58/83/13 76/124/13 99/155/13 90/104/13
f 61/124/10 62/182/10 94/155/10
f 65/182/11 96/155/11 69/124/11
f 68/124/12 72/182/12 97/155/12
f 75/182/13 99/155/13 76/124/13
f 77/105/4 79/104/4 94/154/4 93/155/4
f 78/204/3 93/155/3 94/154/3 80/203/3
f 81/204/5 95/155/5 96/154/5 82/203/5
f 83/104/5 97/154/5 98/155/5 84/105/5
f 85/105/2 86/104/2 96/154/2 95/155/2
f 87/203/2 88/204/2 98/155/2 97/154/2
f 89/203/4 91/204/4 100/155/4 99/154/4
f 90/104/3 99/154/3 100/155/3 92/105/3
f 45/83/10 77/104/10 101/2/10
f 46/218/10 102/305/10 78/203/10
f 49/218/11 101/305/11 81/203/11
f 52/83/12 84/104/12 102/2/12
f 53/83/11 85/104/11 167/2/11
f 56/218/12 168/305/12 88/203/12
f 59/218/13 167/305/13 91/203/13
f 60/83/13 92/104/13 168/2/13
f 77/104/10 93/155/10 101/2/10
f 78/203/10 102/305/10 93/155/10
f 81/203/11 101/305/11 95/155/11
f 84/104/12 98/155/12 102/2/12
f 85/104/11 95/155/11 167/2/11
f 88/203/12 168/305/12 98/155/12
f 91/203/13 167/305/13 100/155/13
f 92/104/13 100/155/13 168/2/13
f 93/155/10 102/305/10 101/2/10
f 95/155/11 101/305/11 167/2/11
f 98/155/12 168/305/12 102/2/12
f 100/155/13 167/305/13 168/2/13
