mtllib irradiation_chamber.mtl
o Model
v 0.000000 0.000000 0.000000
v 0.000000 0.000000 0.125000
v 0.000000 0.000000 0.875000
v 0.000000 0.000000 1.000000
v 0.125000 0.000000 0.000000
v 0.125000 0.000000 0.125000
v 0.125000 0.000000 0.875000
v 0.125000 0.000000 1.000000
v 0.875000 0.000000 0.000000
v 0.875000 0.000000 0.125000
v 0.875000 0.000000 0.875000
v 0.875000 0.000000 1.000000
v 1.000000 0.000000 0.000000
v 1.000000 0.000000 0.125000
v 1.000000 0.000000 0.875000
v 1.000000 0.000000 1.000000
v -0.062500 0.062500 1.061500
v -0.061500 0.062500 -0.062500
v 1.061500 0.062500 1.062500
v 1.062500 0.062500 -0.061500
v 0.000000 0.125000 0.000000
v 0.000000 0.125000 0.125000
v 0.000000 0.125000 0.375000
v 0.000000 0.125000 0.625000
v 0.000000 0.125000 0.875000
v 0.000000 0.125000 1.000000
v 0.125000 0.125000 0.000000
v 0.125000 0.125000 1.000000
v 0.375000 0.125000 0.000000
v 0.375000 0.125000 1.000000
v 0.625000 0.125000 0.000000
v 0.625000 0.125000 1.000000
v 0.875000 0.125000 0.000000
v 0.875000 0.125000 1.000000
v 1.000000 0.125000 0.000000
v 1.000000 0.125000 0.125000
v 1.000000 0.125000 0.375000
v 1.000000 0.125000 0.625000
v 1.000000 0.125000 0.875000
v 1.000000 0.125000 1.000000
v -0.062500 0.187500 0.375000
v -0.062500 0.187500 0.625000
v 0.000000 0.187500 0.187500
v 0.000000 0.187500 0.812500
v 0.187500 0.187500 0.000000
v 0.187500 0.187500 1.000000
v 0.375000 0.187500 -0.062500
v 0.375000 0.187500 1.062500
v 0.625000 0.187500 -0.062500
v 0.625000 0.187500 1.062500
v 0.812500 0.187500 0.000000
v 0.812500 0.187500 1.000000
v 1.000000 0.187500 0.187500
v 1.000000 0.187500 0.812500
v 1.062500 0.187500 0.375000
v 1.062500 0.187500 0.625000
v -0.062500 0.250000 0.250000
v -0.062500 0.250000 0.750000
v 0.250000 0.250000 -0.062500
v 0.250000 0.250000 1.062500
v 0.750000 0.250000 -0.062500
v 0.750000 0.250000 1.062500
v 1.062500 0.250000 0.250000
v 1.062500 0.250000 0.750000
v -0.062500 0.375000 0.187500
v -0.062500 0.375000 0.812500
v 0.000000 0.375000 0.125000
v 0.000000 0.375000 0.875000
v 0.125000 0.375000 0.000000
v 0.125000 0.375000 1.000000
v 0.187500 0.375000 -0.062500
v 0.187500 0.375000 1.062500
v 0.812500 0.375000 -0.062500
v 0.812500 0.375000 1.062500
v 0.875000 0.375000 0.000000
v 0.875000 0.375000 1.000000
v 1.000000 0.375000 0.125000
v 1.000000 0.375000 0.875000
v 1.062500 0.375000 0.187500
v 1.062500 0.375000 0.812500
v -0.062500 0.625000 0.187500
v -0.062500 0.625000 0.812500
v 0.000000 0.625000 0.125000
v 0.000000 0.625000 0.875000
v 0.125000 0.625000 0.000000
v 0.125000 0.625000 1.000000
v 0.187500 0.625000 -0.062500
v 0.187500 0.625000 1.062500
v 0.812500 0.625000 -0.062500
v 0.812500 0.625000 1.062500
v 0.875000 0.625000 0.000000
v 0.875000 0.625000 1.000000
v 1.000000 0.625000 0.125000
v 1.000000 0.625000 0.875000
v 1.062500 0.625000 0.187500
v 1.062500 0.625000 0.812500
v -0.062500 0.750000 0.250000
v -0.062500 0.750000 0.750000
v 0.250000 0.750000 -0.062500
v 0.250000 0.750000 1.062500
v 0.750000 0.750000 -0.062500
v 0.750000 0.750000 1.062500
v 1.062500 0.750000 0.250000
v 1.062500 0.750000 0.750000
v -0.062500 0.812500 0.375000
v -0.062500 0.812500 0.625000
v 0.000000 0.812500 0.187500
v 0.000000 0.812500 0.812500
v 0.187500 0.812500 0.000000
v 0.187500 0.812500 1.000000
v 0.375000 0.812500 -0.062500
v 0.375000 0.812500 1.062500
v 0.625000 0.812500 -0.062500
v 0.625000 0.812500 1.062500
v 0.812500 0.812500 0.000000
v 0.812500 0.812500 1.000000
v 1.000000 0.812500 0.187500
v 1.000000 0.812500 0.812500
v 1.062500 0.812500 0.375000
v 1.062500 0.812500 0.625000
v 0.000000 0.875000 0.000000
v 0.000000 0.875000 0.125000
v 0.000000 0.875000 0.375000
v 0.000000 0.875000 0.625000
v 0.000000 0.875000 0.875000
v 0.000000 0.875000 1.000000
v 0.125000 0.875000 0.000000
v 0.125000 0.875000 1.000000
v 0.250000 0.875000 0.250000
v 0.250000 0.875000 0.750000
v 0.375000 0.875000 0.000000
v 0.375000 0.875000 1.000000
v 0.625000 0.875000 0.000000
v 0.625000 0.875000 1.000000
v 0.750000 0.875000 0.250000
v 0.750000 0.875000 0.750000
v 0.875000 0.875000 0.000000
v 0.875000 0.875000 1.000000
v 1.000000 0.875000 0.000000
v 1.000000 0.875000 0.125000
v 1.000000 0.875000 0.375000
v 1.000000 0.875000 0.625000
v 1.000000 0.875000 0.875000
v 1.000000 0.875000 1.000000
v -0.062500 0.937500 1.061500
v -0.061500 0.937500 -0.062500
v 1.061500 0.937500 1.062500
v 1.062500 0.937500 -0.061500
v 0.000000 1.000000 0.000000
v 0.000000 1.000000 0.125000
v 0.000000 1.000000 0.875000
v 0.000000 1.000000 1.000000
v 0.125000 1.000000 0.000000
v 0.125000 1.000000 1.000000
v 0.250000 1.000000 0.250000
v 0.250000 1.000000 0.750000
v 0.750000 1.000000 0.250000
v 0.750000 1.000000 0.750000
v 0.875000 1.000000 0.000000
v 0.875000 1.000000 1.000000
v 1.000000 1.000000 0.000000
v 1.000000 1.000000 0.125000
v 1.000000 1.000000 0.875000
v 1.000000 1.000000 1.000000
vn 0.0000 -1.0000 0.0000
vn -0.7071 -0.7071 0.0000
vn 0.0000 -0.7071 -0.7071
vn 0.0000 -0.7071 0.7071
vn 0.7071 -0.7071 0.0000
vn -0.7128 -0.7014 0.0000
vn 0.0000 -0.7014 -0.7128
vn 0.0000 -0.7014 0.7128
vn 0.7128 -0.7014 0.0000
vn -0.6882 -0.6882 -0.2294
vn -0.6882 -0.6882 0.2294
vn -0.2294 -0.6882 -0.6882
vn -0.2294 -0.6882 0.6882
vn 0.2294 -0.6882 -0.6882
vn 0.2294 -0.6882 0.6882
vn 0.6882 -0.6882 -0.2294
vn 0.6882 -0.6882 0.2294
vn -0.8018 -0.5345 -0.2673
vn -0.8018 -0.5345 0.2673
vn -0.2673 -0.5345 -0.8018
vn -0.2673 -0.5345 0.8018
vn 0.2673 -0.5345 -0.8018
vn 0.2673 -0.5345 0.8018
vn 0.8018 -0.5345 -0.2673
vn 0.8018 -0.5345 0.2673
vn -0.8018 -0.2673 -0.5345
vn -0.8018 -0.2673 0.5345
vn -0.5345 -0.2673 -0.8018
vn -0.5345 -0.2673 0.8018
vn 0.5345 -0.2673 -0.8018
vn 0.5345 -0.2673 0.8018
vn 0.8018 -0.2673 -0.5345
vn 0.8018 -0.2673 0.5345
vn -0.6882 -0.2294 -0.6882
vn -0.6882 -0.2294 0.6882
vn 0.6882 -0.2294 -0.6882
vn 0.6882 -0.2294 0.6882
vn -1.0000 0.0000 0.0000
vn 0.0000 0.0000 -1.0000
vn 0.0000 0.0000 1.0000
vn 1.0000 0.0000 0.0000
vn -0.9502 0.0000 0.3117
vn -0.3117 0.0000 -0.9502
vn 0.3117 0.0000 0.9502
vn 0.9502 0.0000 -0.3117
vn -0.9482 0.0000 -0.3178
vn -0.3178 0.0000 0.9482
vn 0.3178 0.0000 -0.9482
vn 0.9482 0.0000 0.3178
vn -0.7071 0.0000 -0.7071
vn -0.7071 0.0000 0.7071
vn 0.7071 0.0000 -0.7071
vn 0.7071 0.0000 0.7071
vn -0.6882 0.2294 -0.6882
vn -0.6882 0.2294 0.6882
vn 0.6882 0.2294 -0.6882
vn 0.6882 0.2294 0.6882
vn -0.8018 0.2673 -0.5345
vn -0.8018 0.2673 0.5345
vn -0.5345 0.2673 -0.8018
vn -0.5345 0.2673 0.8018
vn 0.5345 0.2673 -0.8018
vn 0.5345 0.2673 0.8018
vn 0.8018 0.2673 -0.5345
vn 0.8018 0.2673 0.5345
vn -0.8018 0.5345 -0.2673
vn -0.8018 0.5345 0.2673
vn -0.2673 0.5345 -0.8018
vn -0.2673 0.5345 0.8018
vn 0.2673 0.5345 -0.8018
vn 0.2673 0.5345 0.8018
vn 0.8018 0.5345 -0.2673
vn 0.8018 0.5345 0.2673
vn -0.6882 0.6882 -0.2294
vn -0.6882 0.6882 0.2294
vn -0.2294 0.6882 -0.6882
vn -0.2294 0.6882 0.6882
vn 0.2294 0.6882 -0.6882
vn 0.2294 0.6882 0.6882
vn 0.6882 0.6882 -0.2294
vn 0.6882 0.6882 0.2294
vn -0.7128 0.7014 0.0000
vn 0.0000 0.7014 -0.7128
vn 0.0000 0.7014 0.7128
vn 0.7128 0.7014 0.0000
vn -0.7071 0.7071 0.0000
vn 0.0000 0.7071 -0.7071
vn 0.0000 0.7071 0.7071
vn 0.7071 0.7071 0.0000
vn 0.0000 1.0000 0.0000
vt 0.000000 0.000000
vt 0.000000 0.062500
vt 0.000000 0.125000
vt 0.000000 0.187500
vt 0.000000 0.875000
vt 0.000000 0.937500
vt 0.000000 1.000000
vt 0.062500 0.062500
vt 0.062500 0.125000
vt 0.062500 0.812500
vt 0.062500 0.875000
vt 0.062500 0.937500
vt 0.125000 0.000000
vt 0.125000 0.125000
vt 0.125000 0.375000
vt 0.125000 0.625000
vt 0.125000 0.875000
vt 0.125000 1.000000
vt 0.187500 0.000000
vt 0.187500 0.062500
vt 0.187500 0.125000
vt 0.187500 0.187500
vt 0.187500 0.250000
vt 0.187500 0.375000
vt 0.187500 0.625000
vt 0.187500 0.750000
vt 0.187500 0.812500
vt 0.187500 0.875000
vt 0.187500 1.000000
vt 0.250000 0.187500
vt 0.250000 0.250000
vt 0.250000 0.312500
vt 0.250000 0.687500
vt 0.250000 0.750000
vt 0.250000 0.812500
vt 0.312500 0.250000
vt 0.312500 0.750000
vt 0.375000 0.125000
vt 0.375000 0.187500
vt 0.375000 0.812500
vt 0.375000 0.875000
vt 0.625000 0.125000
vt 0.625000 0.187500
vt 0.625000 0.812500
vt 0.625000 0.875000
vt 0.687500 0.250000
vt 0.687500 0.750000
vt 0.750000 0.187500
vt 0.750000 0.250000
vt 0.750000 0.312500
vt 0.750000 0.687500
vt 0.750000 0.750000
vt 0.750000 0.812500
vt 0.812500 0.000000
vt 0.812500 0.125000
vt 0.812500 0.187500
vt 0.812500 0.250000
vt 0.812500 0.375000
vt 0.812500 0.625000
vt 0.812500 0.750000
vt 0.812500 0.812500
vt 0.812500 0.875000
vt 0.812500 0.937500
vt 0.812500 1.000000
vt 0.875000 0.000000
vt 0.875000 0.125000
vt 0.875000 0.375000
vt 0.875000 0.625000
vt 0.875000 0.875000
vt 0.875000 1.000000
vt 0.937500 0.062500
vt 0.937500 0.125000
vt 0.937500 0.187500
vt 0.937500 0.875000
vt 0.937500 0.937500
vt 1.000000 0.000000
vt 1.000000 0.062500
vt 1.000000 0.125000
vt 1.000000 0.812500
vt 1.000000 0.875000
vt 1.000000 0.937500
vt 1.000000 1.000000
usemtl MaterialTop
f 129/34/90 130/31/90 136/49/90 135/52/90
f 129/37/41 155/26/41 156/23/41 130/36/41
f 129/33/40 135/51/40 157/53/40 155/35/40
f 130/32/39 156/30/39 158/48/39 136/50/39
f 135/47/38 136/46/38 158/57/38 157/60/38
f 145/1/86 152/8/86 151/4/86
f 146/7/82 150/10/82 149/12/82
f 145/1/84 154/20/84 152/8/84
f 146/7/87 149/12/87 153/29/87
f 147/76/88 164/71/88 160/54/88
f 148/82/83 159/63/83 161/75/83
f 147/76/85 163/73/85 164/71/85
f 148/82/89 161/75/89 162/79/89
f 149/7/90 150/5/90 155/34/90 153/18/90
f 151/3/90 152/1/90 154/13/90 156/31/90
f 150/5/90 151/3/90 156/31/90 155/34/90
f 153/18/90 155/34/90 157/52/90 159/70/90
f 154/13/90 160/65/90 158/49/90 156/31/90
f 157/52/90 158/49/90 163/78/90 162/80/90
f 157/52/90 162/80/90 161/82/90 159/70/90
f 158/49/90 160/65/90 164/76/90 163/78/90
usemtl MaterialBottom
f 1/1/1 5/13/1 6/14/1 2/3/1
f 2/3/1 6/14/1 7/17/1 3/5/1
f 3/5/1 7/17/1 8/18/1 4/7/1
f 5/13/1 9/65/1 10/66/1 6/14/1
f 6/14/1 10/66/1 11/69/1 7/17/1
f 7/17/1 11/69/1 12/70/1 8/18/1
f 9/65/1 13/76/1 14/78/1 10/66/1
f 10/66/1 14/78/1 15/80/1 11/69/1
f 11/69/1 15/80/1 16/82/1 12/70/1
f 3/10/2 4/12/2 17/7/2
f 1/8/6 2/4/6 18/1/6
f 4/12/8 8/29/8 17/7/8
f 1/8/3 18/1/3 5/20/3
f 12/63/4 16/75/4 19/82/4
f 9/54/7 20/76/7 13/71/7
f 15/79/9 19/82/9 16/75/9
f 13/71/5 20/76/5 14/73/5
usemtl MaterialSide
f 3/54/46 17/77/46 25/55/46
f 2/19/42 22/21/42 18/2/42
f 2/13/38 3/65/38 24/42/38 23/38/38
f 8/19/44 28/21/44 17/2/44
f 5/54/48 18/77/48 27/55/48
f 5/65/39 29/42/39 31/38/39 9/13/39
f 8/13/40 12/65/40 32/42/40 30/38/40
f 12/54/47 19/77/47 34/55/47
f 9/19/43 33/21/43 20/2/43
f 14/65/41 37/42/41 38/38/41 15/13/41
f 15/19/45 39/21/45 19/2/45
f 14/54/49 20/77/49 36/55/49
f 2/13/38 23/38/38 22/14/38
f 3/65/38 25/66/38 24/42/38
f 5/65/39 27/66/39 29/42/39
f 8/13/40 30/38/40 28/14/40
f 9/13/39 31/38/39 33/14/39
f 12/65/40 34/66/40 32/42/40
f 14/65/41 36/66/41 37/42/41
f 15/13/41 38/38/41 39/14/41
f 17/77/86 26/72/86 25/55/86
f 18/2/82 22/21/82 21/9/82
f 17/2/84 28/21/84 26/9/84
f 18/77/87 21/72/87 27/55/87
f 19/77/88 40/72/88 34/55/88
f 20/2/83 33/21/83 35/9/83
f 19/2/85 39/21/85 40/9/85
f 20/77/89 35/72/89 36/55/89
f 22/14/38 23/38/38 43/22/38
f 24/42/38 25/66/38 44/56/38
f 27/66/39 45/56/39 29/42/39
f 28/14/40 30/38/40 46/22/40
f 31/38/39 51/22/39 33/14/39
f 32/42/40 34/66/40 52/56/40
f 36/66/41 53/56/41 37/42/41
f 38/38/41 54/22/41 39/14/41
f 23/38/2 24/42/2 42/43/2 41/39/2
f 29/42/3 47/43/3 49/39/3 31/38/3
f 30/38/4 32/42/4 50/43/4 48/39/4
f 37/42/5 55/43/5 56/39/5 38/38/5
f 23/38/10 41/39/10 43/22/10
f 24/42/11 44/56/11 42/43/11
f 29/42/12 45/56/12 47/43/12
f 30/38/13 48/39/13 46/22/13
f 31/38/14 49/39/14 51/22/14
f 32/42/15 52/56/15 50/43/15
f 37/42/16 53/56/16 55/43/16
f 38/38/17 56/39/17 54/22/17
f 41/39/18 57/31/18 43/22/18
f 42/43/19 44/56/19 58/49/19
f 21/3/38 22/14/38 67/15/38
f 25/66/38 26/78/38 68/67/38
f 21/78/39 69/67/39 27/66/39
f 26/3/40 28/14/40 70/15/40
f 45/56/20 59/49/20 47/43/20
f 46/22/21 48/39/21 60/31/21
f 49/39/22 61/31/22 51/22/22
f 50/43/23 52/56/23 62/49/23
f 33/14/39 75/15/39 35/3/39
f 34/66/40 40/78/40 76/67/40
f 35/78/41 77/67/41 36/66/41
f 39/14/41 78/15/41 40/3/41
f 53/56/24 63/49/24 55/43/24
f 54/22/25 56/39/25 64/31/25
f 41/39/38 42/43/38 58/49/38 57/31/38
f 47/43/39 59/49/39 61/31/39 49/39/39
f 48/39/40 50/43/40 62/49/40 60/31/40
f 55/43/41 63/49/41 64/31/41 56/39/41
f 22/14/38 43/22/38 67/15/38
f 25/66/38 68/67/38 44/56/38
f 27/66/39 69/67/39 45/56/39
f 28/14/40 46/22/40 70/15/40
f 33/14/39 51/22/39 75/15/39
f 34/66/40 76/67/40 52/56/40
f 36/66/41 77/67/41 53/56/41
f 39/14/41 54/22/41 78/15/41
f 43/22/26 57/31/26 65/24/26
f 44/56/27 66/58/27 58/49/27
f 45/56/28 71/58/28 59/49/28
f 46/22/29 60/31/29 72/24/29
f 51/22/30 61/31/30 73/24/30
f 52/56/31 74/58/31 62/49/31
f 53/56/32 79/58/32 63/49/32
f 54/22/33 64/31/33 80/24/33
f 43/22/34 65/24/34 67/15/34
f 44/56/35 68/67/35 66/58/35
f 45/56/34 69/67/34 71/58/34
f 46/22/35 72/24/35 70/15/35
f 51/22/36 73/24/36 75/15/36
f 52/56/37 76/67/37 74/58/37
f 53/56/36 77/67/36 79/58/36
f 54/22/37 80/24/37 78/15/37
f 57/31/38 97/34/38 81/25/38 65/24/38
f 57/31/38 58/49/38 98/52/38 97/34/38
f 58/49/38 66/58/38 82/59/38 98/52/38
f 65/24/50 81/25/50 83/16/50 67/15/50
f 66/58/51 68/67/51 84/68/51 82/59/51
f 21/3/38 67/15/38 83/16/38 121/5/38
f 26/78/38 126/80/38 84/68/38 68/67/38
f 21/78/39 121/80/39 85/68/39 69/67/39
f 26/3/40 70/15/40 86/16/40 126/5/40
f 69/67/50 85/68/50 87/59/50 71/58/50
f 70/15/51 72/24/51 88/25/51 86/16/51
f 59/49/39 71/58/39 87/59/39 99/52/39
f 60/31/40 100/34/40 88/25/40 72/24/40
f 59/49/39 99/52/39 101/34/39 61/31/39
f 60/31/40 62/49/40 102/52/40 100/34/40
f 61/31/39 101/34/39 89/25/39 73/24/39
f 62/49/40 74/58/40 90/59/40 102/52/40
f 73/24/52 89/25/52 91/16/52 75/15/52
f 74/58/53 76/67/53 92/68/53 90/59/53
f 35/3/39 75/15/39 91/16/39 139/5/39
f 40/78/40 144/80/40 92/68/40 76/67/40
f 35/78/41 139/80/41 93/68/41 77/67/41
f 40/3/41 78/15/41 94/16/41 144/5/41
f 77/67/52 93/68/52 95/59/52 79/58/52
f 78/15/53 80/24/53 96/25/53 94/16/53
f 63/49/41 79/58/41 95/59/41 103/52/41
f 63/49/41 103/52/41 104/34/41 64/31/41
f 64/31/41 104/34/41 96/25/41 80/24/41
f 81/25/54 107/27/54 83/16/54
f 82/59/55 84/68/55 108/61/55
f 85/68/54 109/61/54 87/59/54
f 86/16/55 88/25/55 110/27/55
f 89/25/56 115/27/56 91/16/56
f 90/59/57 92/68/57 116/61/57
f 93/68/56 117/61/56 95/59/56
f 94/16/57 96/25/57 118/27/57
f 81/25/58 97/34/58 107/27/58
f 82/59/59 108/61/59 98/52/59
f 87/59/60 109/61/60 99/52/60
f 88/25/61 100/34/61 110/27/61
f 89/25/62 101/34/62 115/27/62
f 90/59/63 116/61/63 102/52/63
f 95/59/64 117/61/64 103/52/64
f 96/25/65 104/34/65 118/27/65
f 83/16/38 107/27/38 122/17/38
f 84/68/38 125/69/38 108/61/38
f 85/68/39 127/69/39 109/61/39
f 86/16/40 110/27/40 128/17/40
f 91/16/39 115/27/39 137/17/39
f 92/68/40 138/69/40 116/61/40
f 93/68/41 140/69/41 117/61/41
f 94/16/41 118/27/41 143/17/41
f 97/34/38 98/52/38 106/44/38 105/40/38
f 99/52/39 111/44/39 113/40/39 101/34/39
f 100/34/40 102/52/40 114/44/40 112/40/40
f 103/52/41 119/44/41 120/40/41 104/34/41
f 97/34/66 105/40/66 107/27/66
f 98/52/67 108/61/67 106/44/67
f 83/16/38 122/17/38 121/5/38
f 84/68/38 126/80/38 125/69/38
f 85/68/39 121/80/39 127/69/39
f 86/16/40 128/17/40 126/5/40
f 99/52/68 109/61/68 111/44/68
f 100/34/69 112/40/69 110/27/69
f 101/34/70 113/40/70 115/27/70
f 102/52/71 116/61/71 114/44/71
f 91/16/39 137/17/39 139/5/39
f 92/68/40 144/80/40 138/69/40
f 93/68/41 139/80/41 140/69/41
f 94/16/41 143/17/41 144/5/41
f 103/52/72 117/61/72 119/44/72
f 104/34/73 120/40/73 118/27/73
f 105/40/74 123/41/74 107/27/74
f 106/44/75 108/61/75 124/45/75
f 109/61/76 131/45/76 111/44/76
f 110/27/77 112/40/77 132/41/77
f 113/40/78 133/41/78 115/27/78
f 114/44/79 116/61/79 134/45/79
f 117/61/80 141/45/80 119/44/80
f 118/27/81 120/40/81 142/41/81
f 105/40/86 106/44/86 124/45/86 123/41/86
f 111/44/87 131/45/87 133/41/87 113/40/87
f 112/40/88 114/44/88 134/45/88 132/41/88
f 119/44/89 141/45/89 142/41/89 120/40/89
f 107/27/38 123/41/38 122/17/38
f 108/61/38 125/69/38 124/45/38
f 109/61/39 127/69/39 131/45/39
f 110/27/40 132/41/40 128/17/40
f 115/27/39 133/41/39 137/17/39
f 116/61/40 138/69/40 134/45/40
f 117/61/41 140/69/41 141/45/41
f 118/27/41 142/41/41 143/17/41
f 125/62/2 126/74/2 145/81/2
f 121/11/6 122/28/6 146/6/6
f 126/11/8 128/28/8 145/6/8
f 121/74/3 146/81/3 127/62/3
f 138/62/4 144/74/4 147/81/4
f 137/28/7 148/6/7 139/11/7
f 143/28/9 147/6/9 144/11/9
f 139/74/5 148/81/5 140/62/5
f 122/17/38 123/41/38 150/18/38
f 124/45/38 125/69/38 151/70/38
f 127/69/39 153/70/39 131/45/39
f 128/17/40 132/41/40 154/18/40
f 133/41/39 159/18/39 137/17/39
f 134/45/40 138/69/40 160/70/40
f 140/69/41 162/70/41 141/45/41
f 142/41/41 163/18/41 143/17/41
f 125/62/46 145/81/46 151/64/46
f 122/28/42 150/29/42 146/6/42
f 123/41/38 124/45/38 151/70/38 150/18/38
f 128/28/44 154/29/44 145/6/44
f 127/62/48 146/81/48 153/64/48
f 131/45/39 153/70/39 159/18/39 133/41/39
f 132/41/40 134/45/40 160/70/40 154/18/40
f 138/62/47 147/81/47 160/64/47
f 137/28/43 159/29/43 148/6/43
f 141/45/41 162/70/41 163/18/41 142/41/41
f 143/28/45 163/29/45 147/6/45
f 140/62/49 148/81/49 162/64/49
