mtllib magical_enchanter.mtl
o Model
v 0.000000 0.000000 0.000000
v 0.000000 0.000000 1.000000
v 1.000000 0.000000 0.000000
v 1.000000 0.000000 1.000000
v 0.000000 0.500000 0.250000
v 0.000000 0.500000 0.750000
v 0.125000 0.500000 0.125000
v 0.125000 0.500000 0.250000
v 0.125000 0.500000 0.750000
v 0.125000 0.500000 0.875000
v 0.250000 0.500000 0.000000
v 0.250000 0.500000 0.125000
v 0.250000 0.500000 0.375000
v 0.250000 0.500000 0.625000
v 0.250000 0.500000 0.875000
v 0.250000 0.500000 1.000000
v 0.312500 0.500000 0.312500
v 0.312500 0.500000 0.687500
v 0.375000 0.500000 0.250000
v 0.375000 0.500000 0.750000
v 0.625000 0.500000 0.250000
v 0.625000 0.500000 0.750000
v 0.687500 0.500000 0.312500
v 0.687500 0.500000 0.687500
v 0.750000 0.500000 0.000000
v 0.750000 0.500000 0.125000
v 0.750000 0.500000 0.375000
v 0.750000 0.500000 0.625000
v 0.750000 0.500000 0.875000
v 0.750000 0.500000 1.000000
v 0.875000 0.500000 0.125000
v 0.875000 0.500000 0.250000
v 0.875000 0.500000 0.750000
v 0.875000 0.500000 0.875000
v 1.000000 0.500000 0.250000
v 1.000000 0.500000 0.750000
v 0.000000 0.625000 0.125000
v 0.000000 0.625000 0.250000
v 0.000000 0.625000 0.750000
v 0.000000 0.625000 0.875000
v 0.125000 0.625000 0.000000
v 0.125000 0.625000 0.125000
v 0.125000 0.625000 0.250000
v 0.125000 0.625000 0.750000
v 0.125000 0.625000 0.875000
v 0.125000 0.625000 1.000000
v 0.250000 0.625000 0.000000
v 0.250000 0.625000 0.125000
v 0.250000 0.625000 0.375000
v 0.250000 0.625000 0.625000
v 0.250000 0.625000 0.875000
v 0.250000 0.625000 1.000000
v 0.312500 0.625000 0.312500
v 0.312500 0.625000 0.687500
v 0.375000 0.625000 0.250000
v 0.375000 0.625000 0.750000
v 0.500000 0.625000 0.500000
v 0.625000 0.625000 0.250000
v 0.625000 0.625000 0.750000
v 0.687500 0.625000 0.312500
v 0.687500 0.625000 0.687500
v 0.750000 0.625000 0.000000
v 0.750000 0.625000 0.125000
v 0.750000 0.625000 0.375000
v 0.750000 0.625000 0.625000
v 0.750000 0.625000 0.875000
v 0.750000 0.625000 1.000000
v 0.875000 0.625000 0.000000
v 0.875000 0.625000 0.125000
v 0.875000 0.625000 0.250000
v 0.875000 0.625000 0.750000
v 0.875000 0.625000 0.875000
v 0.875000 0.625000 1.000000
v 1.000000 0.625000 0.125000
v 1.000000 0.625000 0.250000
v 1.000000 0.625000 0.750000
v 1.000000 0.625000 0.875000
v 0.000000 0.750000 0.000000
v 0.000000 0.750000 0.125000
v 0.000000 0.750000 0.875000
v 0.000000 0.750000 1.000000
v 0.125000 0.750000 0.000000
v 0.125000 0.750000 0.125000
v 0.125000 0.750000 0.875000
v 0.125000 0.750000 1.000000
v 0.875000 0.750000 0.000000
v 0.875000 0.750000 0.125000
v 0.875000 0.750000 0.875000
v 0.875000 0.750000 1.000000
v 1.000000 0.750000 0.000000
v 1.000000 0.750000 0.125000
v 1.000000 0.750000 0.875000
v 1.000000 0.750000 1.000000
vn 0.0000 -1.0000 0.0000
vn -1.0000 0.0000 0.0000
vn 0.0000 0.0000 -1.0000
vn 0.0000 0.0000 1.0000
vn 1.0000 0.0000 0.0000
vn -0.7071 0.0000 -0.7071
vn -0.7071 0.0000 0.7071
vn 0.7071 0.0000 -0.7071
vn 0.7071 0.0000 0.7071
vn 0.0000 1.0000 0.0000
vt 0.000000 0.000000
vt 0.000000 0.062500
vt 0.000000 0.125000
vt 0.000000 0.187500
vt 0.000000 0.250000
vt 0.000000 0.312500
vt 0.000000 0.687500
vt 0.000000 0.750000
vt 0.000000 0.812500
vt 0.000000 0.875000
vt 0.000000 0.937500
vt 0.000000 1.000000
vt 0.062500 0.000000
vt 0.062500 0.125000
vt 0.062500 0.250000
vt 0.062500 0.750000
vt 0.062500 0.875000
vt 0.062500 1.000000
vt 0.125000 0.000000
vt 0.125000 0.062500
vt 0.125000 0.125000
vt 0.125000 0.187500
vt 0.125000 0.250000
vt 0.125000 0.312500
vt 0.125000 0.625000
vt 0.125000 0.687500
vt 0.125000 0.750000
vt 0.125000 0.812500
vt 0.125000 0.875000
vt 0.125000 0.937500
vt 0.125000 1.000000
vt 0.187500 0.000000
vt 0.187500 0.125000
vt 0.187500 0.250000
vt 0.187500 0.375000
vt 0.187500 0.625000
vt 0.187500 0.750000
vt 0.187500 0.875000
vt 0.187500 1.000000
vt 0.250000 0.000000
vt 0.250000 0.062500
vt 0.250000 0.125000
vt 0.250000 0.187500
vt 0.250000 0.312500
vt 0.250000 0.375000
vt 0.250000 0.500000
vt 0.250000 0.625000
vt 0.250000 0.687500
vt 0.250000 0.812500
vt 0.250000 0.875000
vt 0.250000 0.937500
vt 0.250000 1.000000
vt 0.312500 0.000000
vt 0.312500 0.125000
vt 0.312500 0.250000
vt 0.312500 0.312500
vt 0.312500 0.375000
vt 0.312500 0.625000
vt 0.312500 0.687500
vt 0.312500 0.750000
vt 0.312500 0.875000
vt 0.312500 1.000000
vt 0.375000 0.187500
vt 0.375000 0.250000
vt 0.375000 0.312500
vt 0.375000 0.375000
vt 0.375000 0.625000
vt 0.375000 0.687500
vt 0.375000 0.750000
vt 0.375000 0.812500
vt 0.500000 0.500000
vt 0.625000 0.187500
vt 0.625000 0.250000
vt 0.625000 0.312500
vt 0.625000 0.375000
vt 0.625000 0.625000
vt 0.625000 0.687500
vt 0.625000 0.750000
vt 0.625000 0.812500
vt 0.687500 0.000000
vt 0.687500 0.125000
vt 0.687500 0.250000
vt 0.687500 0.312500
vt 0.687500 0.375000
vt 0.687500 0.625000
vt 0.687500 0.687500
vt 0.687500 0.750000
vt 0.687500 0.875000
vt 0.687500 1.000000
vt 0.750000 0.000000
vt 0.750000 0.062500
vt 0.750000 0.125000
vt 0.750000 0.187500
vt 0.750000 0.312500
vt 0.750000 0.375000
vt 0.750000 0.500000
vt 0.750000 0.625000
vt 0.750000 0.687500
vt 0.750000 0.812500
vt 0.750000 0.875000
vt 0.750000 0.937500
vt 0.750000 1.000000
vt 0.812500 0.000000
vt 0.812500 0.125000
vt 0.812500 0.250000
vt 0.812500 0.375000
vt 0.812500 0.625000
vt 0.812500 0.750000
vt 0.812500 0.875000
vt 0.812500 1.000000
vt 0.875000 0.000000
vt 0.875000 0.062500
vt 0.875000 0.125000
vt 0.875000 0.187500
vt 0.875000 0.250000
vt 0.875000 0.312500
vt 0.875000 0.625000
vt 0.875000 0.687500
vt 0.875000 0.750000
vt 0.875000 0.812500
vt 0.875000 0.875000
vt 0.875000 0.937500
vt 0.875000 1.000000
vt 0.937500 0.000000
vt 0.937500 0.125000
vt 0.937500 0.250000
vt 0.937500 0.750000
vt 0.937500 0.875000
vt 0.937500 1.000000
vt 1.000000 0.000000
vt 1.000000 0.062500
vt 1.000000 0.125000
vt 1.000000 0.187500
vt 1.000000 0.250000
vt 1.000000 0.312500
vt 1.000000 0.687500
vt 1.000000 0.750000
vt 1.000000 0.812500
vt 1.000000 0.875000
vt 1.000000 0.937500
vt 1.000000 1.000000
usemtl MaterialTop
f 5/8/10 6/5/10 9/23/10 8/27/10
f 8/27/10 9/23/10 14/45/10 13/47/10
f 7/29/10 8/27/10 13/47/10 17/59/10
f 9/23/10 10/21/10 18/56/10 14/45/10
f 7/29/10 17/59/10 19/69/10 12/50/10
f 10/21/10 15/42/10 20/64/10 18/56/10
f 11/52/10 12/50/10 26/100/10 25/102/10
f 12/50/10 19/69/10 21/78/10 26/100/10
f 15/42/10 29/92/10 22/73/10 20/64/10
f 15/42/10 16/40/10 30/90/10 29/92/10
f 21/78/10 23/86/10 31/121/10 26/100/10
f 22/73/10 29/92/10 34/113/10 24/83/10
f 23/86/10 27/97/10 32/119/10 31/121/10
f 24/83/10 34/113/10 33/115/10 28/95/10
f 27/97/10 28/95/10 33/115/10 32/119/10
f 32/119/10 33/115/10 36/134/10 35/137/10
f 5/7/4 8/26/4 43/28/4 38/9/4
f 6/6/3 39/4/3 44/22/3 9/24/3
f 7/38/5 42/17/5 43/16/5 8/37/5
f 9/34/5 44/15/5 45/14/5 10/33/5
f 7/28/4 12/49/4 48/51/4 42/30/4
f 10/22/3 45/20/3 51/41/3 15/43/3
f 11/62/5 47/39/5 48/38/5 12/61/5
f 13/36/2 14/35/2 50/57/2 49/58/2
f 15/54/5 51/33/5 52/32/5 16/53/5
f 13/47/6 49/67/6 53/68/6 17/48/6
f 14/45/7 18/44/7 54/65/7 50/66/7
f 17/60/6 53/58/6 55/67/6 19/69/6
f 18/55/7 20/64/7 56/66/7 54/57/7
f 19/70/3 55/68/3 58/77/3 21/79/3
f 20/63/4 22/72/4 59/74/4 56/65/4
f 21/78/8 58/76/8 60/85/8 23/87/8
f 22/73/9 24/82/9 61/84/9 59/75/9
f 23/98/8 60/77/8 64/76/8 27/97/8
f 24/94/9 28/95/9 65/75/9 61/74/9
f 25/89/2 26/88/2 63/109/2 62/110/2
f 27/107/5 64/85/5 65/84/5 28/106/5
f 29/81/2 30/80/2 67/103/2 66/104/2
f 26/99/4 31/120/4 69/122/4 63/101/4
f 29/93/3 66/91/3 72/112/3 34/114/3
f 31/109/2 32/108/2 70/127/2 69/128/2
f 33/105/2 34/104/2 72/125/2 71/126/2
f 32/118/4 35/136/4 75/138/4 70/120/4
f 33/116/3 71/114/3 76/133/3 36/135/3
f 37/10/10 38/8/10 43/27/10 42/29/10
f 39/5/10 40/3/10 45/21/10 44/23/10
f 41/31/10 42/29/10 48/50/10 47/52/10
f 45/21/10 46/19/10 52/40/10 51/42/10
f 49/47/10 50/45/10 57/71/10
f 49/47/10 57/71/10 55/69/10 53/59/10
f 50/45/10 54/56/10 56/64/10 57/71/10
f 55/69/10 57/71/10 58/78/10
f 56/64/10 59/73/10 57/71/10
f 57/71/10 64/97/10 60/86/10 58/78/10
f 57/71/10 59/73/10 61/83/10 65/95/10
f 57/71/10 65/95/10 64/97/10
f 62/102/10 63/100/10 69/121/10 68/123/10
f 66/92/10 67/90/10 73/111/10 72/113/10
f 69/121/10 70/119/10 75/137/10 74/139/10
f 71/115/10 72/113/10 77/132/10 76/134/10
f 37/9/4 42/28/4 83/30/4 79/11/4
f 40/4/3 80/2/3 84/20/3 45/22/3
f 41/39/5 82/18/5 83/17/5 42/38/5
f 45/33/5 84/14/5 85/13/5 46/32/5
f 68/110/2 69/109/2 87/128/2 86/129/2
f 72/104/2 73/103/2 89/124/2 88/125/2
f 69/120/4 74/138/4 91/140/4 87/122/4
f 72/114/3 88/112/3 92/131/3 77/133/3
f 78/12/10 79/10/10 83/29/10 82/31/10
f 80/3/10 81/1/10 85/19/10 84/21/10
f 86/123/10 87/121/10 91/139/10 90/141/10
f 88/113/10 89/111/10 93/130/10 92/132/10
usemtl MaterialBottom
f 1/1/1 3/130/1 4/141/1 2/12/1
usemtl MaterialSide
f 1/1/2 2/130/2 6/96/2 5/46/2
f 1/130/3 11/96/3 25/46/3 3/1/3
f 2/1/4 4/130/4 30/96/4 16/46/4
f 3/130/5 35/96/5 36/46/5 4/1/5
f 1/1/2 5/46/2 38/47/2 37/25/2
f 2/130/2 40/117/2 39/97/2 6/96/2
f 1/130/3 41/117/3 47/97/3 11/96/3
f 2/1/4 16/46/4 52/47/4 46/25/4
f 3/1/3 25/46/3 62/47/3 68/25/3
f 4/130/4 73/117/4 67/97/4 30/96/4
f 3/130/5 74/117/5 75/97/5 35/96/5
f 4/1/5 36/46/5 76/47/5 77/25/5
f 1/1/2 37/25/2 79/27/2 78/8/2
f 2/130/2 81/137/2 80/119/2 40/117/2
f 1/130/3 78/137/3 82/119/3 41/117/3
f 2/1/4 46/25/4 85/27/4 81/8/4
f 3/1/3 68/25/3 86/27/3 90/8/3
f 4/130/4 93/137/4 89/119/4 73/117/4
f 3/130/5 90/137/5 91/119/5 74/117/5
f 4/1/5 77/25/5 92/27/5 93/8/5
