mtllib magmatic_smeltery.mtl
o Model
v 0.000000 0.000000 0.375000
v 0.000000 0.000000 0.625000
v 0.125000 0.000000 0.125000
v 0.125000 0.000000 0.375000
v 0.125000 0.000000 0.625000
v 0.125000 0.000000 0.875000
v 0.375000 0.000000 0.000000
v 0.375000 0.000000 0.125000
v 0.375000 0.000000 0.875000
v 0.375000 0.000000 1.000000
v 0.500000 0.000000 0.500000
v 0.625000 0.000000 0.000000
v 0.625000 0.000000 0.125000
v 0.625000 0.000000 0.875000
v 0.625000 0.000000 1.000000
v 0.875000 0.000000 0.125000
v 0.875000 0.000000 0.375000
v 0.875000 0.000000 0.625000
v 0.875000 0.000000 0.875000
v 1.000000 0.000000 0.375000
v 1.000000 0.000000 0.625000
v -0.062500 0.125000 -0.062500
v -0.062500 0.125000 0.125000
v -0.062500 0.125000 0.375000
v -0.062500 0.125000 0.625000
v -0.062500 0.125000 0.875000
v -0.062500 0.125000 1.062500
v 0.000000 0.125000 0.000000
v 0.000000 0.125000 0.125000
v 0.000000 0.125000 0.375000
v 0.000000 0.125000 0.625000
v 0.000000 0.125000 0.875000
v 0.000000 0.125000 1.000000
v 0.125000 0.125000 -0.062500
v 0.125000 0.125000 0.000000
v 0.125000 0.125000 0.125000
v 0.125000 0.125000 0.375000
v 0.125000 0.125000 0.625000
v 0.125000 0.125000 0.875000
v 0.125000 0.125000 1.000000
v 0.125000 0.125000 1.062500
v 0.375000 0.125000 -0.062500
v 0.375000 0.125000 0.000000
v 0.375000 0.125000 0.125000
v 0.375000 0.125000 0.875000
v 0.375000 0.125000 1.000000
v 0.375000 0.125000 1.062500
v 0.625000 0.125000 -0.062500
v 0.625000 0.125000 0.000000
v 0.625000 0.125000 0.125000
v 0.625000 0.125000 0.875000
v 0.625000 0.125000 1.000000
v 0.625000 0.125000 1.062500
v 0.875000 0.125000 -0.062500
v 0.875000 0.125000 0.000000
v 0.875000 0.125000 0.125000
v 0.875000 0.125000 0.375000
v 0.875000 0.125000 0.625000
v 0.875000 0.125000 0.875000
v 0.875000 0.125000 1.000000
v 0.875000 0.125000 1.062500
v 1.000000 0.125000 0.000000
v 1.000000 0.125000 0.125000
v 1.000000 0.125000 0.375000
v 1.000000 0.125000 0.625000
v 1.000000 0.125000 0.875000
v 1.000000 0.125000 1.000000
v 1.062500 0.125000 -0.062500
v 1.062500 0.125000 0.125000
v 1.062500 0.125000 0.375000
v 1.062500 0.125000 0.625000
v 1.062500 0.125000 0.875000
v 1.062500 0.125000 1.062500
v -0.125000 0.250000 0.125000
v -0.125000 0.250000 0.375000
v -0.125000 0.250000 0.625000
v -0.125000 0.250000 0.875000
v 0.125000 0.250000 -0.125000
v 0.125000 0.250000 1.125000
v 0.375000 0.250000 -0.125000
v 0.375000 0.250000 1.125000
v 0.625000 0.250000 -0.125000
v 0.625000 0.250000 1.125000
v 0.875000 0.250000 -0.125000
v 0.875000 0.250000 1.125000
v 1.125000 0.250000 0.125000
v 1.125000 0.250000 0.375000
v 1.125000 0.250000 0.625000
v 1.125000 0.250000 0.875000
v -0.125000 0.625000 0.125000
v -0.125000 0.625000 0.375000
v -0.125000 0.625000 0.625000
v -0.125000 0.625000 0.875000
v 0.125000 0.625000 -0.125000
v 0.125000 0.625000 1.125000
v 0.375000 0.625000 -0.125000
v 0.375000 0.625000 1.125000
v 0.625000 0.625000 -0.125000
v 0.625000 0.625000 1.125000
v 0.875000 0.625000 -0.125000
v 0.875000 0.625000 1.125000
v 1.125000 0.625000 0.125000
v 1.125000 0.625000 0.375000
v 1.125000 0.625000 0.625000
v 1.125000 0.625000 0.875000
v -0.062500 0.750000 -0.062500
v -0.062500 0.750000 0.125000
v -0.062500 0.750000 0.375000
v -0.062500 0.750000 0.625000
v -0.062500 0.750000 0.875000
v -0.062500 0.750000 1.062500
v 0.125000 0.750000 -0.062500
v 0.125000 0.750000 1.062500
v 0.375000 0.750000 -0.062500
v 0.375000 0.750000 1.062500
v 0.625000 0.750000 -0.062500
v 0.625000 0.750000 1.062500
v 0.875000 0.750000 -0.062500
v 0.875000 0.750000 1.062500
v 1.062500 0.750000 -0.062500
v 1.062500 0.750000 0.125000
v 1.062500 0.750000 0.375000
v 1.062500 0.750000 0.625000
v 1.062500 0.750000 0.875000
v 1.062500 0.750000 1.062500
v -0.062500 1.001000 -0.062500
v -0.062500 1.001000 0.125000
v -0.062500 1.001000 0.375000
v -0.062500 1.001000 0.625000
v -0.062500 1.001000 0.875000
v -0.062500 1.001000 1.062500
v 0.000000 1.001000 0.000000
v 0.000000 1.001000 0.125000
v 0.000000 1.001000 0.375000
v 0.000000 1.001000 0.625000
v 0.000000 1.001000 0.875000
v 0.000000 1.001000 1.000000
v 0.125000 1.001000 -0.062500
v 0.125000 1.001000 0.000000
v 0.125000 1.001000 1.000000
v 0.125000 1.001000 1.062500
v 0.375000 1.001000 -0.062500
v 0.375000 1.001000 0.000000
v 0.375000 1.001000 1.000000
v 0.375000 1.001000 1.062500
v 0.500000 1.001000 0.500000
v 0.625000 1.001000 -0.062500
v 0.625000 1.001000 0.000000
v 0.625000 1.001000 1.000000
v 0.625000 1.001000 1.062500
v 0.875000 1.001000 -0.062500
v 0.875000 1.001000 0.000000
v 0.875000 1.001000 1.000000
v 0.875000 1.001000 1.062500
v 1.000000 1.001000 0.000000
v 1.000000 1.001000 0.125000
v 1.000000 1.001000 0.375000
v 1.000000 1.001000 0.625000
v 1.000000 1.001000 0.875000
v 1.000000 1.001000 1.000000
v 1.062500 1.001000 -0.062500
v 1.062500 1.001000 0.125000
v 1.062500 1.001000 0.375000
v 1.062500 1.001000 0.625000
v 1.062500 1.001000 0.875000
v 1.062500 1.001000 1.062500
vn 0.0000 -1.0000 0.0000
vn -0.8944 -0.4472 0.0000
vn 0.0000 -0.4472 -0.8944
vn 0.0000 -0.4472 0.8944
vn 0.8944 -0.4472 0.0000
vn -1.0000 0.0000 0.0000
vn 0.0000 0.0000 -1.0000
vn 0.0000 0.0000 1.0000
vn 1.0000 0.0000 0.0000
vn -0.9487 0.0000 -0.3162
vn -0.9487 0.0000 0.3162
vn -0.3162 0.0000 -0.9487
vn -0.3162 0.0000 0.9487
vn 0.3162 0.0000 -0.9487
vn 0.3162 0.0000 0.9487
vn 0.9487 0.0000 -0.3162
vn 0.9487 0.0000 0.3162
vn -0.8944 0.0000 -0.4472
vn -0.8944 0.0000 0.4472
vn -0.4472 0.0000 -0.8944
vn -0.4472 0.0000 0.8944
vn 0.4472 0.0000 -0.8944
vn 0.4472 0.0000 0.8944
vn 0.8944 0.0000 -0.4472
vn 0.8944 0.0000 0.4472
vn -0.8944 0.4472 0.0000
vn 0.0000 0.4472 -0.8944
vn 0.0000 0.4472 0.8944
vn 0.8944 0.4472 0.0000
vn 0.0000 1.0000 0.0000
vt 0.000000 0.000000
vt 0.000000 0.125000
vt 0.000000 0.187500
vt 0.000000 0.375000
vt 0.000000 0.625000
vt 0.000000 0.750000
vt 0.000000 0.812500
vt 0.000000 0.875000
vt 0.000000 1.000000
vt 0.062500 0.062500
vt 0.062500 0.187500
vt 0.062500 0.250000
vt 0.062500 0.375000
vt 0.062500 0.625000
vt 0.062500 0.750000
vt 0.062500 0.812500
vt 0.062500 0.937500
vt 0.125000 0.000000
vt 0.125000 0.125000
vt 0.125000 0.375000
vt 0.125000 0.625000
vt 0.125000 0.750000
vt 0.125000 0.875000
vt 0.125000 1.000000
vt 0.187500 0.000000
vt 0.187500 0.062500
vt 0.187500 0.125000
vt 0.187500 0.250000
vt 0.187500 0.375000
vt 0.187500 0.625000
vt 0.187500 0.750000
vt 0.187500 0.937500
vt 0.187500 1.000000
vt 0.250000 0.062500
vt 0.250000 0.187500
vt 0.250000 0.812500
vt 0.250000 0.937500
vt 0.375000 0.000000
vt 0.375000 0.062500
vt 0.375000 0.125000
vt 0.375000 0.187500
vt 0.375000 0.250000
vt 0.375000 0.625000
vt 0.375000 0.750000
vt 0.375000 0.812500
vt 0.375000 0.875000
vt 0.375000 0.937500
vt 0.375000 1.000000
vt 0.437500 0.125000
vt 0.437500 0.250000
vt 0.437500 0.625000
vt 0.437500 0.750000
vt 0.437500 1.000000
vt 0.500000 0.500000
vt 0.562500 0.125000
vt 0.562500 0.250000
vt 0.562500 0.625000
vt 0.562500 0.750000
vt 0.562500 1.000000
vt 0.625000 0.000000
vt 0.625000 0.062500
vt 0.625000 0.125000
vt 0.625000 0.187500
vt 0.625000 0.250000
vt 0.625000 0.625000
vt 0.625000 0.750000
vt 0.625000 0.812500
vt 0.625000 0.875000
vt 0.625000 0.937500
vt 0.625000 1.000000
vt 0.750000 0.062500
vt 0.750000 0.187500
vt 0.750000 0.812500
vt 0.750000 0.937500
vt 0.812500 0.000000
vt 0.812500 0.062500
vt 0.812500 0.125000
vt 0.812500 0.250000
vt 0.812500 0.375000
vt 0.812500 0.625000
vt 0.812500 0.750000
vt 0.812500 0.937500
vt 0.812500 1.000000
vt 0.875000 0.000000
vt 0.875000 0.125000
vt 0.875000 0.375000
vt 0.875000 0.625000
vt 0.875000 0.750000
vt 0.875000 0.875000
vt 0.875000 1.000000
vt 0.937500 0.062500
vt 0.937500 0.187500
vt 0.937500 0.250000
vt 0.937500 0.375000
vt 0.937500 0.625000
vt 0.937500 0.750000
vt 0.937500 0.812500
vt 0.937500 0.937500
vt 1.000000 0.000000
vt 1.000000 0.125000
vt 1.000000 0.187500
vt 1.000000 0.375000
vt 1.000000 0.625000
vt 1.000000 0.750000
vt 1.000000 0.812500
vt 1.000000 0.875000
vt 1.000000 1.000000
usemtl MaterialTop
f 126/9/30 127/7/30 133/16/30 132/17/30
f 128/5/30 129/4/30 135/13/30 134/14/30
f 130/3/30 131/1/30 137/10/30 136/11/30
f 126/9/30 132/17/30 139/32/30 138/33/30
f 131/1/30 141/25/30 140/26/30 137/10/30
f 132/9/30 133/8/30 134/5/30 146/54/30
f 135/4/30 136/2/30 137/1/30 146/54/30
f 134/5/30 135/4/30 146/54/30
f 132/9/30 146/54/30 143/48/30 139/24/30
f 137/1/30 140/18/30 144/38/30 146/54/30
f 142/48/30 143/47/30 148/69/30 147/70/30
f 143/48/30 146/54/30 148/70/30
f 144/38/30 149/60/30 146/54/30
f 144/39/30 145/38/30 150/60/30 149/61/30
f 146/54/30 155/107/30 152/90/30 148/70/30
f 146/54/30 149/60/30 153/84/30 160/99/30
f 146/54/30 158/102/30 157/103/30
f 146/54/30 157/103/30 156/106/30 155/107/30
f 146/54/30 160/99/30 159/100/30 158/102/30
f 151/83/30 152/82/30 155/98/30 161/107/30
f 153/76/30 154/75/30 166/99/30 160/91/30
f 155/98/30 156/97/30 162/105/30 161/107/30
f 157/95/30 158/94/30 164/102/30 163/103/30
f 159/92/30 160/91/30 166/99/30 165/101/30
usemtl MaterialBottom
f 1/4/1 3/19/1 4/20/1
f 2/5/1 5/21/1 6/23/1
f 4/20/1 11/54/1 5/21/1
f 3/19/1 8/40/1 11/54/1 4/20/1
f 5/21/1 11/54/1 9/46/1 6/23/1
f 3/19/1 7/38/1 8/40/1
f 6/23/1 9/46/1 10/48/1
f 8/40/1 13/62/1 11/54/1
f 9/46/1 11/54/1 14/68/1
f 12/60/1 16/85/1 13/62/1
f 14/68/1 19/89/1 15/70/1
f 11/54/1 13/62/1 16/85/1 17/86/1
f 11/54/1 18/87/1 19/89/1 14/68/1
f 11/54/1 17/86/1 18/87/1
f 16/85/1 20/102/1 17/86/1
f 18/87/1 21/103/1 19/89/1
f 1/28/8 4/29/8 37/13/8 30/12/8
f 2/31/7 31/15/7 38/14/7 5/30/7
f 4/29/6 5/30/6 38/14/6 37/13/6
f 7/39/9 43/34/9 44/35/9 8/41/9
f 9/45/9 45/47/9 46/37/9 10/36/9
f 8/41/7 44/39/7 50/61/7 13/63/7
f 9/45/8 14/67/8 51/69/8 45/47/8
f 12/72/6 13/63/6 50/61/6 49/71/6
f 14/67/6 15/73/6 52/74/6 51/69/6
f 17/79/9 57/94/9 58/95/9 18/80/9
f 17/79/8 20/78/8 64/93/8 57/94/8
f 18/80/7 58/95/7 65/96/7 21/81/7
f 22/107/1 28/98/1 29/97/1 23/105/1
f 24/4/1 30/13/1 31/14/1 25/5/1
f 26/7/1 32/16/1 33/17/1 27/9/1
f 28/1/1 36/19/1 30/4/1 29/2/1
f 31/5/1 39/23/1 33/9/1 32/8/1
f 22/1/1 34/25/1 35/26/1 28/10/1
f 27/9/1 33/17/1 40/32/1 41/33/1
f 30/4/1 37/20/1 38/21/1 31/5/1
f 28/1/1 35/18/1 43/38/1 36/19/1
f 33/9/1 39/23/1 46/48/1 40/24/1
f 42/38/1 48/60/1 49/61/1 43/39/1
f 43/38/1 49/60/1 50/62/1 44/40/1
f 45/46/1 51/68/1 52/70/1 46/48/1
f 46/47/1 52/69/1 53/70/1 47/48/1
f 49/60/1 55/84/1 62/99/1 56/85/1
f 52/70/1 59/89/1 67/107/1 60/90/1
f 57/86/1 64/102/1 65/103/1 58/87/1
f 54/75/1 68/99/1 62/91/1 55/76/1
f 60/82/1 67/98/1 73/107/1 61/83/1
f 56/85/1 62/99/1 63/100/1 64/102/1
f 59/89/1 65/103/1 66/106/1 67/107/1
f 62/91/1 68/99/1 69/101/1 63/92/1
f 64/94/1 70/102/1 71/103/1 65/95/1
f 66/97/1 72/105/1 73/107/1 67/98/1
usemtl MaterialSide
f 1/38/18 30/40/18 36/19/18 3/18/18
f 2/60/19 6/84/19 39/85/19 31/62/19
f 3/84/20 36/85/20 43/62/20 7/60/20
f 6/18/21 10/38/21 46/40/21 39/19/21
f 12/38/22 49/40/22 56/19/22 16/18/22
f 15/60/23 19/84/23 59/85/23 52/62/23
f 16/84/24 56/85/24 64/62/24 20/60/24
f 19/18/25 21/38/25 65/40/25 59/19/25
f 22/49/2 23/62/2 74/64/2
f 26/40/2 27/55/2 77/42/2
f 22/55/3 78/42/3 34/40/3
f 27/49/4 41/62/4 79/64/4
f 54/62/3 84/64/3 68/49/3
f 61/40/4 73/55/4 85/42/4
f 68/55/5 86/42/5 69/40/5
f 72/62/5 89/64/5 73/49/5
f 24/40/2 25/62/2 76/64/2 75/42/2
f 42/62/3 80/64/3 82/42/3 48/40/3
f 47/40/4 53/62/4 83/64/4 81/42/4
f 70/62/5 87/64/5 88/42/5 71/40/5
f 75/42/6 76/64/6 92/65/6 91/43/6
f 22/49/10 74/64/10 90/65/10 106/52/10
f 23/19/8 107/22/8 90/14/8 74/12/8
f 24/40/7 75/50/7 91/51/7 108/44/7
f 25/62/8 109/66/8 92/57/8 76/56/8
f 26/85/7 77/93/7 93/95/7 110/88/7
f 27/55/11 111/58/11 93/43/11 77/42/11
f 22/55/12 106/58/12 94/43/12 78/42/12
f 27/49/13 79/64/13 95/65/13 111/52/13
f 34/85/9 78/93/9 94/95/9 112/88/9
f 41/19/9 113/22/9 95/14/9 79/12/9
f 42/62/6 114/66/6 96/57/6 80/56/6
f 47/40/6 81/50/6 97/51/6 115/44/6
f 80/64/7 96/65/7 98/43/7 82/42/7
f 81/42/8 83/64/8 99/65/8 97/43/8
f 48/40/9 82/50/9 98/51/9 116/44/9
f 53/62/9 117/66/9 99/57/9 83/56/9
f 54/19/6 118/22/6 100/14/6 84/12/6
f 61/85/6 85/93/6 101/95/6 119/88/6
f 68/49/14 84/64/14 100/65/14 120/52/14
f 73/55/15 125/58/15 101/43/15 85/42/15
f 68/55/16 120/58/16 102/43/16 86/42/16
f 69/85/8 86/93/8 102/95/8 121/88/8
f 70/62/7 122/66/7 103/57/7 87/56/7
f 71/40/8 88/50/8 104/51/8 123/44/8
f 72/19/7 124/22/7 105/14/7 89/12/7
f 73/49/17 89/64/17 105/65/17 125/52/17
f 87/64/9 103/65/9 104/43/9 88/42/9
f 23/19/8 29/27/8 133/33/8 107/22/8
f 24/49/7 108/52/7 134/48/7 30/40/7
f 25/55/8 31/62/8 135/70/8 109/58/8
f 26/85/7 110/88/7 136/83/7 32/77/7
f 34/85/9 112/88/9 139/83/9 35/77/9
f 40/27/9 140/33/9 113/22/9 41/19/9
f 42/55/6 43/62/6 143/70/6 114/58/6
f 46/40/6 47/49/6 115/52/6 144/48/6
f 48/49/9 116/52/9 148/48/9 49/40/9
f 52/62/9 149/70/9 117/58/9 53/55/9
f 54/19/6 55/27/6 152/33/6 118/22/6
f 60/77/6 61/85/6 119/88/6 153/83/6
f 63/77/8 69/85/8 121/88/8 156/83/8
f 64/62/7 157/70/7 122/58/7 70/55/7
f 65/40/8 71/49/8 123/52/8 158/48/8
f 66/27/7 159/33/7 124/22/7 72/19/7
f 29/19/6 30/40/6 134/48/6 133/24/6
f 31/62/6 32/85/6 136/90/6 135/70/6
f 35/85/7 139/90/7 143/70/7 43/62/7
f 40/19/8 46/40/8 144/48/8 140/24/8
f 49/40/7 148/48/7 152/24/7 55/19/7
f 52/62/8 60/85/8 153/90/8 149/70/8
f 63/85/9 156/90/9 157/70/9 64/62/9
f 65/40/9 158/48/9 159/24/9 66/19/9
f 91/43/26 92/65/26 109/66/26 108/44/26
f 96/65/27 114/66/27 116/44/27 98/43/27
f 97/43/28 99/65/28 117/66/28 115/44/28
f 103/65/29 122/66/29 123/44/29 104/43/29
f 90/65/26 107/66/26 106/52/26
f 93/43/26 111/58/26 110/44/26
f 94/43/27 106/58/27 112/44/27
f 95/65/28 113/66/28 111/52/28
f 100/65/27 118/66/27 120/52/27
f 101/43/28 125/58/28 119/44/28
f 102/43/29 120/58/29 121/44/29
f 105/65/29 124/66/29 125/52/29
f 106/6/6 107/31/6 127/33/6 126/9/6
f 108/44/6 109/66/6 129/70/6 128/48/6
f 110/81/6 111/104/6 131/107/6 130/83/6
f 106/104/7 126/107/7 138/83/7 112/81/7
f 111/6/8 113/31/8 141/33/8 131/9/8
f 114/66/7 142/70/7 147/48/7 116/44/7
f 115/44/8 117/66/8 150/70/8 145/48/8
f 118/31/7 151/33/7 161/9/7 120/6/7
f 119/81/8 125/104/8 166/107/8 154/83/8
f 120/104/9 161/107/9 162/83/9 121/81/9
f 122/66/9 163/70/9 164/48/9 123/44/9
f 124/31/9 165/33/9 166/9/9 125/6/9
f 107/22/8 133/33/8 127/24/8
f 108/52/7 128/53/7 134/48/7
f 109/58/8 135/70/8 129/59/8
f 110/88/7 130/90/7 136/83/7
f 112/88/9 138/90/9 139/83/9
f 113/22/9 140/33/9 141/24/9
f 114/58/6 143/70/6 142/59/6
f 115/52/6 145/53/6 144/48/6
f 116/52/9 147/53/9 148/48/9
f 117/58/9 149/70/9 150/59/9
f 118/22/6 152/33/6 151/24/6
f 119/88/6 154/90/6 153/83/6
f 121/88/8 162/90/8 156/83/8
f 122/58/7 157/70/7 163/59/7
f 123/52/8 164/53/8 158/48/8
f 124/22/7 159/33/7 165/24/7
