mtllib matrix_extractor.mtl
o Model
v 0.000000 0.000000 0.000000
v 0.000000 0.000000 1.000000
v 1.000000 0.000000 0.000000
v 1.000000 0.000000 1.000000
v 0.000000 0.250000 0.125000
v 0.000000 0.250000 0.250000
v 0.000000 0.250000 0.375000
v 0.000000 0.250000 0.625000
v 0.000000 0.250000 0.750000
v 0.000000 0.250000 0.875000
v 0.125000 0.250000 0.000000
v 0.125000 0.250000 0.125000
v 0.125000 0.250000 0.250000
v 0.125000 0.250000 0.375000
v 0.125000 0.250000 0.625000
v 0.125000 0.250000 0.750000
v 0.125000 0.250000 0.875000
v 0.125000 0.250000 1.000000
v 0.250000 0.250000 0.000000
v 0.250000 0.250000 0.125000
v 0.250000 0.250000 0.875000
v 0.250000 0.250000 1.000000
v 0.375000 0.250000 0.000000
v 0.375000 0.250000 0.125000
v 0.375000 0.250000 0.875000
v 0.375000 0.250000 1.000000
v 0.625000 0.250000 0.000000
v 0.625000 0.250000 0.125000
v 0.625000 0.250000 0.875000
v 0.625000 0.250000 1.000000
v 0.750000 0.250000 0.000000
v 0.750000 0.250000 0.125000
v 0.750000 0.250000 0.875000
v 0.750000 0.250000 1.000000
v 0.875000 0.250000 0.000000
v 0.875000 0.250000 0.125000
v 0.875000 0.250000 0.250000
v 0.875000 0.250000 0.375000
v 0.875000 0.250000 0.625000
v 0.875000 0.250000 0.750000
v 0.875000 0.250000 0.875000
v 0.875000 0.250000 1.000000
v 1.000000 0.250000 0.125000
v 1.000000 0.250000 0.250000
v 1.000000 0.250000 0.375000
v 1.000000 0.250000 0.625000
v 1.000000 0.250000 0.750000
v 1.000000 0.250000 0.875000
v 0.125000 0.312500 0.125000
v 0.125000 0.312500 0.250000
v 0.125000 0.312500 0.375000
v 0.125000 0.312500 0.625000
v 0.125000 0.312500 0.750000
v 0.125000 0.312500 0.875000
v 0.250000 0.312500 0.125000
v 0.250000 0.312500 0.250000
v 0.250000 0.312500 0.750000
v 0.250000 0.312500 0.875000
v 0.375000 0.312500 0.125000
v 0.375000 0.312500 0.875000
v 0.625000 0.312500 0.125000
v 0.625000 0.312500 0.875000
v 0.750000 0.312500 0.125000
v 0.750000 0.312500 0.250000
v 0.750000 0.312500 0.750000
v 0.750000 0.312500 0.875000
v 0.875000 0.312500 0.125000
v 0.875000 0.312500 0.250000
v 0.875000 0.312500 0.375000
v 0.875000 0.312500 0.625000
v 0.875000 0.312500 0.750000
v 0.875000 0.312500 0.875000
v 0.000000 0.375000 0.375000
v 0.000000 0.375000 0.625000
v 0.062500 0.375000 0.500000
v 0.125000 0.375000 0.250000
v 0.125000 0.375000 0.375000
v 0.125000 0.375000 0.625000
v 0.125000 0.375000 0.750000
v 0.187500 0.375000 0.437500
v 0.187500 0.375000 0.562500
v 0.250000 0.375000 0.125000
v 0.250000 0.375000 0.250000
v 0.250000 0.375000 0.500000
v 0.250000 0.375000 0.750000
v 0.250000 0.375000 0.875000
v 0.312500 0.375000 0.312500
v 0.312500 0.375000 0.687500
v 0.375000 0.375000 0.000000
v 0.375000 0.375000 0.125000
v 0.375000 0.375000 0.875000
v 0.375000 0.375000 1.000000
v 0.437500 0.375000 0.187500
v 0.437500 0.375000 0.812500
v 0.500000 0.375000 0.062500
v 0.500000 0.375000 0.250000
v 0.500000 0.375000 0.750000
v 0.500000 0.375000 0.937500
v 0.562500 0.375000 0.187500
v 0.562500 0.375000 0.812500
v 0.625000 0.375000 0.000000
v 0.625000 0.375000 0.125000
v 0.625000 0.375000 0.875000
v 0.625000 0.375000 1.000000
v 0.687500 0.375000 0.312500
v 0.687500 0.375000 0.687500
v 0.750000 0.375000 0.125000
v 0.750000 0.375000 0.250000
v 0.750000 0.375000 0.500000
v 0.750000 0.375000 0.750000
v 0.750000 0.375000 0.875000
v 0.812500 0.375000 0.437500
v 0.812500 0.375000 0.562500
v 0.875000 0.375000 0.250000
v 0.875000 0.375000 0.375000
v 0.875000 0.375000 0.625000
v 0.875000 0.375000 0.750000
v 0.937500 0.375000 0.500000
v 1.000000 0.375000 0.375000
v 1.000000 0.375000 0.625000
v 0.000000 0.437500 0.375000
v 0.000000 0.437500 0.625000
v 0.062500 0.437500 0.500000
v 0.125000 0.437500 0.250000
v 0.125000 0.437500 0.375000
v 0.125000 0.437500 0.625000
v 0.125000 0.437500 0.750000
v 0.187500 0.437500 0.437500
v 0.187500 0.437500 0.562500
v 0.250000 0.437500 0.125000
v 0.250000 0.437500 0.250000
v 0.250000 0.437500 0.750000
v 0.250000 0.437500 0.875000
v 0.375000 0.437500 0.000000
v 0.375000 0.437500 0.125000
v 0.375000 0.437500 0.875000
v 0.375000 0.437500 1.000000
v 0.437500 0.437500 0.187500
v 0.437500 0.437500 0.812500
v 0.500000 0.437500 0.062500
v 0.500000 0.437500 0.937500
v 0.562500 0.437500 0.187500
v 0.562500 0.437500 0.812500
v 0.625000 0.437500 0.000000
v 0.625000 0.437500 0.125000
v 0.625000 0.437500 0.875000
v 0.625000 0.437500 1.000000
v 0.750000 0.437500 0.125000
v 0.750000 0.437500 0.250000
v 0.750000 0.437500 0.750000
v 0.750000 0.437500 0.875000
v 0.812500 0.437500 0.437500
v 0.812500 0.437500 0.562500
v 0.875000 0.437500 0.250000
v 0.875000 0.437500 0.375000
v 0.875000 0.437500 0.625000
v 0.875000 0.437500 0.750000
v 0.937500 0.437500 0.500000
v 1.000000 0.437500 0.375000
v 1.000000 0.437500 0.625000
v 0.250000 0.500000 0.500000
v 0.312500 0.500000 0.312500
v 0.312500 0.500000 0.687500
v 0.500000 0.500000 0.250000
v 0.500000 0.500000 0.750000
v 0.500006 0.500000 0.499997
v 0.687500 0.500000 0.312500
v 0.687500 0.500000 0.687500
v 0.750000 0.500000 0.500000
v 0.000000 0.562500 0.375000
v 0.000000 0.562500 0.625000
v 0.125000 0.562500 0.375000
v 0.125000 0.562500 0.625000
v 0.250000 0.562500 0.375000
v 0.250000 0.562500 0.625000
v 0.375000 0.562500 0.000000
v 0.375000 0.562500 0.125000
v 0.375000 0.562500 0.250000
v 0.375000 0.562500 0.750000
v 0.375000 0.562500 0.875000
v 0.375000 0.562500 1.000000
v 0.625000 0.562500 0.000000
v 0.625000 0.562500 0.125000
v 0.625000 0.562500 0.250000
v 0.625000 0.562500 0.750000
v 0.625000 0.562500 0.875000
v 0.625000 0.562500 1.000000
v 0.750000 0.562500 0.375000
v 0.750000 0.562500 0.625000
v 0.875000 0.562500 0.375000
v 0.875000 0.562500 0.625000
v 1.000000 0.562500 0.375000
v 1.000000 0.562500 0.625000
v 0.000000 0.625000 0.500000
v 0.125000 0.625000 0.375000
v 0.125000 0.625000 0.625000
v 0.250000 0.625000 0.375000
v 0.250000 0.625000 0.500000
v 0.250000 0.625000 0.625000
v 0.375000 0.625000 0.125000
v 0.375000 0.625000 0.250000
v 0.375000 0.625000 0.750000
v 0.375000 0.625000 0.875000
v 0.500000 0.625000 0.000000
v 0.500000 0.625000 0.250000
v 0.500000 0.625000 0.750000
v 0.500000 0.625000 1.000000
v 0.625000 0.625000 0.125000
v 0.625000 0.625000 0.250000
v 0.625000 0.625000 0.750000
v 0.625000 0.625000 0.875000
v 0.750000 0.625000 0.375000
v 0.750000 0.625000 0.500000
v 0.750000 0.625000 0.625000
v 0.875000 0.625000 0.375000
v 0.875000 0.625000 0.625000
v 1.000000 0.625000 0.500000
v 0.000000 0.687500 0.437500
v 0.000000 0.687500 0.562500
v 0.125000 0.687500 0.437500
v 0.125000 0.687500 0.562500
v 0.250000 0.687500 0.437500
v 0.250000 0.687500 0.562500
v 0.437500 0.687500 0.000000
v 0.437500 0.687500 0.125000
v 0.437500 0.687500 0.250000
v 0.437500 0.687500 0.750000
v 0.437500 0.687500 0.875000
v 0.437500 0.687500 1.000000
v 0.562500 0.687500 0.000000
v 0.562500 0.687500 0.125000
v 0.562500 0.687500 0.250000
v 0.562500 0.687500 0.750000
v 0.562500 0.687500 0.875000
v 0.562500 0.687500 1.000000
v 0.750000 0.687500 0.437500
v 0.750000 0.687500 0.562500
v 0.875000 0.687500 0.437500
v 0.875000 0.687500 0.562500
v 1.000000 0.687500 0.437500
v 1.000000 0.687500 0.562500
v 0.000000 0.750000 0.125000
v 0.000000 0.750000 0.250000
v 0.000000 0.750000 0.750000
v 0.000000 0.750000 0.875000
v 0.125000 0.750000 0.000000
v 0.125000 0.750000 0.125000
v 0.125000 0.750000 0.250000
v 0.125000 0.750000 0.750000
v 0.125000 0.750000 0.875000
v 0.125000 0.750000 1.000000
v 0.250000 0.750000 0.000000
v 0.250000 0.750000 0.125000
v 0.250000 0.750000 0.875000
v 0.250000 0.750000 1.000000
v 0.750000 0.750000 0.000000
v 0.750000 0.750000 0.125000
v 0.750000 0.750000 0.875000
v 0.750000 0.750000 1.000000
v 0.875000 0.750000 0.000000
v 0.875000 0.750000 0.125000
v 0.875000 0.750000 0.250000
v 0.875000 0.750000 0.750000
v 0.875000 0.750000 0.875000
v 0.875000 0.750000 1.000000
v 1.000000 0.750000 0.125000
v 1.000000 0.750000 0.250000
v 1.000000 0.750000 0.750000
v 1.000000 0.750000 0.875000
v 0.000000 0.875000 0.000000
v 0.000000 0.875000 0.250000
v 0.000000 0.875000 0.750000
v 0.000000 0.875000 1.000000
v 0.125000 0.875000 0.125000
v 0.125000 0.875000 0.250000
v 0.125000 0.875000 0.750000
v 0.125000 0.875000 0.875000
v 0.250000 0.875000 0.000000
v 0.250000 0.875000 0.125000
v 0.250000 0.875000 0.875000
v 0.250000 0.875000 1.000000
v 0.750000 0.875000 0.000000
v 0.750000 0.875000 0.125000
v 0.750000 0.875000 0.875000
v 0.750000 0.875000 1.000000
v 0.875000 0.875000 0.125000
v 0.875000 0.875000 0.250000
v 0.875000 0.875000 0.750000
v 0.875000 0.875000 0.875000
v 1.000000 0.875000 0.000000
v 1.000000 0.875000 0.250000
v 1.000000 0.875000 0.750000
v 1.000000 0.875000 1.000000
vn 0.0000 -1.0000 0.0000
vn -1.0000 0.0000 0.0000
vn 0.0000 0.0000 -1.0000
vn 0.0000 0.0000 1.0000
vn 1.0000 0.0000 0.0000
vn -0.9487 0.0000 -0.3162
vn -0.9487 0.0000 0.3162
vn -0.3162 0.0000 -0.9487
vn -0.3162 0.0000 0.9487
vn 0.3162 0.0000 -0.9487
vn 0.3162 0.0000 0.9487
vn 0.9487 0.0000 -0.3162
vn 0.9487 0.0000 0.3162
vn -0.8944 0.0000 -0.4472
vn -0.8944 0.0000 0.4472
vn -0.4472 0.0000 -0.8944
vn -0.4472 0.0000 0.8944
vn 0.4472 0.0000 -0.8944
vn 0.4472 0.0000 0.8944
vn 0.8944 0.0000 -0.4472
vn 0.8944 0.0000 0.4472
vn -0.7071 0.7071 0.0000
vn 0.0000 0.7071 -0.7071
vn 0.0000 0.7071 0.7071
vn 0.7071 0.7071 0.0000
vn -0.3162 0.9487 0.0000
vn 0.0000 0.9487 -0.3162
vn 0.0000 0.9487 0.3162
vn 0.3162 0.9487 0.0000
vn 0.0000 1.0000 0.0000
vt 0.000000 0.000000
vt 0.000000 0.125000
vt 0.000000 0.250000
vt 0.000000 0.375000
vt 0.000000 0.437500
vt 0.000000 0.500000
vt 0.000000 0.562500
vt 0.000000 0.625000
vt 0.000000 0.750000
vt 0.000000 0.875000
vt 0.000000 1.000000
vt 0.062500 0.500000
vt 0.062500 0.562500
vt 0.125000 0.000000
vt 0.125000 0.125000
vt 0.125000 0.187500
vt 0.125000 0.250000
vt 0.125000 0.312500
vt 0.125000 0.375000
vt 0.125000 0.437500
vt 0.125000 0.562500
vt 0.125000 0.625000
vt 0.125000 0.687500
vt 0.125000 0.750000
vt 0.125000 0.812500
vt 0.125000 0.875000
vt 0.125000 1.000000
vt 0.187500 0.125000
vt 0.187500 0.250000
vt 0.187500 0.375000
vt 0.187500 0.437500
vt 0.187500 0.500000
vt 0.187500 0.562500
vt 0.187500 0.625000
vt 0.187500 0.750000
vt 0.187500 0.875000
vt 0.250000 0.000000
vt 0.250000 0.125000
vt 0.250000 0.187500
vt 0.250000 0.250000
vt 0.250000 0.312500
vt 0.250000 0.375000
vt 0.250000 0.437500
vt 0.250000 0.500000
vt 0.250000 0.562500
vt 0.250000 0.625000
vt 0.250000 0.687500
vt 0.250000 0.750000
vt 0.250000 0.812500
vt 0.250000 0.875000
vt 0.250000 1.000000
vt 0.312500 0.125000
vt 0.312500 0.250000
vt 0.312500 0.312500
vt 0.312500 0.375000
vt 0.312500 0.625000
vt 0.312500 0.687500
vt 0.312500 0.750000
vt 0.312500 0.875000
vt 0.375000 0.000000
vt 0.375000 0.125000
vt 0.375000 0.187500
vt 0.375000 0.250000
vt 0.375000 0.312500
vt 0.375000 0.375000
vt 0.375000 0.437500
vt 0.375000 0.500000
vt 0.375000 0.562500
vt 0.375000 0.625000
vt 0.375000 0.687500
vt 0.375000 0.750000
vt 0.375000 0.812500
vt 0.375000 0.875000
vt 0.375000 1.000000
vt 0.437500 0.000000
vt 0.437500 0.062500
vt 0.437500 0.125000
vt 0.437500 0.187500
vt 0.437500 0.250000
vt 0.437500 0.687500
vt 0.437500 0.750000
vt 0.437500 0.812500
vt 0.437500 0.875000
vt 0.437500 0.937500
vt 0.437500 1.000000
vt 0.468750 0.750000
vt 0.500000 0.000000
vt 0.500000 0.062500
vt 0.500000 0.187500
vt 0.500000 0.250000
vt 0.500000 0.375000
vt 0.500000 0.625000
vt 0.500000 0.687500
vt 0.500000 0.750000
vt 0.500000 0.812500
vt 0.500000 0.937500
vt 0.500000 1.000000
vt 0.500006 0.500003
vt 0.562500 0.000000
vt 0.562500 0.062500
vt 0.562500 0.125000
vt 0.562500 0.187500
vt 0.562500 0.250000
vt 0.562500 0.687500
vt 0.562500 0.750000
vt 0.562500 0.812500
vt 0.562500 0.875000
vt 0.562500 0.937500
vt 0.562500 1.000000
vt 0.625000 0.000000
vt 0.625000 0.125000
vt 0.625000 0.187500
vt 0.625000 0.250000
vt 0.625000 0.312500
vt 0.625000 0.375000
vt 0.625000 0.437500
vt 0.625000 0.500000
vt 0.625000 0.562500
vt 0.625000 0.625000
vt 0.625000 0.687500
vt 0.625000 0.750000
vt 0.625000 0.812500
vt 0.625000 0.875000
vt 0.625000 1.000000
vt 0.687500 0.125000
vt 0.687500 0.250000
vt 0.687500 0.312500
vt 0.687500 0.375000
vt 0.687500 0.625000
vt 0.687500 0.687500
vt 0.687500 0.750000
vt 0.687500 0.875000
vt 0.750000 0.000000
vt 0.750000 0.125000
vt 0.750000 0.187500
vt 0.750000 0.250000
vt 0.750000 0.312500
vt 0.750000 0.375000
vt 0.750000 0.437500
vt 0.750000 0.500000
vt 0.750000 0.562500
vt 0.750000 0.625000
vt 0.750000 0.687500
vt 0.750000 0.750000
vt 0.750000 0.812500
vt 0.750000 0.875000
vt 0.750000 1.000000
vt 0.812500 0.125000
vt 0.812500 0.250000
vt 0.812500 0.375000
vt 0.812500 0.437500
vt 0.812500 0.500000
vt 0.812500 0.562500
vt 0.812500 0.625000
vt 0.812500 0.750000
vt 0.812500 0.875000
vt 0.875000 0.000000
vt 0.875000 0.125000
vt 0.875000 0.187500
vt 0.875000 0.250000
vt 0.875000 0.312500
vt 0.875000 0.375000
vt 0.875000 0.437500
vt 0.875000 0.562500
vt 0.875000 0.625000
vt 0.875000 0.687500
vt 0.875000 0.750000
vt 0.875000 0.812500
vt 0.875000 0.875000
vt 0.875000 1.000000
vt 0.937500 0.437500
vt 0.937500 0.500000
vt 0.937500 0.562500
vt 1.000000 0.000000
vt 1.000000 0.125000
vt 1.000000 0.250000
vt 1.000000 0.375000
vt 1.000000 0.437500
vt 1.000000 0.500000
vt 1.000000 0.562500
vt 1.000000 0.625000
vt 1.000000 0.750000
vt 1.000000 0.875000
vt 1.000000 1.000000
usemtl MaterialTop
f 1/11/1 3/184/1 4/174/1 2/1/1
f 5/10/30 6/9/30 13/24/30 12/26/30
f 7/8/30 8/4/30 15/19/30 14/22/30
f 9/3/30 10/2/30 17/15/30 16/17/30
f 11/27/30 12/26/30 20/50/30 19/51/30
f 17/15/30 18/14/30 22/37/30 21/38/30
f 23/74/30 24/73/30 28/123/30 27/124/30
f 25/61/30 26/60/30 30/110/30 29/111/30
f 31/147/30 32/146/30 36/169/30 35/170/30
f 33/134/30 34/133/30 42/157/30 41/158/30
f 36/169/30 37/167/30 44/182/30 43/183/30
f 38/165/30 39/162/30 46/177/30 45/181/30
f 40/160/30 41/158/30 48/175/30 47/176/30
f 12/26/2 13/24/2 50/35/2 49/36/2
f 14/22/2 15/19/2 52/30/2 51/34/2
f 16/17/2 17/15/2 54/28/2 53/29/2
f 12/26/3 49/25/3 55/49/3 20/50/3
f 17/15/4 21/38/4 58/39/4 54/16/4
f 24/73/3 59/72/3 61/122/3 28/123/3
f 25/61/4 29/111/4 62/112/4 60/62/4
f 32/146/3 63/145/3 67/168/3 36/169/3
f 33/134/4 41/158/4 72/159/4 66/135/4
f 36/169/5 67/156/5 68/155/5 37/167/5
f 38/165/5 69/154/5 70/150/5 39/162/5
f 40/160/5 71/149/5 72/148/5 41/158/5
f 49/26/30 50/24/30 51/22/30 56/48/30
f 52/19/30 53/17/30 54/15/30 57/40/30
f 51/22/30 52/19/30 57/40/30 56/48/30
f 49/26/30 56/48/30 59/73/30 55/50/30
f 54/15/30 58/38/30 60/61/30 57/40/30
f 56/48/30 64/144/30 61/123/30 59/73/30
f 57/40/30 60/61/30 62/111/30 65/136/30
f 61/123/30 64/144/30 67/169/30 63/146/30
f 62/111/30 66/134/30 72/158/30 65/136/30
f 64/144/30 65/136/30 70/162/30 69/165/30
f 64/144/30 69/165/30 68/167/30 67/169/30
f 65/136/30 72/158/30 71/160/30 70/162/30
f 56/35/2 57/29/2 84/44/2
f 56/49/3 96/94/3 64/145/3
f 57/39/4 65/135/4 97/90/4
f 64/155/5 109/140/5 65/149/5
f 56/35/2 84/44/2 83/48/2
f 57/29/2 85/40/2 84/44/2
f 56/49/3 83/48/3 96/94/3
f 57/39/4 97/90/4 85/40/4
f 64/145/3 96/94/3 108/144/3
f 65/135/4 110/136/4 97/90/4
f 64/155/5 108/144/5 109/140/5
f 65/149/5 109/140/5 110/136/5
f 73/8/1 75/12/1 74/4/1
f 73/8/1 77/22/1 80/33/1 75/12/1
f 74/4/1 75/12/1 81/31/1 78/19/1
f 76/24/1 83/48/1 80/33/1 77/22/1
f 78/19/1 81/31/1 85/40/1 79/17/1
f 83/48/30 84/44/30 87/57/30
f 84/44/30 85/40/30 88/54/30
f 82/50/1 90/73/1 93/82/1 83/48/1
f 85/40/1 94/78/1 91/61/1 86/38/1
f 83/48/30 87/57/30 96/94/30
f 85/40/30 97/90/30 88/54/30
f 89/74/1 95/96/1 93/82/1 90/73/1
f 91/61/1 94/78/1 98/88/1 92/60/1
f 89/74/1 101/124/1 95/96/1
f 92/60/1 98/88/1 104/110/1
f 95/96/1 101/124/1 102/123/1 99/106/1
f 98/88/1 100/102/1 103/111/1 104/110/1
f 96/94/30 105/130/30 108/144/30
f 97/90/30 110/136/30 106/127/30
f 99/106/1 102/123/1 107/146/1 108/144/1
f 100/102/1 110/136/1 111/134/1 103/111/1
f 105/130/30 109/140/30 108/144/30
f 106/127/30 110/136/30 109/140/30
f 108/144/1 114/167/1 115/165/1 112/153/1
f 110/136/1 113/151/1 116/162/1 117/160/1
f 112/153/1 115/165/1 119/181/1 118/172/1
f 113/151/1 118/172/1 120/177/1 116/162/1
f 118/172/1 119/181/1 120/177/1
f 75/12/19 80/32/19 128/33/19 123/13/19
f 75/13/18 123/12/18 129/32/18 81/33/18
f 76/24/3 124/23/3 131/47/3 83/48/3
f 79/17/4 85/40/4 132/41/4 127/18/4
f 80/45/13 83/48/13 131/35/13 128/33/13
f 81/43/12 129/31/12 132/29/12 85/40/12
f 82/50/2 83/48/2 131/58/2 130/59/2
f 85/40/2 86/38/2 133/52/2 132/53/2
f 83/48/11 93/81/11 138/82/11 131/49/11
f 85/39/10 132/40/10 139/79/10 94/78/10
f 93/95/21 95/96/21 140/84/21 138/82/21
f 94/89/20 139/78/20 141/76/20 98/88/20
f 95/96/15 99/95/15 142/106/15 140/108/15
f 98/88/14 141/100/14 143/102/14 100/89/14
f 99/105/9 108/144/9 149/145/9 142/106/9
f 100/102/8 143/103/8 150/136/8 110/135/8
f 107/146/5 148/132/5 149/131/5 108/144/5
f 110/136/5 150/126/5 151/125/5 111/134/5
f 108/155/7 112/153/7 152/141/7 149/144/7
f 110/149/6 150/136/6 153/139/6 113/151/6
f 108/144/3 149/143/3 154/166/3 114/167/3
f 110/136/4 117/160/4 157/161/4 150/137/4
f 112/152/17 118/172/17 158/173/17 152/153/17
f 113/152/16 153/151/16 158/171/16 118/172/16
f 121/8/30 122/4/30 123/12/30
f 121/8/30 123/12/30 128/33/30 125/22/30
f 122/4/30 126/19/30 129/31/30 123/12/30
f 124/24/30 125/22/30 128/33/30 131/48/30
f 126/19/30 127/17/30 132/40/30 129/31/30
f 84/44/6 161/67/6 162/70/6 87/47/6
f 84/44/7 88/41/7 163/64/7 161/67/7
f 130/50/30 131/48/30 138/82/30 135/73/30
f 132/40/30 133/38/30 136/61/30 139/78/30
f 87/58/8 162/56/8 164/92/8 96/94/8
f 88/53/9 97/90/9 165/91/9 163/55/9
f 134/74/30 135/73/30 138/82/30 140/96/30
f 136/61/30 137/60/30 141/88/30 139/78/30
f 134/74/30 140/96/30 144/124/30
f 137/60/30 147/110/30 141/88/30
f 140/96/30 142/106/30 145/123/30 144/124/30
f 141/88/30 147/110/30 146/111/30 143/102/30
f 96/94/10 164/92/10 167/129/10 105/131/10
f 97/90/11 106/126/11 168/128/11 165/91/11
f 142/106/30 149/144/30 148/146/30 145/123/30
f 143/102/30 146/111/30 151/134/30 150/136/30
f 105/143/12 167/120/12 169/117/12 109/140/12
f 106/137/13 109/140/13 169/117/13 168/114/13
f 149/144/30 152/153/30 155/165/30 154/167/30
f 150/136/30 157/160/30 156/162/30 153/151/30
f 152/153/30 158/172/30 159/181/30 155/165/30
f 153/151/30 156/162/30 160/177/30 158/172/30
f 158/86/30 160/93/30 159/95/30
f 161/44/30 166/98/30 164/94/30 162/57/30
f 161/44/30 163/54/30 165/90/30 166/98/30
f 164/94/30 166/98/30 169/140/30 167/130/30
f 165/90/30 168/127/30 169/140/30 166/98/30
f 170/8/1 172/22/1 173/19/1 171/4/1
f 172/22/1 174/46/1 175/42/1 173/19/1
f 176/74/1 182/124/1 183/123/1 177/73/1
f 177/73/1 183/123/1 184/121/1 178/71/1
f 179/63/1 185/113/1 186/111/1 180/61/1
f 180/61/1 186/111/1 187/110/1 181/60/1
f 188/142/1 190/165/1 191/162/1 189/138/1
f 190/165/1 192/181/1 193/177/1 191/162/1
f 174/56/5 198/44/5 175/55/5
f 178/70/4 184/120/4 205/94/4
f 179/64/3 206/90/3 185/114/3
f 188/129/2 189/128/2 213/140/2
f 172/22/3 195/21/3 197/45/3 174/46/3
f 173/19/4 175/42/4 199/43/4 196/20/4
f 177/73/2 178/71/2 201/81/2 200/83/2
f 179/63/2 180/61/2 203/77/2 202/79/2
f 183/123/5 208/107/5 209/105/5 184/121/5
f 185/113/5 210/103/5 211/101/5 186/111/5
f 188/142/3 212/141/3 215/164/3 190/165/3
f 189/138/4 191/162/4 216/163/4 214/139/4
f 174/56/5 197/46/5 222/33/5 198/44/5
f 175/55/5 198/44/5 223/31/5 199/42/5
f 178/70/4 205/94/4 226/82/4 201/71/4
f 179/64/3 202/63/3 227/78/3 206/90/3
f 184/120/4 209/121/4 232/106/4 205/94/4
f 185/114/3 206/90/3 233/102/3 210/113/3
f 188/129/2 213/140/2 236/153/2 212/142/2
f 189/128/2 214/138/2 237/151/2 213/140/2
f 194/6/24 198/44/24 220/21/24 218/7/24
f 194/6/23 219/5/23 221/20/23 198/44/23
f 195/22/23 220/21/23 222/45/23 197/46/23
f 196/19/24 199/42/24 223/43/24 221/20/24
f 200/73/22 201/71/22 226/81/22 225/83/22
f 202/63/22 203/61/22 228/77/22 227/79/22
f 204/97/25 224/85/25 225/83/25 205/94/25
f 206/90/25 228/77/25 229/75/25 207/87/25
f 204/97/22 205/94/22 231/107/22 230/109/22
f 206/90/22 207/87/22 235/99/22 234/101/22
f 208/123/25 231/107/25 232/105/25 209/121/25
f 210/113/25 233/103/25 234/101/25 211/111/25
f 212/142/23 236/141/23 238/164/23 215/165/23
f 214/138/24 216/162/24 239/163/24 237/139/24
f 213/140/24 217/179/24 240/180/24 238/164/24
f 213/140/23 239/163/23 241/178/23 217/179/23
f 198/44/24 222/45/24 220/21/24
f 198/44/23 221/20/23 223/43/23
f 205/94/25 225/83/25 226/81/25
f 206/90/25 227/79/25 228/77/25
f 205/94/22 232/105/22 231/107/22
f 206/90/22 234/101/22 233/103/22
f 213/140/24 238/164/24 236/141/24
f 213/140/23 237/139/23 239/163/23
f 218/7/28 220/21/28 248/24/28 243/9/28
f 219/5/27 244/3/27 249/17/27 221/20/27
f 224/85/29 252/51/29 253/50/29 225/83/29
f 228/77/29 254/38/29 255/37/29 229/75/29
f 230/109/26 231/107/26 257/146/26 256/147/26
f 234/101/26 235/99/26 259/133/26 258/134/26
f 238/164/28 240/180/28 267/182/28 262/167/28
f 239/163/27 263/160/27 268/176/27 241/178/27
f 242/10/1 247/26/1 248/24/1 243/9/1
f 244/3/1 249/17/1 250/15/1 245/2/1
f 246/27/1 252/51/1 253/50/1 247/26/1
f 250/15/1 254/38/1 255/37/1 251/14/1
f 256/147/1 260/170/1 261/169/1 257/146/1
f 258/134/1 264/158/1 265/157/1 259/133/1
f 261/169/1 266/183/1 267/182/1 262/167/1
f 263/160/1 268/176/1 269/175/1 264/158/1
f 270/11/30 271/9/30 275/24/30 274/26/30
f 272/3/30 273/1/30 277/15/30 276/17/30
f 270/11/30 274/26/30 279/50/30 278/51/30
f 273/1/30 281/37/30 280/38/30 277/15/30
f 282/147/30 283/146/30 286/169/30 290/184/30
f 284/134/30 285/133/30 293/174/30 289/158/30
f 286/169/30 287/167/30 291/182/30 290/184/30
f 288/160/30 289/158/30 293/174/30 292/176/30
usemtl MaterialSide
f 1/1/2 2/174/2 8/113/2 7/63/2
f 1/174/3 23/113/3 27/63/3 3/1/3
f 2/1/4 4/174/4 30/113/4 26/63/4
f 3/174/5 45/113/5 46/63/5 4/1/5
f 1/1/2 7/63/2 6/40/2 5/17/2
f 2/174/2 10/160/2 9/136/2 8/113/2
f 1/174/3 11/160/3 19/136/3 23/113/3
f 2/1/4 26/63/4 22/40/4 18/17/4
f 3/1/3 27/63/3 31/40/3 35/17/3
f 4/174/4 42/160/4 34/136/4 30/113/4
f 3/174/5 43/160/5 44/136/5 45/113/5
f 4/1/5 46/63/5 47/40/5 48/17/5
f 5/3/4 12/17/4 49/18/4
f 6/176/3 50/161/3 13/160/3
f 7/3/4 14/17/4 51/18/4
f 8/176/3 52/161/3 15/160/3
f 9/3/4 16/17/4 53/18/4
f 10/176/3 54/161/3 17/160/3
f 11/176/5 49/161/5 12/160/5
f 17/17/5 54/18/5 18/3/5
f 19/3/2 20/17/2 55/18/2
f 21/160/2 22/176/2 58/161/2
f 23/176/5 59/161/5 24/160/5
f 25/17/5 60/18/5 26/3/5
f 27/3/2 28/17/2 61/18/2
f 29/160/2 30/176/2 62/161/2
f 31/176/5 63/161/5 32/160/5
f 33/17/5 66/18/5 34/3/5
f 35/3/2 36/17/2 67/18/2
f 41/160/2 42/176/2 72/161/2
f 36/160/4 43/176/4 67/161/4
f 37/17/3 68/18/3 44/3/3
f 38/160/4 45/176/4 69/161/4
f 39/17/3 70/18/3 46/3/3
f 40/160/4 47/176/4 71/161/4
f 41/17/3 72/18/3 48/3/3
f 6/40/2 7/63/2 73/65/2 121/66/2
f 8/113/2 9/136/2 122/116/2 74/115/2
f 7/3/4 51/18/4 77/19/4 73/4/4
f 8/176/3 74/177/3 78/162/3 52/161/3
f 19/136/3 134/116/3 89/115/3 23/113/3
f 22/40/4 26/63/4 92/65/4 137/66/4
f 23/176/5 89/177/5 90/162/5 59/161/5
f 26/3/5 60/18/5 91/19/5 92/4/5
f 27/3/2 61/18/2 102/19/2 101/4/2
f 30/176/2 104/177/2 103/162/2 62/161/2
f 27/63/3 101/65/3 144/66/3 31/40/3
f 30/113/4 34/136/4 147/116/4 104/115/4
f 45/176/4 119/177/4 115/162/4 69/161/4
f 46/3/3 70/18/3 116/19/3 120/4/3
f 44/136/5 159/116/5 119/115/5 45/113/5
f 46/63/5 120/65/5 160/66/5 47/40/5
f 6/176/3 124/163/3 76/162/3 50/161/3
f 9/3/4 53/18/4 79/19/4 127/20/4
f 50/136/5 76/137/5 77/114/5 51/113/5
f 52/63/5 78/64/5 79/41/5 53/40/5
f 19/3/2 55/18/2 82/19/2 130/20/2
f 22/176/2 133/163/2 86/162/2 58/161/2
f 55/40/4 59/63/4 90/64/4 82/41/4
f 58/136/3 86/137/3 91/114/3 60/113/3
f 61/113/4 63/136/4 107/137/4 102/114/4
f 62/63/3 103/64/3 111/41/3 66/40/3
f 31/176/5 148/163/5 107/162/5 63/161/5
f 34/3/5 66/18/5 111/19/5 151/20/5
f 68/40/2 69/63/2 115/64/2 114/41/2
f 70/113/2 71/136/2 117/137/2 116/114/2
f 44/3/3 68/18/3 114/19/3 154/20/3
f 47/176/4 157/163/4 117/162/4 71/161/4
f 73/115/2 74/65/2 122/66/2 121/116/2
f 89/65/3 134/66/3 144/116/3 101/115/3
f 92/65/4 104/115/4 147/116/4 137/66/4
f 119/115/5 159/116/5 160/66/5 120/65/5
f 1/1/2 5/17/2 242/24/2 270/10/2
f 2/174/2 273/183/2 245/167/2 10/160/2
f 1/174/3 270/183/3 246/167/3 11/160/3
f 2/1/4 18/17/4 251/24/4 273/10/4
f 3/1/3 35/17/3 260/24/3 290/10/3
f 4/174/4 293/183/4 265/167/4 42/160/4
f 3/174/5 290/183/5 266/167/5 43/160/5
f 4/1/5 48/17/5 269/24/5 293/10/5
f 6/40/2 121/66/2 170/68/2 243/48/2
f 9/136/2 244/144/2 171/118/2 122/116/2
f 121/5/4 125/20/4 172/21/4 170/7/4
f 122/178/3 171/180/3 173/164/3 126/163/3
f 126/66/5 196/69/5 127/43/5
f 19/136/3 252/144/3 176/118/3 134/116/3
f 22/40/4 137/66/4 181/68/4 255/48/4
f 130/43/4 135/66/4 200/69/4
f 133/139/3 203/119/3 136/116/3
f 134/178/5 176/180/5 177/164/5 135/163/5
f 136/20/5 180/21/5 181/7/5 137/5/5
f 144/5/2 145/20/2 183/21/2 182/7/2
f 146/163/2 147/178/2 187/180/2 186/164/2
f 145/116/4 148/139/4 208/119/4
f 146/66/3 211/69/3 151/43/3
f 31/40/3 144/66/3 182/68/3 256/48/3
f 34/136/4 259/144/4 187/118/4 147/116/4
f 155/163/4 159/178/4 192/180/4 190/164/4
f 156/20/3 191/21/3 193/7/3 160/5/3
f 44/136/5 267/144/5 192/118/5 159/116/5
f 47/40/5 160/66/5 193/68/5 268/48/5
f 5/3/4 49/18/4 247/24/4 242/9/4
f 10/176/3 245/182/3 250/167/3 54/161/3
f 11/176/5 246/182/5 247/167/5 49/161/5
f 124/139/5 195/119/5 172/118/5 125/116/5
f 18/3/5 54/18/5 250/24/5 251/9/5
f 35/3/2 67/18/2 261/24/2 260/9/2
f 154/43/2 155/66/2 190/68/2 215/69/2
f 156/116/2 157/139/2 216/119/2 191/118/2
f 42/176/2 265/182/2 264/167/2 72/161/2
f 43/176/4 266/182/4 261/167/4 67/161/4
f 48/3/3 72/18/3 264/24/3 269/9/3
f 146/22/4 186/22/4 211/22/4
f 6/176/3 243/182/3 248/167/3 124/163/3
f 9/3/4 127/20/4 249/24/4 244/9/4
f 19/3/2 130/20/2 253/24/2 252/9/2
f 22/176/2 255/182/2 254/167/2 133/163/2
f 31/176/5 256/182/5 257/167/5 148/163/5
f 34/3/5 151/20/5 258/24/5 259/9/5
f 44/3/3 154/20/3 262/24/3 267/9/3
f 47/176/4 268/182/4 263/167/4 157/163/4
f 170/68/2 171/118/2 194/92/2
f 176/118/3 204/92/3 182/68/3
f 181/68/4 187/118/4 207/92/4
f 192/118/5 217/92/5 193/68/5
f 124/139/5 248/144/5 220/104/5 195/119/5
f 127/43/5 196/69/5 221/80/5 249/48/5
f 130/43/4 200/69/4 225/80/4 253/48/4
f 133/139/3 254/144/3 228/104/3 203/119/3
f 148/139/4 257/144/4 231/104/4 208/119/4
f 151/43/3 211/69/3 234/80/3 258/48/3
f 154/43/2 215/69/2 238/80/2 262/48/2
f 157/139/2 263/144/2 239/104/2 216/119/2
f 170/68/2 194/92/2 218/80/2 243/48/2
f 171/118/2 244/144/2 219/104/2 194/92/2
f 176/118/3 252/144/3 224/104/3 204/92/3
f 181/68/4 207/92/4 229/80/4 255/48/4
f 182/68/3 204/92/3 230/80/3 256/48/3
f 187/118/4 259/144/4 235/104/4 207/92/4
f 192/118/5 267/144/5 240/104/5 217/92/5
f 193/68/5 217/92/5 241/80/5 268/48/5
f 242/24/2 243/48/2 271/50/2 270/10/2
f 244/144/2 245/167/2 273/183/2 272/146/2
f 243/9/4 248/24/4 275/26/4 271/10/4
f 244/182/3 272/183/3 276/169/3 249/167/3
f 247/167/5 274/169/5 275/146/5 248/144/5
f 249/48/5 276/50/5 277/26/5 250/24/5
f 246/167/3 270/183/3 278/146/3 252/144/3
f 251/24/4 255/48/4 281/50/4 273/10/4
f 247/24/4 253/48/4 279/50/4 274/26/4
f 250/167/3 277/169/3 280/146/3 254/144/3
f 252/182/5 278/183/5 279/169/5 253/167/5
f 254/24/5 280/26/5 281/10/5 255/9/5
f 256/9/2 257/24/2 283/26/2 282/10/2
f 258/167/2 259/182/2 285/183/2 284/169/2
f 257/144/4 261/167/4 286/169/4 283/146/4
f 258/48/3 284/50/3 289/26/3 264/24/3
f 256/48/3 282/50/3 290/10/3 260/24/3
f 259/144/4 265/167/4 293/183/4 285/146/4
f 261/24/2 262/48/2 287/50/2 286/26/2
f 263/144/2 264/167/2 289/169/2 288/146/2
f 262/167/4 267/182/4 291/183/4 287/169/4
f 263/24/3 288/26/3 292/10/3 268/9/3
f 266/167/5 290/183/5 291/146/5 267/144/5
f 268/48/5 292/50/5 293/10/5 269/24/5
