mtllib mithriline_furnace.mtl
o Model
v 0.000000 0.000000 0.000000
v 0.000000 0.000000 1.000000
v 0.125000 0.000000 0.125000
v 0.125000 0.000000 0.875000
v 0.875000 0.000000 0.125000
v 0.875000 0.000000 0.875000
v 1.000000 0.000000 0.000000
v 1.000000 0.000000 1.000000
v 0.125000 0.062500 0.125000
v 0.125000 0.062500 0.875000
v 0.875000 0.062500 0.125000
v 0.875000 0.062500 0.875000
v 0.000000 0.125000 0.125000
v 0.000000 0.125000 0.875000
v 0.125000 0.125000 0.000000
v 0.125000 0.125000 0.125000
v 0.125000 0.125000 0.875000
v 0.125000 0.125000 1.000000
v 0.875000 0.125000 0.000000
v 0.875000 0.125000 0.125000
v 0.875000 0.125000 0.875000
v 0.875000 0.125000 1.000000
v 1.000000 0.125000 0.125000
v 1.000000 0.125000 0.875000
v 0.000000 0.250000 0.125000
v 0.000000 0.250000 0.875000
v 0.125000 0.250000 0.000000
v 0.125000 0.250000 0.125000
v 0.125000 0.250000 0.875000
v 0.125000 0.250000 1.000000
v 0.875000 0.250000 0.000000
v 0.875000 0.250000 0.125000
v 0.875000 0.250000 0.875000
v 0.875000 0.250000 1.000000
v 1.000000 0.250000 0.125000
v 1.000000 0.250000 0.875000
v 0.000000 0.375000 0.500000
v 0.125000 0.375000 0.500000
v 0.500000 0.375000 0.000000
v 0.500000 0.375000 0.125000
v 0.500000 0.375000 0.875000
v 0.500000 0.375000 1.000000
v 0.875000 0.375000 0.500000
v 1.000000 0.375000 0.500000
v 0.000000 0.625000 0.500000
v 0.125000 0.625000 0.500000
v 0.500000 0.625000 0.000000
v 0.500000 0.625000 0.125000
v 0.500000 0.625000 0.875000
v 0.500000 0.625000 1.000000
v 0.875000 0.625000 0.500000
v 1.000000 0.625000 0.500000
v 0.000000 0.750000 0.125000
v 0.000000 0.750000 0.875000
v 0.125000 0.750000 0.000000
v 0.125000 0.750000 0.125000
v 0.125000 0.750000 0.875000
v 0.125000 0.750000 1.000000
v 0.875000 0.750000 0.000000
v 0.875000 0.750000 0.125000
v 0.875000 0.750000 0.875000
v 0.875000 0.750000 1.000000
v 1.000000 0.750000 0.125000
v 1.000000 0.750000 0.875000
v 0.000000 0.875000 0.125000
v 0.000000 0.875000 0.875000
v 0.125000 0.875000 0.000000
v 0.125000 0.875000 0.125000
v 0.125000 0.875000 0.875000
v 0.125000 0.875000 1.000000
v 0.875000 0.875000 0.000000
v 0.875000 0.875000 0.125000
v 0.875000 0.875000 0.875000
v 0.875000 0.875000 1.000000
v 1.000000 0.875000 0.125000
v 1.000000 0.875000 0.875000
v 0.125000 0.937500 0.125000
v 0.125000 0.937500 0.875000
v 0.875000 0.937500 0.125000
v 0.875000 0.937500 0.875000
v 0.000000 1.000000 0.000000
v 0.000000 1.000000 1.000000
v 0.125000 1.000000 0.125000
v 0.125000 1.000000 0.875000
v 0.875000 1.000000 0.125000
v 0.875000 1.000000 0.875000
v 1.000000 1.000000 0.000000
v 1.000000 1.000000 1.000000
vn 0.0000 -1.0000 0.0000
vn -0.3162 -0.9487 0.0000
vn 0.0000 -0.9487 -0.3162
vn 0.0000 -0.9487 0.3162
vn 0.3162 -0.9487 0.0000
vn -1.0000 0.0000 0.0000
vn 0.0000 0.0000 -1.0000
vn 0.0000 0.0000 1.0000
vn 1.0000 0.0000 0.0000
vn -0.3162 0.9487 0.0000
vn 0.0000 0.9487 -0.3162
vn 0.0000 0.9487 0.3162
vn 0.3162 0.9487 0.0000
vn 0.0000 1.0000 0.0000
vt 0.000000 0.000000
vt 0.000000 0.125000
vt 0.000000 0.250000
vt 0.000000 0.750000
vt 0.000000 0.875000
vt 0.000000 1.000000
vt 0.125000 0.000000
vt 0.125000 0.062500
vt 0.125000 0.125000
vt 0.125000 0.250000
vt 0.125000 0.750000
vt 0.125000 0.875000
vt 0.125000 0.937500
vt 0.125000 1.000000
vt 0.500000 0.125000
vt 0.500000 0.250000
vt 0.500000 0.375000
vt 0.500000 0.625000
vt 0.500000 0.750000
vt 0.500000 0.875000
vt 0.875000 0.000000
vt 0.875000 0.062500
vt 0.875000 0.125000
vt 0.875000 0.250000
vt 0.875000 0.750000
vt 0.875000 0.875000
vt 0.875000 0.937500
vt 0.875000 1.000000
vt 1.000000 0.000000
vt 1.000000 0.125000
vt 1.000000 0.250000
vt 1.000000 0.750000
vt 1.000000 0.875000
vt 1.000000 1.000000
usemtl MaterialTop
f 1/6/1 3/12/1 4/9/1 2/1/1
f 1/6/1 7/34/1 5/26/1 3/12/1
f 2/1/1 4/9/1 6/23/1 8/29/1
f 5/26/1 7/34/1 8/29/1 6/23/1
f 9/12/1 11/26/1 12/23/1 10/9/1
f 13/5/14 14/2/14 17/9/14 16/12/14
f 15/14/14 16/12/14 20/26/14 19/28/14
f 16/12/14 17/9/14 21/23/14 20/26/14
f 17/9/14 18/7/14 22/21/14 21/23/14
f 20/26/14 21/23/14 24/30/14 23/33/14
f 65/5/1 68/12/1 69/9/1 66/2/1
f 67/14/1 71/28/1 72/26/1 68/12/1
f 68/12/1 72/26/1 73/23/1 69/9/1
f 69/9/1 73/23/1 74/21/1 70/7/1
f 72/26/1 75/33/1 76/30/1 73/23/1
f 77/12/14 78/9/14 80/23/14 79/26/14
f 81/6/14 82/1/14 84/9/14 83/12/14
f 81/6/14 83/12/14 85/26/14 87/34/14
f 82/1/14 88/29/14 86/23/14 84/9/14
f 85/26/14 86/23/14 88/29/14 87/34/14
usemtl MaterialSide
f 3/21/9 9/22/9 10/8/9 4/7/9
f 3/7/8 5/21/8 11/22/8 9/8/8
f 4/21/7 10/22/7 12/8/7 6/7/7
f 5/7/6 6/21/6 12/22/6 11/8/6
f 1/1/6 2/29/6 14/23/6 13/9/6
f 1/29/7 15/23/7 19/9/7 7/1/7
f 2/1/8 8/29/8 22/23/8 18/9/8
f 7/29/9 23/23/9 24/9/9 8/1/9
f 1/1/6 13/9/6 25/10/6
f 2/29/6 26/24/6 14/23/6
f 1/29/7 27/24/7 15/23/7
f 2/1/8 18/9/8 30/10/8
f 7/1/7 19/9/7 31/10/7
f 8/29/8 34/24/8 22/23/8
f 7/29/9 35/24/9 23/23/9
f 8/1/9 24/9/9 36/10/9
f 13/2/8 16/9/8 28/10/8 25/3/8
f 14/30/7 26/31/7 29/24/7 17/23/7
f 15/30/9 27/31/9 28/24/9 16/23/9
f 17/9/9 29/10/9 30/3/9 18/2/9
f 19/2/6 20/9/6 32/10/6 31/3/6
f 21/23/6 22/30/6 34/31/6 33/24/6
f 20/23/8 23/30/8 35/31/8 32/24/8
f 21/9/7 33/10/7 36/3/7 24/2/7
f 25/10/4 28/9/4 38/15/4 37/16/4
f 26/24/3 37/16/3 38/15/3 29/23/3
f 27/24/5 39/16/5 40/15/5 28/23/5
f 29/9/5 41/15/5 42/16/5 30/10/5
f 31/10/2 32/9/2 40/15/2 39/16/2
f 33/23/2 34/24/2 42/16/2 41/15/2
f 32/23/4 35/24/4 44/16/4 43/15/4
f 33/9/3 43/15/3 44/16/3 36/10/3
f 1/1/6 25/10/6 53/11/6 81/6/6
f 25/10/6 37/17/6 45/18/6 53/11/6
f 26/24/6 54/25/6 45/18/6 37/17/6
f 2/29/6 82/34/6 54/25/6 26/24/6
f 1/29/7 81/34/7 55/25/7 27/24/7
f 2/1/8 30/10/8 58/11/8 82/6/8
f 28/24/9 56/25/9 46/18/9 38/17/9
f 29/10/9 38/17/9 46/18/9 57/11/9
f 27/24/7 55/25/7 47/18/7 39/17/7
f 28/10/8 40/17/8 48/18/8 56/11/8
f 29/24/7 57/25/7 49/18/7 41/17/7
f 30/10/8 42/17/8 50/18/8 58/11/8
f 31/10/7 39/17/7 47/18/7 59/11/7
f 32/24/8 60/25/8 48/18/8 40/17/8
f 33/10/7 41/17/7 49/18/7 61/11/7
f 34/24/8 62/25/8 50/18/8 42/17/8
f 32/10/6 43/17/6 51/18/6 60/11/6
f 33/24/6 61/25/6 51/18/6 43/17/6
f 7/1/7 31/10/7 59/11/7 87/6/7
f 8/29/8 88/34/8 62/25/8 34/24/8
f 7/29/9 87/34/9 63/25/9 35/24/9
f 35/24/9 63/25/9 52/18/9 44/17/9
f 36/10/9 44/17/9 52/18/9 64/11/9
f 8/1/9 36/10/9 64/11/9 88/6/9
f 45/19/12 46/20/12 56/12/12 53/11/12
f 45/19/11 54/25/11 57/26/11 46/20/11
f 47/19/13 55/25/13 56/26/13 48/20/13
f 49/20/13 57/12/13 58/11/13 50/19/13
f 47/19/10 48/20/10 60/12/10 59/11/10
f 49/20/10 50/19/10 62/25/10 61/26/10
f 51/20/12 52/19/12 63/25/12 60/26/12
f 51/20/11 61/12/11 64/11/11 52/19/11
f 53/4/8 56/11/8 68/12/8 65/5/8
f 54/32/7 66/33/7 69/26/7 57/25/7
f 55/32/9 67/33/9 68/26/9 56/25/9
f 57/11/9 69/12/9 70/5/9 58/4/9
f 59/4/6 60/11/6 72/12/6 71/5/6
f 61/25/6 62/32/6 74/33/6 73/26/6
f 60/25/8 63/32/8 75/33/8 72/26/8
f 61/11/7 73/12/7 76/5/7 64/4/7
f 53/11/6 65/12/6 81/6/6
f 54/25/6 82/34/6 66/26/6
f 55/25/7 81/34/7 67/26/7
f 58/11/8 70/12/8 82/6/8
f 59/11/7 71/12/7 87/6/7
f 62/25/8 88/34/8 74/26/8
f 63/25/9 87/34/9 75/26/9
f 64/11/9 76/12/9 88/6/9
f 65/12/6 66/26/6 82/34/6 81/6/6
f 67/26/7 81/34/7 87/6/7 71/12/7
f 70/12/8 74/26/8 88/34/8 82/6/8
f 75/26/9 87/34/9 88/6/9 76/12/9
f 77/27/9 83/28/9 84/14/9 78/13/9
f 77/13/8 79/27/8 85/28/8 83/14/8
f 78/27/7 84/28/7 86/14/7 80/13/7
f 79/13/6 80/27/6 86/28/6 85/14/6
