mtllib monster_harvester.mtl
o Model
v 0.000000 0.000000 0.000000
v 0.000000 0.000000 1.000000
v 1.000000 0.000000 0.000000
v 1.000000 0.000000 1.000000
v 0.000000 0.125000 0.125000
v 0.000000 0.125000 0.875000
v 0.125000 0.125000 0.000000
v 0.125000 0.125000 0.125000
v 0.125000 0.125000 0.875000
v 0.125000 0.125000 1.000000
v 0.875000 0.125000 0.000000
v 0.875000 0.125000 0.125000
v 0.875000 0.125000 0.875000
v 0.875000 0.125000 1.000000
v 1.000000 0.125000 0.125000
v 1.000000 0.125000 0.875000
v 0.000000 0.750000 0.000000
v 0.000000 0.750000 0.125000
v 0.000000 0.750000 0.875000
v 0.000000 0.750000 1.000000
v 0.062500 0.750000 0.062500
v 0.062500 0.750000 0.937500
v 0.125000 0.750000 0.000000
v 0.125000 0.750000 0.125000
v 0.125000 0.750000 0.875000
v 0.125000 0.750000 1.000000
v 0.875000 0.750000 0.000000
v 0.875000 0.750000 0.125000
v 0.875000 0.750000 0.875000
v 0.875000 0.750000 1.000000
v 0.937500 0.750000 0.062500
v 0.937500 0.750000 0.937500
v 1.000000 0.750000 0.000000
v 1.000000 0.750000 0.125000
v 1.000000 0.750000 0.875000
v 1.000000 0.750000 1.000000
v 0.000000 0.875000 0.125000
v 0.000000 0.875000 0.250000
v 0.000000 0.875000 0.750000
v 0.000000 0.875000 0.875000
v 0.062500 0.875000 0.125000
v 0.062500 0.875000 0.875000
v 0.125000 0.875000 0.000000
v 0.125000 0.875000 0.062500
v 0.125000 0.875000 0.250000
v 0.125000 0.875000 0.750000
v 0.125000 0.875000 0.937500
v 0.125000 0.875000 1.000000
v 0.250000 0.875000 0.000000
v 0.250000 0.875000 0.125000
v 0.250000 0.875000 0.875000
v 0.250000 0.875000 1.000000
v 0.750000 0.875000 0.000000
v 0.750000 0.875000 0.125000
v 0.750000 0.875000 0.875000
v 0.750000 0.875000 1.000000
v 0.875000 0.875000 0.000000
v 0.875000 0.875000 0.062500
v 0.875000 0.875000 0.250000
v 0.875000 0.875000 0.750000
v 0.875000 0.875000 0.937500
v 0.875000 0.875000 1.000000
v 0.937500 0.875000 0.125000
v 0.937500 0.875000 0.875000
v 1.000000 0.875000 0.125000
v 1.000000 0.875000 0.250000
v 1.000000 0.875000 0.750000
v 1.000000 0.875000 0.875000
v 0.062500 0.937500 0.062500
v 0.062500 0.937500 0.250000
v 0.062500 0.937500 0.750000
v 0.062500 0.937500 0.937500
v 0.125000 0.937500 0.125000
v 0.125000 0.937500 0.875000
v 0.250000 0.937500 0.062500
v 0.250000 0.937500 0.250000
v 0.250000 0.937500 0.375000
v 0.250000 0.937500 0.625000
v 0.250000 0.937500 0.750000
v 0.250000 0.937500 0.937500
v 0.375000 0.937500 0.250000
v 0.375000 0.937500 0.375000
v 0.375000 0.937500 0.625000
v 0.375000 0.937500 0.750000
v 0.625000 0.937500 0.250000
v 0.625000 0.937500 0.375000
v 0.625000 0.937500 0.625000
v 0.625000 0.937500 0.750000
v 0.750000 0.937500 0.062500
v 0.750000 0.937500 0.250000
v 0.750000 0.937500 0.375000
v 0.750000 0.937500 0.625000
v 0.750000 0.937500 0.750000
v 0.750000 0.937500 0.937500
v 0.875000 0.937500 0.125000
v 0.875000 0.937500 0.875000
v 0.937500 0.937500 0.062500
v 0.937500 0.937500 0.250000
v 0.937500 0.937500 0.750000
v 0.937500 0.937500 0.937500
v 0.000000 1.000000 0.250000
v 0.000000 1.000000 0.750000
v 0.125000 1.000000 0.125000
v 0.125000 1.000000 0.250000
v 0.125000 1.000000 0.750000
v 0.125000 1.000000 0.875000
v 0.250000 1.000000 0.000000
v 0.250000 1.000000 0.125000
v 0.250000 1.000000 0.250000
v 0.250000 1.000000 0.375000
v 0.250000 1.000000 0.625000
v 0.250000 1.000000 0.750000
v 0.250000 1.000000 0.875000
v 0.250000 1.000000 1.000000
v 0.375000 1.000000 0.250000
v 0.375000 1.000000 0.375000
v 0.375000 1.000000 0.625000
v 0.375000 1.000000 0.750000
v 0.625000 1.000000 0.250000
v 0.625000 1.000000 0.375000
v 0.625000 1.000000 0.625000
v 0.625000 1.000000 0.750000
v 0.750000 1.000000 0.000000
v 0.750000 1.000000 0.125000
v 0.750000 1.000000 0.250000
v 0.750000 1.000000 0.375000
v 0.750000 1.000000 0.625000
v 0.750000 1.000000 0.750000
v 0.750000 1.000000 0.875000
v 0.750000 1.000000 1.000000
v 0.875000 1.000000 0.125000
v 0.875000 1.000000 0.250000
v 0.875000 1.000000 0.750000
v 0.875000 1.000000 0.875000
v 1.000000 1.000000 0.250000
v 1.000000 1.000000 0.750000
vn 0.0000 -1.0000 0.0000
vn -0.6667 -0.6667 -0.3333
vn -0.6667 -0.6667 0.3333
vn -0.3333 -0.6667 -0.6667
vn -0.3333 -0.6667 0.6667
vn 0.3333 -0.6667 -0.6667
vn 0.3333 -0.6667 0.6667
vn 0.6667 -0.6667 -0.3333
vn 0.6667 -0.6667 0.3333
vn -0.6667 -0.3333 -0.6667
vn -0.6667 -0.3333 0.6667
vn 0.6667 -0.3333 -0.6667
vn 0.6667 -0.3333 0.6667
vn -1.0000 0.0000 0.0000
vn 0.0000 0.0000 -1.0000
vn 0.0000 0.0000 1.0000
vn 1.0000 0.0000 0.0000
vn -0.6667 0.6667 -0.3333
vn -0.6667 0.6667 0.3333
vn -0.3333 0.6667 -0.6667
vn -0.3333 0.6667 0.6667
vn 0.3333 0.6667 -0.6667
vn 0.3333 0.6667 0.6667
vn 0.6667 0.6667 -0.3333
vn 0.6667 0.6667 0.3333
vn -0.4472 0.8944 0.0000
vn 0.0000 0.8944 -0.4472
vn 0.0000 0.8944 0.4472
vn 0.4472 0.8944 0.0000
vn 0.0000 1.0000 0.0000
vt 0.000000 0.000000
vt 0.000000 0.125000
vt 0.000000 0.250000
vt 0.000000 0.750000
vt 0.000000 0.875000
vt 0.000000 1.000000
vt 0.062500 0.062500
vt 0.062500 0.125000
vt 0.062500 0.250000
vt 0.062500 0.750000
vt 0.062500 0.875000
vt 0.062500 0.937500
vt 0.125000 0.000000
vt 0.125000 0.062500
vt 0.125000 0.125000
vt 0.125000 0.187500
vt 0.125000 0.250000
vt 0.125000 0.312500
vt 0.125000 0.687500
vt 0.125000 0.750000
vt 0.125000 0.812500
vt 0.125000 0.875000
vt 0.125000 0.937500
vt 0.125000 1.000000
vt 0.187500 0.125000
vt 0.187500 0.250000
vt 0.187500 0.750000
vt 0.187500 0.875000
vt 0.250000 0.000000
vt 0.250000 0.062500
vt 0.250000 0.125000
vt 0.250000 0.187500
vt 0.250000 0.250000
vt 0.250000 0.312500
vt 0.250000 0.375000
vt 0.250000 0.625000
vt 0.250000 0.687500
vt 0.250000 0.750000
vt 0.250000 0.812500
vt 0.250000 0.875000
vt 0.250000 0.937500
vt 0.250000 1.000000
vt 0.312500 0.125000
vt 0.312500 0.250000
vt 0.312500 0.375000
vt 0.312500 0.625000
vt 0.312500 0.750000
vt 0.312500 0.875000
vt 0.375000 0.250000
vt 0.375000 0.312500
vt 0.375000 0.375000
vt 0.375000 0.625000
vt 0.375000 0.687500
vt 0.375000 0.750000
vt 0.625000 0.250000
vt 0.625000 0.312500
vt 0.625000 0.375000
vt 0.625000 0.625000
vt 0.625000 0.687500
vt 0.625000 0.750000
vt 0.687500 0.125000
vt 0.687500 0.250000
vt 0.687500 0.375000
vt 0.687500 0.625000
vt 0.687500 0.750000
vt 0.687500 0.875000
vt 0.750000 0.000000
vt 0.750000 0.062500
vt 0.750000 0.125000
vt 0.750000 0.187500
vt 0.750000 0.250000
vt 0.750000 0.312500
vt 0.750000 0.375000
vt 0.750000 0.625000
vt 0.750000 0.687500
vt 0.750000 0.750000
vt 0.750000 0.812500
vt 0.750000 0.875000
vt 0.750000 0.937500
vt 0.750000 1.000000
vt 0.812500 0.125000
vt 0.812500 0.250000
vt 0.812500 0.750000
vt 0.812500 0.875000
vt 0.875000 0.000000
vt 0.875000 0.062500
vt 0.875000 0.125000
vt 0.875000 0.187500
vt 0.875000 0.250000
vt 0.875000 0.312500
vt 0.875000 0.687500
vt 0.875000 0.750000
vt 0.875000 0.812500
vt 0.875000 0.875000
vt 0.875000 0.937500
vt 0.875000 1.000000
vt 0.937500 0.062500
vt 0.937500 0.125000
vt 0.937500 0.250000
vt 0.937500 0.750000
vt 0.937500 0.875000
vt 0.937500 0.937500
vt 1.000000 0.000000
vt 1.000000 0.125000
vt 1.000000 0.250000
vt 1.000000 0.750000
vt 1.000000 0.875000
vt 1.000000 1.000000
usemtl MaterialTop
f 17/6/30 18/5/30 24/22/30 21/12/30
f 19/2/30 20/1/30 22/7/30 25/15/30
f 17/6/30 21/12/30 24/22/30 23/24/30
f 20/1/30 26/13/30 25/15/30 22/7/30
f 27/96/30 28/94/30 31/102/30 33/108/30
f 29/87/30 30/85/30 36/103/30 32/97/30
f 28/94/30 34/107/30 33/108/30 31/102/30
f 29/87/30 32/97/30 36/103/30 35/104/30
f 37/5/30 38/4/30 45/20/30 41/11/30
f 39/3/30 40/2/30 42/8/30 46/17/30
f 43/24/30 44/23/30 50/40/30 49/42/30
f 47/14/30 48/13/30 52/29/30 51/31/30
f 53/80/30 54/78/30 58/95/30 57/96/30
f 55/69/30 56/67/30 62/85/30 61/86/30
f 59/92/30 66/106/30 65/107/30 63/101/30
f 60/89/30 64/98/30 68/104/30 67/105/30
f 45/20/26 46/17/26 78/35/26 77/36/26
f 50/40/27 81/54/27 85/60/27 54/78/27
f 51/31/28 55/69/28 88/55/28 84/49/28
f 59/92/29 91/74/29 92/73/29 60/89/29
f 45/20/25 73/22/25 70/10/25
f 46/17/24 71/9/24 74/15/24
f 50/40/23 75/41/23 73/22/23
f 45/20/26 77/36/26 76/38/26
f 46/17/26 79/33/26 78/35/26
f 51/31/22 74/15/22 80/30/22
f 50/40/27 76/38/27 81/54/27
f 51/31/28 84/49/28 79/33/28
f 54/78/27 85/60/27 90/76/27
f 55/69/28 93/71/28 88/55/28
f 54/78/21 95/94/21 89/79/21
f 59/92/29 90/76/29 91/74/29
f 60/89/29 92/73/29 93/71/29
f 55/69/20 94/68/20 96/87/20
f 59/92/19 98/100/19 95/94/19
f 60/89/18 96/87/18 99/99/18
f 69/12/30 70/10/30 73/22/30
f 71/9/30 72/7/30 74/15/30
f 45/27/17 104/10/17 105/9/17 46/26/17
f 69/12/30 73/22/30 75/41/30
f 72/7/30 80/30/30 74/15/30
f 77/36/30 78/35/30 83/51/30 82/52/30
f 50/39/16 54/77/16 124/79/16 108/41/16
f 81/54/30 82/52/30 86/58/30 85/60/30
f 82/52/30 83/51/30 87/57/30 86/58/30
f 83/51/30 84/49/30 88/55/30 87/57/30
f 51/32/15 113/30/15 129/68/15 55/70/15
f 86/58/30 87/57/30 92/73/30 91/74/30
f 89/79/30 95/94/30 97/102/30
f 94/68/30 100/97/30 96/87/30
f 59/83/14 60/82/14 133/99/14 132/100/14
f 95/94/30 98/100/30 97/102/30
f 96/87/30 100/97/30 99/99/30
f 45/19/16 76/38/16 109/39/16 104/21/16
f 46/18/15 105/16/15 112/32/15 79/33/15
f 50/48/17 108/28/17 109/27/17 76/38/17
f 51/43/17 79/33/17 112/26/17 113/25/17
f 54/66/14 90/76/14 125/83/14 124/84/14
f 55/61/14 129/81/14 128/82/14 93/71/14
f 59/91/16 132/93/16 125/77/16 90/76/16
f 60/90/15 93/71/15 128/70/15 133/88/15
f 76/38/14 77/36/14 110/46/14 109/47/14
f 78/35/14 79/33/14 112/44/14 111/45/14
f 76/38/15 109/37/15 115/53/15 81/54/15
f 77/36/16 82/52/16 116/53/16 110/37/16
f 78/35/15 111/34/15 117/50/15 83/51/15
f 79/33/16 84/49/16 118/50/16 112/34/16
f 81/54/17 115/47/17 116/46/17 82/52/17
f 83/51/17 117/45/17 118/44/17 84/49/17
f 85/60/14 86/58/14 120/64/14 119/65/14
f 87/57/14 88/55/14 122/62/14 121/63/14
f 85/60/15 119/59/15 125/75/15 90/76/15
f 86/58/16 91/74/16 126/75/16 120/59/16
f 87/57/15 121/56/15 127/72/15 92/73/15
f 88/55/16 93/71/16 128/72/16 122/56/16
f 90/76/17 125/65/17 126/64/17 91/74/17
f 92/73/17 127/63/17 128/62/17 93/71/17
f 101/4/30 102/3/30 105/17/30 104/20/30
f 103/22/30 104/20/30 109/38/30 108/40/30
f 105/17/30 106/15/30 113/31/30 112/33/30
f 109/38/30 110/36/30 116/52/30 115/54/30
f 111/35/30 112/33/30 118/49/30 117/51/30
f 107/42/30 108/40/30 124/78/30 123/80/30
f 113/31/30 114/29/30 130/67/30 129/69/30
f 119/60/30 120/58/30 126/74/30 125/76/30
f 121/57/30 122/55/30 128/71/30 127/73/30
f 124/78/30 125/76/30 132/92/30 131/94/30
f 128/71/30 129/69/30 134/87/30 133/89/30
f 132/92/30 133/89/30 136/105/30 135/106/30
usemtl MaterialBottom
f 1/108/1 3/6/1 4/1/1 2/103/1
usemtl MaterialSide
f 1/1/14 2/103/14 6/87/14 5/15/14
f 1/103/15 7/87/15 11/15/15 3/1/15
f 2/1/16 4/103/16 14/87/16 10/15/16
f 3/103/17 15/87/17 16/15/17 4/1/17
f 5/14/30 6/86/30 9/88/30 8/16/30
f 7/86/30 8/88/30 12/16/30 11/14/30
f 9/16/30 10/14/30 14/86/30 13/88/30
f 12/88/30 13/16/30 16/14/30 15/86/30
f 1/1/14 5/15/14 18/20/14 17/4/14
f 2/103/14 20/106/14 19/92/14 6/87/14
f 1/103/15 17/106/15 23/92/15 7/87/15
f 2/1/16 10/15/16 26/20/16 20/4/16
f 3/1/15 11/15/15 27/20/15 33/4/15
f 4/103/16 36/106/16 30/92/16 14/87/16
f 3/103/17 33/106/17 34/92/17 15/87/17
f 4/1/17 16/15/17 35/20/17 36/4/17
f 5/8/16 8/25/16 24/27/16 18/10/16
f 6/98/15 19/100/15 25/83/15 9/81/15
f 7/98/17 23/100/17 24/83/17 8/81/17
f 8/15/14 9/87/14 25/92/14 24/20/14
f 9/25/17 25/27/17 26/10/17 10/8/17
f 8/87/15 24/92/15 28/20/15 12/15/15
f 9/15/16 13/87/16 29/92/16 25/20/16
f 11/8/14 12/25/14 28/27/14 27/10/14
f 12/87/17 28/92/17 29/20/17 13/15/17
f 13/81/14 14/98/14 30/100/14 29/83/14
f 12/81/16 15/98/16 34/100/16 28/83/16
f 13/25/15 29/27/15 35/10/15 16/8/15
f 18/21/1 24/19/1 25/91/1 19/93/1
f 23/93/1 27/21/1 28/19/1 24/91/1
f 25/19/1 29/91/1 30/93/1 26/21/1
f 28/91/1 34/93/1 35/21/1 29/19/1
f 21/10/11 24/20/11 41/22/11
f 22/100/10 42/94/10 25/92/10
f 21/100/12 44/94/12 24/92/12
f 22/10/13 25/20/13 47/22/13
f 28/20/10 58/22/10 31/10/10
f 29/92/11 32/100/11 61/94/11
f 28/92/13 31/100/13 63/94/13
f 29/20/12 64/22/12 32/10/12
f 18/20/14 19/92/14 39/78/14 38/40/14
f 18/106/15 37/107/15 41/101/15 24/92/15
f 19/4/16 25/20/16 42/11/16 40/5/16
f 23/4/14 24/20/14 44/11/14 43/5/14
f 25/92/14 26/106/14 48/107/14 47/101/14
f 23/92/15 49/78/15 53/40/15 27/20/15
f 26/20/16 30/92/16 56/78/16 52/40/16
f 27/106/17 57/107/17 58/101/17 28/92/17
f 29/20/17 61/11/17 62/5/17 30/4/17
f 28/20/15 63/11/15 65/5/15 34/4/15
f 29/92/16 35/106/16 68/107/16 64/101/16
f 34/92/17 66/78/17 67/40/17 35/20/17
f 18/20/14 38/40/14 37/22/14
f 19/92/14 40/94/14 39/78/14
f 23/92/15 43/94/15 49/78/15
f 26/20/16 52/40/16 48/22/16
f 27/20/15 53/40/15 57/22/15
f 30/92/16 62/94/16 56/78/16
f 34/92/17 65/94/17 66/78/17
f 35/20/17 67/40/17 68/22/17
f 21/10/14 41/22/14 69/12/14
f 22/100/14 72/102/14 42/94/14
f 21/100/15 69/102/15 44/94/15
f 22/10/16 47/22/16 72/12/16
f 31/10/15 58/22/15 97/12/15
f 32/100/16 100/102/16 61/94/16
f 31/100/17 97/102/17 63/94/17
f 32/10/17 64/22/17 100/12/17
f 41/22/3 45/40/3 70/41/3
f 42/94/2 71/79/2 46/78/2
f 44/94/6 75/79/6 50/78/6
f 47/22/7 51/40/7 80/41/7
f 54/40/4 89/41/4 58/22/4
f 55/78/5 61/94/5 94/79/5
f 59/78/9 63/94/9 98/79/9
f 60/40/8 99/41/8 64/22/8
f 41/22/14 70/41/14 69/12/14
f 42/94/14 72/102/14 71/79/14
f 44/94/15 69/102/15 75/79/15
f 47/22/16 80/41/16 72/12/16
f 58/22/15 89/41/15 97/12/15
f 61/94/16 100/102/16 94/79/16
f 63/94/17 97/102/17 98/79/17
f 64/22/17 99/41/17 100/12/17
f 38/107/15 101/108/15 70/102/15 45/94/15
f 39/5/16 46/22/16 71/12/16 102/6/16
f 49/5/14 50/22/14 75/12/14 107/6/14
f 51/94/14 52/107/14 114/108/14 80/102/14
f 53/107/17 123/108/17 89/102/17 54/94/17
f 55/22/17 94/12/17 130/6/17 56/5/17
f 59/22/15 98/12/15 135/6/15 66/5/15
f 60/94/16 67/107/16 136/108/16 99/102/16
f 38/40/14 39/78/14 102/80/14 101/42/14
f 49/78/15 107/80/15 123/42/15 53/40/15
f 52/40/16 56/78/16 130/80/16 114/42/16
f 66/78/17 135/80/17 136/42/17 67/40/17
f 45/94/15 70/102/15 101/108/15 104/96/15
f 46/22/16 105/24/16 102/6/16 71/12/16
f 45/40/14 104/42/14 103/24/14 73/23/14
f 46/78/14 74/95/14 106/96/14 105/80/14
f 50/78/15 73/95/15 103/96/15 108/80/15
f 51/40/16 113/42/16 106/24/16 74/23/16
f 50/22/14 108/24/14 107/6/14 75/12/14
f 51/94/14 80/102/14 114/108/14 113/96/14
f 54/94/17 89/102/17 123/108/17 124/96/17
f 55/22/17 129/24/17 130/6/17 94/12/17
f 54/40/15 124/42/15 131/24/15 95/23/15
f 55/78/16 96/95/16 134/96/16 129/80/16
f 59/78/17 95/95/17 131/96/17 132/80/17
f 60/40/17 133/42/17 134/24/17 96/23/17
f 59/22/15 132/24/15 135/6/15 98/12/15
f 60/94/16 99/102/16 136/108/16 133/96/16