mtllib moon_well.mtl
o Model
v 0.000000 0.000000 0.000000
v 0.000000 0.000000 1.000000
v 1.000000 0.000000 0.000000
v 1.000000 0.000000 1.000000
v 0.125000 0.125000 0.125000
v 0.125000 0.125000 0.875000
v 0.250000 0.125000 0.250000
v 0.250000 0.125000 0.374996
v 0.250000 0.125000 0.624997
v 0.250000 0.125000 0.750000
v 0.374997 0.125000 0.250000
v 0.375000 0.125000 0.375000
v 0.375000 0.125000 0.625000
v 0.375012 0.125000 0.750000
v 0.625000 0.125000 0.375000
v 0.625000 0.125000 0.625000
v 0.625009 0.125000 0.750000
v 0.625019 0.125000 0.250000
v 0.750000 0.125000 0.250000
v 0.750000 0.125000 0.375000
v 0.750000 0.125000 0.624995
v 0.750000 0.125000 0.750000
v 0.875000 0.125000 0.125000
v 0.875000 0.125000 0.875000
v 0.125000 0.625000 0.125000
v 0.125000 0.625000 0.875000
v 0.250000 0.625000 0.250000
v 0.250000 0.625000 0.374996
v 0.250000 0.625000 0.624997
v 0.250000 0.625000 0.750000
v 0.374997 0.625000 0.250000
v 0.375000 0.625000 0.375000
v 0.375000 0.625000 0.625000
v 0.375012 0.625000 0.750000
v 0.625000 0.625000 0.375000
v 0.625000 0.625000 0.625000
v 0.625009 0.625000 0.750000
v 0.625019 0.625000 0.250000
v 0.750000 0.625000 0.250000
v 0.750000 0.625000 0.375000
v 0.750000 0.625000 0.624995
v 0.750000 0.625000 0.750000
v 0.875000 0.625000 0.125000
v 0.875000 0.625000 0.875000
v 0.312498 0.750000 0.312498
v 0.312504 0.750000 0.687496
v 0.687501 0.750000 0.687501
v 0.687505 0.750000 0.312495
v 0.000000 1.000000 0.000000
v 0.000000 1.000000 1.000000
v 0.125000 1.000000 0.125000
v 0.125000 1.000000 0.875000
v 0.875000 1.000000 0.125000
v 0.875000 1.000000 0.875000
v 1.000000 1.000000 0.000000
v 1.000000 1.000000 1.000000
vn 0.0000 -1.0000 0.0000
vn -1.0000 0.0000 0.0000
vn 0.0000 0.0000 -1.0000
vn 0.0000 0.0000 1.0000
vn 1.0000 0.0000 0.0000
vn -0.8944 0.4472 0.0000
vn 0.0000 0.4472 -0.8944
vn 0.0000 0.4472 0.8944
vn 0.8944 0.4472 0.0000
vn 0.0000 1.0000 0.0000
vt 0.000000 0.000000
vt 0.000000 1.000000
vt 0.125000 0.125000
vt 0.125000 0.625000
vt 0.125000 0.875000
vt 0.125000 1.000000
vt 0.250000 0.062500
vt 0.250000 0.250000
vt 0.250000 0.375000
vt 0.250000 0.562500
vt 0.250000 0.625000
vt 0.250000 0.750000
vt 0.312500 0.687500
vt 0.375000 0.062500
vt 0.375000 0.250000
vt 0.375000 0.375000
vt 0.375000 0.562500
vt 0.375000 0.625000
vt 0.375000 0.750000
vt 0.625000 0.062500
vt 0.625000 0.250000
vt 0.625000 0.375000
vt 0.625000 0.562500
vt 0.625000 0.625000
vt 0.625000 0.750000
vt 0.687500 0.687500
vt 0.750000 0.062500
vt 0.750000 0.250000
vt 0.750000 0.375000
vt 0.750000 0.562500
vt 0.750000 0.625000
vt 0.750000 0.750000
vt 0.875000 0.125000
vt 0.875000 0.625000
vt 0.875000 0.875000
vt 0.875000 1.000000
vt 1.000000 0.000000
vt 1.000000 1.000000
usemtl MaterialRod
f 7/7/2 8/14/2 28/17/2 27/10/2
f 9/20/2 10/27/2 30/30/2 29/23/2
f 7/27/3 27/30/3 31/23/3 11/20/3
f 8/7/4 12/14/4 32/17/4 28/10/4
f 9/27/3 29/30/3 33/23/3 13/20/3
f 10/7/4 14/14/4 34/17/4 30/10/4
f 11/27/5 31/30/5 32/23/5 12/20/5
f 13/14/5 33/17/5 34/10/5 14/7/5
f 16/20/2 17/27/2 37/30/2 36/23/2
f 15/14/2 35/17/2 38/10/2 18/7/2
f 15/20/4 20/27/4 40/30/4 35/23/4
f 16/14/3 36/17/3 41/10/3 21/7/3
f 17/20/4 22/27/4 42/30/4 37/23/4
f 18/14/3 38/17/3 39/10/3 19/7/3
f 19/27/5 39/30/5 40/23/5 20/20/5
f 21/14/5 41/17/5 42/10/5 22/7/5
f 27/10/6 28/17/6 45/13/6
f 29/23/6 30/30/6 46/26/6
f 27/30/7 45/26/7 31/23/7
f 28/10/8 32/17/8 45/13/8
f 29/30/7 46/26/7 33/23/7
f 30/10/8 34/17/8 46/13/8
f 31/30/9 45/26/9 32/23/9
f 33/17/9 46/13/9 34/10/9
f 36/23/6 37/30/6 47/26/6
f 35/17/6 48/13/6 38/10/6
f 36/17/7 47/13/7 41/10/7
f 35/23/8 40/30/8 48/26/8
f 37/23/8 42/30/8 47/26/8
f 38/17/7 48/13/7 39/10/7
f 41/17/9 47/13/9 42/10/9
f 39/30/9 48/26/9 40/23/9
usemtl MaterialGlass
f 25/5/10 26/3/10 29/9/10 28/11/10
f 25/5/10 28/11/10 27/12/10
f 26/3/10 30/8/10 29/9/10
f 25/5/10 27/12/10 31/19/10
f 26/3/10 34/15/10 30/8/10
f 28/11/10 29/9/10 33/16/10 32/18/10
f 32/18/10 33/16/10 36/22/10 35/24/10
f 25/5/10 31/19/10 38/25/10 43/35/10
f 31/19/10 32/18/10 35/24/10 38/25/10
f 33/16/10 34/15/10 37/21/10 36/22/10
f 26/3/10 44/33/10 37/21/10 34/15/10
f 35/24/10 36/22/10 41/29/10 40/31/10
f 37/21/10 44/33/10 42/28/10
f 38/25/10 39/32/10 43/35/10
f 39/32/10 40/31/10 43/35/10
f 41/29/10 42/28/10 44/33/10
f 40/31/10 41/29/10 44/33/10 43/35/10
usemtl MaterialSide
f 1/1/1 3/37/1 4/38/1 2/2/1
f 5/5/10 6/3/10 9/9/10 8/11/10
f 5/5/10 8/11/10 7/12/10
f 6/3/10 10/8/10 9/9/10
f 5/5/10 7/12/10 11/19/10
f 6/3/10 14/15/10 10/8/10
f 8/11/10 9/9/10 13/16/10 12/18/10
f 12/18/10 13/16/10 16/22/10 15/24/10
f 5/5/10 11/19/10 18/25/10 23/35/10
f 11/19/10 12/18/10 15/24/10 18/25/10
f 13/16/10 14/15/10 17/21/10 16/22/10
f 6/3/10 24/33/10 17/21/10 14/15/10
f 15/24/10 16/22/10 21/29/10 20/31/10
f 17/21/10 24/33/10 22/28/10
f 18/25/10 19/32/10 23/35/10
f 19/32/10 20/31/10 23/35/10
f 21/29/10 22/28/10 24/33/10
f 20/31/10 21/29/10 24/33/10 23/35/10
f 5/33/5 25/34/5 26/4/5 6/3/5
f 5/3/4 23/33/4 43/34/4 25/4/4
f 6/33/3 26/34/3 44/4/3 24/3/3
f 23/3/2 24/33/2 44/34/2 43/4/2
f 1/1/2 2/37/2 50/38/2 49/2/2
f 1/37/3 49/38/3 55/2/3 3/1/3
f 2/1/4 4/37/4 56/38/4 50/2/4
f 3/37/5 55/38/5 56/2/5 4/1/5
f 25/34/5 51/36/5 52/6/5 26/4/5
f 25/4/4 43/34/4 53/36/4 51/6/4
f 26/34/3 52/36/3 54/6/3 44/4/3
f 43/4/2 44/34/2 54/36/2 53/6/2
f 49/2/10 50/1/10 52/3/10 51/5/10
f 49/2/10 51/5/10 53/35/10 55/38/10
f 50/1/10 56/37/10 54/33/10 52/3/10
f 53/35/10 54/33/10 56/37/10 55/38/10
