mtllib potion_spreader.mtl
o Model
v 0.000000 0.000000 0.000000
v 0.000000 0.000000 1.000000
v 1.000000 0.000000 0.000000
v 1.000000 0.000000 1.000000
v 0.312500 0.750000 0.312500
v 0.312500 0.750000 0.687500
v 0.687500 0.750000 0.312500
v 0.687500 0.750000 0.687500
v 0.125000 0.875000 0.125000
v 0.125000 0.875000 0.875000
v 0.250000 0.875000 0.500000
v 0.312500 0.875000 0.312500
v 0.312500 0.875000 0.687500
v 0.375000 0.875000 0.375000
v 0.375000 0.875000 0.625000
v 0.500000 0.875000 0.250000
v 0.500000 0.875000 0.750000
v 0.625000 0.875000 0.375000
v 0.625000 0.875000 0.625000
v 0.687500 0.875000 0.312500
v 0.687500 0.875000 0.687500
v 0.750000 0.875000 0.500000
v 0.875000 0.875000 0.125000
v 0.875000 0.875000 0.875000
v 0.312500 0.937500 0.312500
v 0.312500 0.937500 0.687500
v 0.687500 0.937500 0.312500
v 0.687500 0.937500 0.687500
v 0.000000 1.000000 0.000000
v 0.000000 1.000000 1.000000
v 0.125000 1.000000 0.125000
v 0.125000 1.000000 0.875000
v 0.875000 1.000000 0.125000
v 0.875000 1.000000 0.875000
v 1.000000 1.000000 0.000000
v 1.000000 1.000000 1.000000
vn 0.0000 -1.0000 0.0000
vn -1.0000 0.0000 0.0000
vn 0.0000 0.0000 -1.0000
vn 0.0000 0.0000 1.0000
vn 1.0000 0.0000 0.0000
vn -0.9487 0.0000 -0.3162
vn -0.9487 0.0000 0.3162
vn -0.3162 0.0000 -0.9487
vn -0.3162 0.0000 0.9487
vn 0.3162 0.0000 -0.9487
vn 0.3162 0.0000 0.9487
vn 0.9487 0.0000 -0.3162
vn 0.9487 0.0000 0.3162
vn -0.8944 0.4472 0.0000
vn 0.0000 0.4472 -0.8944
vn 0.0000 0.4472 0.8944
vn 0.8944 0.4472 0.0000
vn -0.7071 0.7071 0.0000
vn 0.0000 0.7071 -0.7071
vn 0.0000 0.7071 0.7071
vn 0.7071 0.7071 0.0000
vn 0.0000 1.0000 0.0000
vt 0.000000 0.000000
vt 0.000000 1.000000
vt 0.062500 0.125000
vt 0.062500 0.875000
vt 0.125000 0.062500
vt 0.125000 0.125000
vt 0.125000 0.187500
vt 0.125000 0.812500
vt 0.125000 0.875000
vt 0.125000 0.937500
vt 0.187500 0.125000
vt 0.187500 0.875000
vt 0.250000 0.312500
vt 0.250000 0.500000
vt 0.250000 0.687500
vt 0.312500 0.250000
vt 0.312500 0.312500
vt 0.312500 0.375000
vt 0.312500 0.437500
vt 0.312500 0.562500
vt 0.312500 0.625000
vt 0.312500 0.687500
vt 0.312500 0.750000
vt 0.375000 0.312500
vt 0.375000 0.375000
vt 0.375000 0.625000
vt 0.375000 0.687500
vt 0.437500 0.312500
vt 0.437500 0.500000
vt 0.437500 0.687500
vt 0.500000 0.250000
vt 0.500000 0.437500
vt 0.500000 0.562500
vt 0.500000 0.750000
vt 0.562500 0.312500
vt 0.562500 0.500000
vt 0.562500 0.687500
vt 0.625000 0.312500
vt 0.625000 0.375000
vt 0.625000 0.625000
vt 0.625000 0.687500
vt 0.687500 0.250000
vt 0.687500 0.312500
vt 0.687500 0.375000
vt 0.687500 0.437500
vt 0.687500 0.562500
vt 0.687500 0.625000
vt 0.687500 0.687500
vt 0.687500 0.750000
vt 0.750000 0.312500
vt 0.750000 0.500000
vt 0.750000 0.687500
vt 0.812500 0.125000
vt 0.812500 0.875000
vt 0.875000 0.062500
vt 0.875000 0.125000
vt 0.875000 0.187500
vt 0.875000 0.812500
vt 0.875000 0.875000
vt 0.875000 0.937500
vt 0.937500 0.125000
vt 0.937500 0.875000
vt 1.000000 0.000000
vt 1.000000 1.000000
usemtl MaterialSide
f 1/1/1 3/63/1 4/64/1 2/2/1
f 1/1/2 2/63/2 30/64/2 29/2/2
f 1/63/3 29/64/3 35/2/3 3/1/3
f 2/1/4 4/63/4 36/64/4 30/2/4
f 3/63/5 35/64/5 36/2/5 4/1/5
usemtl MaterialTop
f 5/22/22 6/17/22 8/43/22 7/48/22
f 5/17/17 11/29/17 6/22/17
f 5/48/16 7/22/16 16/33/16
f 6/43/15 17/32/15 8/17/15
f 7/43/14 8/48/14 22/36/14
f 5/17/13 12/28/13 11/29/13
f 6/22/12 11/29/12 13/30/12
f 5/48/11 16/33/11 12/46/11
f 6/43/10 13/45/10 17/32/10
f 7/22/9 20/20/9 16/33/9
f 8/17/8 17/32/8 21/19/8
f 7/43/7 22/36/7 20/35/7
f 8/48/6 21/37/6 22/36/6
f 9/9/22 10/6/22 11/14/22
f 9/9/22 11/14/22 12/22/22
f 10/6/22 13/17/22 11/14/22
f 11/29/1 12/27/1 13/24/1
f 9/9/22 12/22/22 16/34/22
f 10/6/22 17/31/22 13/17/22
f 12/27/1 14/21/1 15/18/1 13/24/1
f 9/9/22 16/34/22 23/59/22
f 12/21/1 16/33/1 20/47/1
f 12/21/1 20/47/1 18/41/1 14/27/1
f 13/18/1 15/24/1 19/38/1 21/44/1
f 13/18/1 21/44/1 17/32/1
f 10/6/22 24/56/22 17/31/22
f 18/47/1 20/41/1 21/38/1 19/44/1
f 16/34/22 20/48/22 23/59/22
f 17/31/22 24/56/22 21/43/22
f 20/41/1 22/36/1 21/38/1
f 20/48/22 22/51/22 23/59/22
f 21/43/22 24/56/22 22/51/22
f 22/51/22 24/56/22 23/59/22
f 11/14/6 25/22/6 12/15/6
f 11/14/7 13/13/7 26/17/7
f 12/23/8 25/22/8 16/34/8
f 13/16/9 17/31/9 26/17/9
f 16/34/10 27/48/10 20/49/10
f 17/31/11 21/42/11 28/43/11
f 20/52/12 27/48/12 22/51/12
f 21/50/13 22/51/13 28/43/13
f 14/26/21 25/22/21 26/17/21 15/25/21
f 14/26/20 18/40/20 27/48/20 25/22/20
f 15/25/19 26/17/19 28/43/19 19/39/19
f 18/40/18 19/39/18 28/43/18 27/48/18
f 11/14/18 26/17/18 25/22/18
f 16/34/19 25/22/19 27/48/19
f 17/31/20 28/43/20 26/17/20
f 22/51/21 27/48/21 28/43/21
f 9/12/5 31/4/5 32/3/5 10/11/5
f 9/8/4 23/58/4 33/60/4 31/10/4
f 10/7/3 32/5/3 34/55/3 24/57/3
f 23/54/2 24/53/2 34/61/2 33/62/2
f 29/2/22 30/1/22 32/6/22 31/9/22
f 29/2/22 31/9/22 33/59/22 35/64/22
f 30/1/22 36/63/22 34/56/22 32/6/22
f 33/59/22 34/56/22 36/63/22 35/64/22
