mtllib ray_tower.mtl
o Model
v 0.062500 0.000000 0.062500
v 0.062500 0.000000 0.187500
v 0.062500 0.000000 0.812500
v 0.062500 0.000000 0.937500
v 0.187500 0.000000 0.062500
v 0.187500 0.000000 0.187500
v 0.187500 0.000000 0.812500
v 0.187500 0.000000 0.937500
v 0.812500 0.000000 0.062500
v 0.812500 0.000000 0.187500
v 0.812500 0.000000 0.812500
v 0.812500 0.000000 0.937500
v 0.937500 0.000000 0.062500
v 0.937500 0.000000 0.187500
v 0.937500 0.000000 0.812500
v 0.937500 0.000000 0.937500
v 0.187500 0.125000 0.187500
v 0.187500 0.125000 0.812500
v 0.375000 0.125000 0.375000
v 0.375000 0.125000 0.625000
v 0.625000 0.125000 0.375000
v 0.625000 0.125000 0.625000
v 0.812500 0.125000 0.187500
v 0.812500 0.125000 0.812500
v 0.187500 0.875000 0.187500
v 0.187500 0.875000 0.812500
v 0.375000 0.875000 0.375000
v 0.375000 0.875000 0.625000
v 0.625000 0.875000 0.375000
v 0.625000 0.875000 0.625000
v 0.812500 0.875000 0.187500
v 0.812500 0.875000 0.812500
v 0.062500 1.000000 0.062500
v 0.062500 1.000000 0.187500
v 0.062500 1.000000 0.812500
v 0.062500 1.000000 0.937500
v 0.187500 1.000000 0.062500
v 0.187500 1.000000 0.187500
v 0.187500 1.000000 0.812500
v 0.187500 1.000000 0.937500
v 0.437500 1.000000 0.437500
v 0.437500 1.000000 0.562500
v 0.562500 1.000000 0.437500
v 0.562500 1.000000 0.562500
v 0.812500 1.000000 0.062500
v 0.812500 1.000000 0.187500
v 0.812500 1.000000 0.812500
v 0.812500 1.000000 0.937500
v 0.937500 1.000000 0.062500
v 0.937500 1.000000 0.187500
v 0.937500 1.000000 0.812500
v 0.937500 1.000000 0.937500
v 0.062500 1.125000 0.062500
v 0.062500 1.125000 0.187500
v 0.062500 1.125000 0.812500
v 0.062500 1.125000 0.937500
v 0.187500 1.125000 0.062500
v 0.187500 1.125000 0.937500
v 0.812500 1.125000 0.062500
v 0.812500 1.125000 0.937500
v 0.937500 1.125000 0.062500
v 0.937500 1.125000 0.187500
v 0.937500 1.125000 0.812500
v 0.937500 1.125000 0.937500
v 0.187500 1.250000 0.187500
v 0.187500 1.250000 0.812500
v 0.812500 1.250000 0.187500
v 0.812500 1.250000 0.812500
v 0.437500 1.437500 0.437500
v 0.437500 1.437500 0.562500
v 0.562500 1.437500 0.437500
v 0.562500 1.437500 0.562500
v 0.500000 1.500000 0.500000
vn 0.0000 -1.0000 0.0000
vn -1.0000 0.0000 0.0000
vn 0.0000 0.0000 -1.0000
vn 0.0000 0.0000 1.0000
vn 1.0000 0.0000 0.0000
vn -0.7071 0.7071 0.0000
vn 0.0000 0.7071 -0.7071
vn 0.0000 0.7071 0.7071
vn 0.7071 0.7071 0.0000
vn 0.0000 1.0000 0.0000
vt 0.062500 0.000000
vt 0.062500 0.062500
vt 0.062500 0.187500
vt 0.062500 0.812500
vt 0.062500 0.937500
vt 0.062500 1.000000
vt 0.187500 0.000000
vt 0.187500 0.062500
vt 0.187500 0.125000
vt 0.187500 0.187500
vt 0.187500 0.312500
vt 0.187500 0.812500
vt 0.187500 0.875000
vt 0.187500 0.937500
vt 0.187500 1.000000
vt 0.375000 0.125000
vt 0.375000 0.375000
vt 0.375000 0.625000
vt 0.375000 0.875000
vt 0.437500 0.000000
vt 0.437500 0.437500
vt 0.437500 0.562500
vt 0.500000 0.500000
vt 0.562500 0.000000
vt 0.562500 0.437500
vt 0.562500 0.562500
vt 0.625000 0.125000
vt 0.625000 0.375000
vt 0.625000 0.625000
vt 0.625000 0.875000
vt 0.812500 0.000000
vt 0.812500 0.062500
vt 0.812500 0.125000
vt 0.812500 0.187500
vt 0.812500 0.312500
vt 0.812500 0.812500
vt 0.812500 0.875000
vt 0.812500 0.937500
vt 0.812500 1.000000
vt 0.937500 0.000000
vt 0.937500 0.062500
vt 0.937500 0.187500
vt 0.937500 0.812500
vt 0.937500 0.937500
vt 0.937500 1.000000
usemtl MaterialRod
f 19/16/2 20/27/2 28/30/2 27/19/2
f 19/27/3 27/30/3 29/19/3 21/16/3
f 20/16/4 22/27/4 30/30/4 28/19/4
f 21/27/5 29/30/5 30/19/5 22/16/5
f 41/20/2 42/24/2 70/25/2 69/21/2
f 41/24/3 69/25/3 71/21/3 43/20/3
f 42/20/4 44/24/4 72/25/4 70/21/4
f 43/24/5 71/25/5 72/21/5 44/20/5
f 69/21/6 70/25/6 73/23/6
f 69/25/7 73/23/7 71/21/7
f 70/21/8 72/25/8 73/23/8
f 71/25/9 73/23/9 72/21/9
usemtl MaterialGlass
f 17/9/2 18/33/2 26/37/2 25/13/2
f 17/33/3 25/37/3 31/13/3 23/9/3
f 18/9/4 24/33/4 32/37/4 26/13/4
f 23/33/5 31/37/5 32/13/5 24/9/5
usemtl MaterialBase
f 1/5/1 5/14/1 6/12/1 2/4/1
f 3/3/1 7/10/1 8/8/1 4/2/1
f 6/12/1 10/36/1 11/34/1 7/10/1
f 9/38/1 13/44/1 14/43/1 10/36/1
f 11/34/1 15/42/1 16/41/1 12/32/1
f 2/1/4 6/7/4 17/9/4
f 3/40/3 18/33/3 7/31/3
f 5/40/5 17/33/5 6/31/5
f 7/7/5 18/9/5 8/1/5
f 9/1/2 10/7/2 23/9/2
f 11/31/2 12/40/2 24/33/2
f 10/31/4 14/40/4 23/33/4
f 11/7/3 24/9/3 15/1/3
f 6/7/2 7/31/2 18/33/2 17/9/2
f 6/31/3 17/33/3 23/9/3 10/7/3
f 7/7/4 11/31/4 24/33/4 18/9/4
f 10/31/5 23/33/5 24/9/5 11/7/5
f 17/12/10 18/10/10 20/17/10 19/18/10
f 17/12/10 19/18/10 21/29/10 23/36/10
f 18/10/10 24/34/10 22/28/10 20/17/10
f 21/29/10 22/28/10 24/34/10 23/36/10
f 1/1/2 2/7/2 34/15/2 33/6/2
f 3/31/2 4/40/2 36/45/2 35/39/2
f 1/40/3 33/45/3 37/39/3 5/31/3
f 2/1/4 17/9/4 25/13/4 34/6/4
f 3/40/3 35/45/3 26/37/3 18/33/3
f 4/1/4 8/7/4 40/15/4 36/6/4
f 5/40/5 37/45/5 25/37/5 17/33/5
f 8/1/5 18/9/5 26/13/5 40/6/5
f 9/1/2 23/9/2 31/13/2 45/6/2
f 12/40/2 48/45/2 32/37/2 24/33/2
f 9/7/3 45/15/3 49/6/3 13/1/3
f 14/40/4 50/45/4 31/37/4 23/33/4
f 15/1/3 24/9/3 32/13/3 51/6/3
f 12/31/4 16/40/4 52/45/4 48/39/4
f 13/40/5 49/45/5 50/39/5 14/31/5
f 15/7/5 51/15/5 52/6/5 16/1/5
f 25/12/1 27/18/1 28/17/1 26/10/1
f 25/12/1 31/36/1 29/29/1 27/18/1
f 26/10/1 28/17/1 30/28/1 32/34/1
f 29/29/1 31/36/1 32/34/1 30/28/1
f 25/13/2 26/37/2 39/39/2 38/15/2
f 25/37/3 38/39/3 46/15/3 31/13/3
f 26/13/4 32/37/4 47/39/4 39/15/4
f 31/37/5 46/39/5 47/15/5 32/13/5
f 25/13/4 38/15/4 34/6/4
f 26/37/3 35/45/3 39/39/3
f 25/37/5 37/45/5 38/39/5
f 26/13/5 39/15/5 40/6/5
f 31/13/2 46/15/2 45/6/2
f 32/37/2 48/45/2 47/39/2
f 31/37/4 50/45/4 46/39/4
f 32/13/3 47/15/3 51/6/3
f 38/12/10 39/10/10 42/21/10 41/22/10
f 38/12/10 41/22/10 43/26/10 46/36/10
f 39/10/10 47/34/10 44/25/10 42/21/10
f 43/26/10 44/25/10 47/34/10 46/36/10
f 33/1/2 34/7/2 54/10/2 53/3/2
f 35/31/2 36/40/2 56/42/2 55/34/2
f 33/40/3 53/42/3 57/34/3 37/31/3
f 36/1/4 40/7/4 58/10/4 56/3/4
f 45/7/3 59/10/3 61/3/3 49/1/3
f 48/31/4 52/40/4 64/42/4 60/34/4
f 49/40/5 61/42/5 62/34/5 50/31/5
f 51/7/5 63/10/5 64/3/5 52/1/5
f 34/1/4 38/7/4 65/11/4 54/3/4
f 35/40/3 55/42/3 66/35/3 39/31/3
f 37/40/5 57/42/5 65/35/5 38/31/5
f 39/7/5 66/11/5 58/3/5 40/1/5
f 45/1/2 46/7/2 67/11/2 59/3/2
f 47/31/2 48/40/2 60/42/2 68/35/2
f 46/31/4 50/40/4 62/42/4 67/35/4
f 47/7/3 68/11/3 63/3/3 51/1/3
f 53/3/6 54/10/6 65/11/6
f 55/34/6 56/42/6 66/35/6
f 53/42/7 65/35/7 57/34/7
f 56/3/8 58/10/8 66/11/8
f 59/10/7 67/11/7 61/3/7
f 60/34/8 64/42/8 68/35/8
f 61/42/9 67/35/9 62/34/9
f 63/10/9 68/11/9 64/3/9
