mtllib sun_ray_absorber.mtl
o Model
v 0.000000 0.000000 0.000000
v 0.000000 0.000000 1.000000
v 1.000000 0.000000 0.000000
v 1.000000 0.000000 1.000000
v 0.187500 0.500000 0.500000
v 0.250000 0.500000 0.500000
v 0.312500 0.500000 0.312500
v 0.312500 0.500000 0.687500
v 0.500000 0.500000 0.187500
v 0.500000 0.500000 0.250000
v 0.500000 0.500000 0.500000
v 0.500000 0.500000 0.750000
v 0.500000 0.500000 0.812500
v 0.687500 0.500000 0.312500
v 0.687500 0.500000 0.687500
v 0.750000 0.500000 0.500000
v 0.812500 0.500000 0.500000
v 0.312500 0.562500 0.312500
v 0.312500 0.562500 0.687500
v 0.687500 0.562500 0.312500
v 0.687500 0.562500 0.687500
v 0.250000 0.625000 0.343750
v 0.250000 0.625000 0.656250
v 0.343750 0.625000 0.250000
v 0.343750 0.625000 0.750000
v 0.656250 0.625000 0.250000
v 0.656250 0.625000 0.750000
v 0.750000 0.625000 0.343750
v 0.750000 0.625000 0.656250
v 0.187500 0.687500 0.375000
v 0.187500 0.687500 0.625000
v 0.281250 0.687500 0.406250
v 0.281250 0.687500 0.593750
v 0.312500 0.687500 0.500000
v 0.375000 0.687500 0.187500
v 0.375000 0.687500 0.812500
v 0.406250 0.687500 0.281250
v 0.406250 0.687500 0.718750
v 0.500000 0.687500 0.312500
v 0.500000 0.687500 0.687500
v 0.593750 0.687500 0.281250
v 0.593750 0.687500 0.718750
v 0.625000 0.687500 0.187500
v 0.625000 0.687500 0.812500
v 0.687500 0.687500 0.500000
v 0.718750 0.687500 0.406250
v 0.718750 0.687500 0.593750
v 0.812500 0.687500 0.375000
v 0.812500 0.687500 0.625000
v 0.000000 0.750000 0.000000
v 0.000000 0.750000 1.000000
v 0.187500 0.750000 0.187500
v 0.187500 0.750000 0.375000
v 0.187500 0.750000 0.437500
v 0.187500 0.750000 0.562500
v 0.187500 0.750000 0.625000
v 0.187500 0.750000 0.812500
v 0.250000 0.750000 0.250000
v 0.250000 0.750000 0.437500
v 0.250000 0.750000 0.562500
v 0.250000 0.750000 0.750000
v 0.312500 0.750000 0.500000
v 0.375000 0.750000 0.187500
v 0.375000 0.750000 0.812500
v 0.437500 0.750000 0.187500
v 0.437500 0.750000 0.250000
v 0.437500 0.750000 0.750000
v 0.437500 0.750000 0.812500
v 0.500000 0.750000 0.312500
v 0.500000 0.750000 0.687500
v 0.562500 0.750000 0.187500
v 0.562500 0.750000 0.250000
v 0.562500 0.750000 0.750000
v 0.562500 0.750000 0.812500
v 0.625000 0.750000 0.187500
v 0.625000 0.750000 0.812500
v 0.687500 0.750000 0.500000
v 0.750000 0.750000 0.250000
v 0.750000 0.750000 0.437500
v 0.750000 0.750000 0.562500
v 0.750000 0.750000 0.750000
v 0.812500 0.750000 0.187500
v 0.812500 0.750000 0.375000
v 0.812500 0.750000 0.437500
v 0.812500 0.750000 0.562500
v 0.812500 0.750000 0.625000
v 0.812500 0.750000 0.812500
v 1.000000 0.750000 0.000000
v 1.000000 0.750000 1.000000
v 0.187500 0.812500 0.375000
v 0.187500 0.812500 0.437500
v 0.187500 0.812500 0.562500
v 0.187500 0.812500 0.625000
v 0.250000 0.812500 0.437500
v 0.250000 0.812500 0.562500
v 0.281250 0.812500 0.406250
v 0.281250 0.812500 0.593750
v 0.312500 0.812500 0.500000
v 0.375000 0.812500 0.187500
v 0.375000 0.812500 0.468750
v 0.375000 0.812500 0.531250
v 0.375000 0.812500 0.812500
v 0.406250 0.812500 0.281250
v 0.406250 0.812500 0.718750
v 0.437500 0.812500 0.187500
v 0.437500 0.812500 0.250000
v 0.437500 0.812500 0.750000
v 0.437500 0.812500 0.812500
v 0.468750 0.812500 0.375000
v 0.468750 0.812500 0.625000
v 0.500000 0.812500 0.312500
v 0.500000 0.812500 0.687500
v 0.531250 0.812500 0.375000
v 0.531250 0.812500 0.625000
v 0.562500 0.812500 0.187500
v 0.562500 0.812500 0.250000
v 0.562500 0.812500 0.750000
v 0.562500 0.812500 0.812500
v 0.593750 0.812500 0.281250
v 0.593750 0.812500 0.718750
v 0.625000 0.812500 0.187500
v 0.625000 0.812500 0.468750
v 0.625000 0.812500 0.531250
v 0.625000 0.812500 0.812500
v 0.687500 0.812500 0.500000
v 0.718750 0.812500 0.406250
v 0.718750 0.812500 0.593750
v 0.750000 0.812500 0.437500
v 0.750000 0.812500 0.562500
v 0.812500 0.812500 0.375000
v 0.812500 0.812500 0.437500
v 0.812500 0.812500 0.562500
v 0.812500 0.812500 0.625000
v 0.500000 0.875000 0.500000
v 0.375000 1.000000 0.375000
v 0.375000 1.000000 0.625000
v 0.625000 1.000000 0.375000
v 0.625000 1.000000 0.625000
vn 0.0000 -1.0000 0.0000
vn -0.8397 -0.5398 -0.0600
vn -0.8397 -0.5398 0.0600
vn -0.0600 -0.5398 -0.8397
vn -0.0600 -0.5398 0.8397
vn 0.0600 -0.5398 -0.8397
vn 0.0600 -0.5398 0.8397
vn 0.8397 -0.5398 -0.0600
vn 0.8397 -0.5398 0.0600
vn -0.8544 -0.5126 -0.0854
vn -0.8544 -0.5126 0.0854
vn -0.0854 -0.5126 -0.8544
vn -0.0854 -0.5126 0.8544
vn 0.0854 -0.5126 -0.8544
vn 0.0854 -0.5126 0.8544
vn 0.8544 -0.5126 -0.0854
vn 0.8544 -0.5126 0.0854
vn -1.0000 0.0000 0.0000
vn 0.0000 0.0000 -1.0000
vn 0.0000 0.0000 1.0000
vn 1.0000 0.0000 0.0000
vn -0.9487 0.0000 -0.3162
vn -0.9487 0.0000 0.3162
vn -0.3162 0.0000 -0.9487
vn -0.3162 0.0000 0.9487
vn 0.3162 0.0000 -0.9487
vn 0.3162 0.0000 0.9487
vn 0.9487 0.0000 -0.3162
vn 0.9487 0.0000 0.3162
vn -0.8944 0.0000 -0.4472
vn -0.8944 0.0000 0.4472
vn -0.4472 0.0000 -0.8944
vn -0.4472 0.0000 0.8944
vn 0.4472 0.0000 -0.8944
vn 0.4472 0.0000 0.8944
vn 0.8944 0.0000 -0.4472
vn 0.8944 0.0000 0.4472
vn -0.7071 0.0000 -0.7071
vn -0.7071 0.0000 0.7071
vn 0.7071 0.0000 -0.7071
vn 0.7071 0.0000 0.7071
vn -0.8427 0.2408 -0.4815
vn -0.8427 0.2408 0.4815
vn -0.4815 0.2408 -0.8427
vn -0.4815 0.2408 0.8427
vn 0.4815 0.2408 -0.8427
vn 0.4815 0.2408 0.8427
vn 0.8427 0.2408 -0.4815
vn 0.8427 0.2408 0.4815
vn -0.8944 0.2683 -0.3578
vn -0.8944 0.2683 0.3578
vn -0.3578 0.2683 -0.8944
vn -0.3578 0.2683 0.8944
vn 0.3578 0.2683 -0.8944
vn 0.3578 0.2683 0.8944
vn 0.8944 0.2683 -0.3578
vn 0.8944 0.2683 0.3578
vn -0.6667 0.3333 -0.6667
vn -0.6667 0.3333 0.6667
vn 0.6667 0.3333 -0.6667
vn 0.6667 0.3333 0.6667
vn -0.8823 0.3676 -0.2941
vn -0.8823 0.3676 0.2941
vn -0.2941 0.3676 -0.8823
vn -0.2941 0.3676 0.8823
vn 0.2941 0.3676 -0.8823
vn 0.2941 0.3676 0.8823
vn 0.8823 0.3676 -0.2941
vn 0.8823 0.3676 0.2941
vn -0.6247 0.4685 -0.6247
vn -0.6247 0.4685 0.6247
vn 0.6247 0.4685 -0.6247
vn 0.6247 0.4685 0.6247
vn -0.6247 0.7809 0.0000
vn 0.0000 0.7809 -0.6247
vn 0.0000 0.7809 0.6247
vn 0.6247 0.7809 0.0000
vn -0.3482 0.8704 -0.3482
vn -0.3482 0.8704 0.3482
vn 0.3482 0.8704 -0.3482
vn 0.3482 0.8704 0.3482
vn 0.0000 1.0000 0.0000
vt 0.000000 0.000000
vt 0.000000 0.750000
vt 0.000000 1.000000
vt 0.187500 0.187500
vt 0.187500 0.312500
vt 0.187500 0.375000
vt 0.187500 0.437500
vt 0.187500 0.500000
vt 0.187500 0.562500
vt 0.187500 0.625000
vt 0.187500 0.687500
vt 0.187500 0.812500
vt 0.250000 0.250000
vt 0.250000 0.343750
vt 0.250000 0.375000
vt 0.250000 0.406250
vt 0.250000 0.437500
vt 0.250000 0.500000
vt 0.250000 0.562500
vt 0.250000 0.593750
vt 0.250000 0.625000
vt 0.250000 0.656250
vt 0.250000 0.750000
vt 0.281250 0.312500
vt 0.281250 0.406250
vt 0.281250 0.437500
vt 0.281250 0.562500
vt 0.281250 0.593750
vt 0.281250 0.687500
vt 0.312500 0.187500
vt 0.312500 0.281250
vt 0.312500 0.312500
vt 0.312500 0.375000
vt 0.312500 0.437500
vt 0.312500 0.500000
vt 0.312500 0.562500
vt 0.312500 0.625000
vt 0.312500 0.687500
vt 0.312500 0.718750
vt 0.312500 0.812500
vt 0.343750 0.250000
vt 0.343750 0.750000
vt 0.375000 0.187500
vt 0.375000 0.250000
vt 0.375000 0.312500
vt 0.375000 0.375000
vt 0.375000 0.406250
vt 0.375000 0.468750
vt 0.375000 0.500000
vt 0.375000 0.531250
vt 0.375000 0.593750
vt 0.375000 0.625000
vt 0.375000 0.687500
vt 0.375000 0.750000
vt 0.375000 0.812500
vt 0.406250 0.250000
vt 0.406250 0.281250
vt 0.406250 0.375000
vt 0.406250 0.625000
vt 0.406250 0.718750
vt 0.406250 0.750000
vt 0.437500 0.187500
vt 0.437500 0.250000
vt 0.437500 0.281250
vt 0.437500 0.312500
vt 0.437500 0.500000
vt 0.437500 0.687500
vt 0.437500 0.718750
vt 0.437500 0.750000
vt 0.437500 0.812500
vt 0.468750 0.375000
vt 0.468750 0.625000
vt 0.500000 0.187500
vt 0.500000 0.250000
vt 0.500000 0.312500
vt 0.500000 0.375000
vt 0.500000 0.437500
vt 0.500000 0.500000
vt 0.500000 0.562500
vt 0.500000 0.625000
vt 0.500000 0.687500
vt 0.500000 0.750000
vt 0.500000 0.812500
vt 0.531250 0.375000
vt 0.531250 0.625000
vt 0.562500 0.187500
vt 0.562500 0.250000
vt 0.562500 0.281250
vt 0.562500 0.312500
vt 0.562500 0.500000
vt 0.562500 0.687500
vt 0.562500 0.718750
vt 0.562500 0.750000
vt 0.562500 0.812500
vt 0.593750 0.250000
vt 0.593750 0.281250
vt 0.593750 0.375000
vt 0.593750 0.625000
vt 0.593750 0.718750
vt 0.593750 0.750000
vt 0.625000 0.187500
vt 0.625000 0.250000
vt 0.625000 0.312500
vt 0.625000 0.375000
vt 0.625000 0.406250
vt 0.625000 0.468750
vt 0.625000 0.500000
vt 0.625000 0.531250
vt 0.625000 0.593750
vt 0.625000 0.625000
vt 0.625000 0.687500
vt 0.625000 0.750000
vt 0.625000 0.812500
vt 0.656250 0.250000
vt 0.656250 0.750000
vt 0.687500 0.187500
vt 0.687500 0.281250
vt 0.687500 0.312500
vt 0.687500 0.375000
vt 0.687500 0.437500
vt 0.687500 0.500000
vt 0.687500 0.562500
vt 0.687500 0.625000
vt 0.687500 0.687500
vt 0.687500 0.718750
vt 0.687500 0.812500
vt 0.718750 0.312500
vt 0.718750 0.406250
vt 0.718750 0.437500
vt 0.718750 0.562500
vt 0.718750 0.593750
vt 0.718750 0.687500
vt 0.750000 0.250000
vt 0.750000 0.343750
vt 0.750000 0.375000
vt 0.750000 0.406250
vt 0.750000 0.437500
vt 0.750000 0.500000
vt 0.750000 0.562500
vt 0.750000 0.593750
vt 0.750000 0.625000
vt 0.750000 0.656250
vt 0.750000 0.750000
vt 0.812500 0.187500
vt 0.812500 0.312500
vt 0.812500 0.375000
vt 0.812500 0.437500
vt 0.812500 0.500000
vt 0.812500 0.562500
vt 0.812500 0.625000
vt 0.812500 0.687500
vt 0.812500 0.812500
vt 1.000000 0.000000
vt 1.000000 0.750000
vt 1.000000 1.000000
usemtl MaterialTop
f 6/18/82 11/78/82 10/82/82 7/38/82
f 6/18/82 8/32/82 12/74/82 11/78/82
f 10/82/82 11/78/82 16/138/82 14/124/82
f 11/78/82 12/74/82 15/118/82 16/138/82
f 6/49/69 7/53/69 22/22/69
f 6/49/68 23/14/68 8/45/68
f 7/37/67 10/80/67 24/42/67
f 8/33/66 25/41/66 12/76/66
f 10/80/65 14/123/65 26/115/65
f 12/76/64 27/114/64 15/119/64
f 14/111/63 16/107/63 28/142/63
f 15/103/62 29/134/62 16/107/62
f 7/53/35 18/38/35 22/22/35
f 8/45/34 23/14/34 19/32/34
f 7/37/37 24/42/37 18/38/37
f 8/33/36 19/32/36 25/41/36
f 14/123/31 20/124/31 26/115/31
f 15/119/30 27/114/30 21/118/30
f 14/111/33 28/142/33 20/124/33
f 15/103/32 21/118/32 29/134/32
f 5/8/76 6/18/76 22/22/76 52/12/76
f 5/8/75 57/4/75 23/14/75 6/18/75
f 9/83/77 52/12/77 24/42/77 10/82/77
f 12/74/77 25/41/77 57/4/77 13/73/77
f 9/83/74 10/82/74 26/115/74 82/152/74
f 12/74/74 13/73/74 87/144/74 27/114/74
f 16/138/76 17/148/76 82/152/76 28/142/76
f 16/138/75 29/134/75 87/144/75 17/148/75
f 5/66/21 30/21/21 31/15/21
f 9/79/20 43/112/20 35/54/20
f 13/77/19 36/44/19 44/102/19
f 17/90/18 49/135/18 48/141/18
f 5/66/21 52/12/21 30/21/21
f 5/66/21 31/15/21 57/4/21
f 9/79/20 35/54/20 52/12/20
f 13/77/19 57/4/19 36/44/19
f 9/79/20 82/152/20 43/112/20
f 13/77/19 44/102/19 87/144/19
f 17/90/18 48/141/18 82/152/18
f 17/90/18 87/144/18 49/135/18
f 18/38/13 100/50/13 22/22/13
f 19/32/12 23/14/12 101/48/12
f 18/38/16 24/42/16 109/72/16
f 19/32/17 110/71/17 25/41/17
f 20/124/10 113/85/10 26/115/10
f 21/118/11 27/114/11 114/84/11
f 20/124/15 28/142/15 122/108/15
f 21/118/14 123/106/14 29/134/14
f 30/10/1 32/28/1 33/25/1 31/6/1
f 32/28/1 34/35/1 33/25/1
f 35/55/1 43/113/1 41/99/1 37/60/1
f 37/60/1 41/99/1 39/81/1
f 38/57/1 40/75/1 42/96/1
f 36/43/1 38/57/1 42/96/1 44/101/1
f 45/121/1 46/131/1 47/128/1
f 46/131/1 48/150/1 49/146/1 47/128/1
f 22/22/71 58/23/71 52/12/71
f 23/14/70 57/4/70 61/13/70
f 24/42/72 52/12/72 58/23/72
f 25/41/73 61/13/73 57/4/73
f 26/115/70 78/143/70 82/152/70
f 27/114/71 87/144/71 81/133/71
f 28/142/73 82/152/73 78/143/73
f 29/134/72 81/133/72 87/144/72
f 30/21/21 52/12/21 53/10/21
f 31/15/21 56/6/21 57/4/21
f 35/54/20 63/55/20 52/12/20
f 36/44/19 57/4/19 64/43/19
f 43/112/20 82/152/20 75/113/20
f 44/102/19 76/101/19 87/144/19
f 48/141/18 83/150/18 82/152/18
f 49/135/18 87/144/18 86/146/18
f 30/11/26 53/10/26 96/27/26 32/29/26
f 31/5/27 33/24/27 97/26/27 56/6/27
f 32/51/28 96/20/28 62/35/28 34/49/28
f 33/47/29 34/49/29 62/35/29 97/16/29
f 35/40/23 37/39/23 103/68/23 63/55/23
f 36/30/22 64/43/22 104/64/22 38/31/22
f 37/59/25 39/80/25 69/81/25 103/61/25
f 38/58/24 104/56/24 70/75/24 40/76/24
f 39/80/27 41/98/27 119/100/27 69/81/27
f 40/76/26 70/75/26 120/95/26 42/97/26
f 41/125/29 43/126/29 75/113/29 119/92/29
f 42/117/28 120/88/28 76/101/28 44/116/28
f 45/107/22 77/121/22 126/140/22 46/109/22
f 45/107/23 47/105/23 127/136/23 77/121/23
f 46/132/24 126/130/24 83/150/24 48/151/24
f 47/127/25 49/145/25 86/146/25 127/129/25
f 50/3/82 51/1/82 55/7/82 54/9/82
f 50/3/82 54/9/82 53/10/82 52/12/82
f 51/1/82 57/4/82 56/6/82 55/7/82
f 54/9/82 55/7/82 60/17/82 59/19/82
f 50/3/82 52/12/82 63/55/82 65/70/82
f 51/1/82 68/62/82 64/43/82 57/4/82
f 59/19/82 60/17/82 62/35/82
f 18/38/7 134/78/7 100/50/7
f 19/32/6 101/48/6 134/78/6
f 18/38/9 109/72/9 134/78/9
f 19/32/8 134/78/8 110/71/8
f 50/3/82 65/70/82 71/94/82 88/155/82
f 65/70/82 66/69/82 72/93/82 71/94/82
f 66/69/82 69/81/82 72/93/82
f 67/63/82 73/87/82 70/75/82
f 67/63/82 68/62/82 74/86/82 73/87/82
f 51/1/82 89/153/82 74/86/82 68/62/82
f 20/124/3 134/78/3 113/85/3
f 21/118/2 114/84/2 134/78/2
f 20/124/5 122/108/5 134/78/5
f 21/118/4 134/78/4 123/106/4
f 77/121/82 80/137/82 79/139/82
f 71/94/82 75/113/82 82/152/82 88/155/82
f 74/86/82 89/153/82 87/144/82 76/101/82
f 79/139/82 80/137/82 85/147/82 84/149/82
f 82/152/82 83/150/82 84/149/82 88/155/82
f 85/147/82 86/146/82 87/144/82 89/153/82
f 84/149/82 85/147/82 89/153/82 88/155/82
f 53/10/18 54/9/18 91/19/18 90/21/18
f 55/7/18 56/6/18 93/15/18 92/17/18
f 54/9/20 59/19/20 94/21/20 91/10/20
f 55/7/19 92/6/19 95/15/19 60/17/19
f 59/19/39 62/18/39 98/35/39 94/36/39
f 60/17/38 95/34/38 98/35/38 62/18/38
f 63/55/19 99/54/19 105/69/19 65/70/19
f 64/43/20 68/62/20 108/63/20 102/44/20
f 65/70/21 105/55/21 106/54/21 66/69/21
f 67/63/21 107/44/21 108/43/21 68/62/21
f 66/69/40 106/67/40 111/81/40 69/82/40
f 67/63/41 70/74/41 112/75/41 107/65/41
f 69/82/38 111/81/38 116/91/38 72/93/38
f 70/74/39 73/87/39 117/89/39 112/75/39
f 71/94/18 72/93/18 116/112/18 115/113/18
f 73/87/18 74/86/18 118/101/18 117/102/18
f 71/94/19 115/93/19 121/112/19 75/113/19
f 74/86/20 76/101/20 124/102/20 118/87/20
f 77/138/41 79/139/41 128/122/41 125/121/41
f 77/138/40 125/121/40 129/120/40 80/137/40
f 79/139/20 84/149/20 131/150/20 128/141/20
f 80/137/19 129/135/19 132/146/19 85/147/19
f 83/150/21 130/141/21 131/139/21 84/149/21
f 85/147/21 132/137/21 133/135/21 86/146/21
f 53/10/26 90/9/26 96/27/26
f 56/6/27 97/26/27 93/7/27
f 22/22/51 135/52/51 58/23/51
f 23/14/50 61/13/50 136/46/50
f 62/35/28 96/20/28 98/18/28
f 62/35/29 98/18/29 97/16/29
f 24/42/54 58/23/54 135/52/54
f 25/41/55 136/46/55 61/13/55
f 63/55/23 103/68/23 99/70/23
f 64/43/22 102/62/22 104/64/22
f 69/81/25 111/82/25 103/61/25
f 70/75/24 104/56/24 112/74/24
f 69/81/27 119/100/27 111/82/27
f 70/75/26 112/74/26 120/95/26
f 75/113/29 121/94/29 119/92/29
f 76/101/28 120/88/28 124/86/28
f 26/115/52 137/110/52 78/143/52
f 27/114/53 81/133/53 138/104/53
f 77/121/22 125/138/22 126/140/22
f 77/121/23 127/136/23 125/138/23
f 28/142/57 78/143/57 137/110/57
f 29/134/56 138/104/56 81/133/56
f 83/150/24 126/130/24 130/149/24
f 86/146/25 133/147/25 127/129/25
f 90/10/82 91/9/82 94/19/82 96/28/82
f 92/7/82 93/6/82 97/25/82 95/17/82
f 94/19/82 98/35/82 96/28/82
f 95/17/82 97/25/82 98/35/82
f 22/22/43 100/50/43 135/52/43
f 23/14/42 136/46/42 101/48/42
f 24/42/46 135/52/46 109/72/46
f 25/41/47 110/71/47 136/46/47
f 99/55/82 103/60/82 106/69/82 105/70/82
f 102/43/82 108/62/82 107/63/82 104/57/82
f 103/60/82 111/81/82 106/69/82
f 104/57/82 107/63/82 112/75/82
f 111/81/82 119/99/82 116/93/82
f 112/75/82 117/87/82 120/96/82
f 115/94/82 116/93/82 119/99/82 121/113/82
f 117/87/82 118/86/82 124/101/82 120/96/82
f 26/115/44 113/85/44 137/110/44
f 27/114/45 138/104/45 114/84/45
f 28/142/49 137/110/49 122/108/49
f 29/134/48 123/106/48 138/104/48
f 125/121/82 128/139/82 126/131/82
f 125/121/82 127/128/82 129/137/82
f 126/131/82 128/139/82 131/149/82 130/150/82
f 127/128/82 133/146/82 132/147/82 129/137/82
f 100/50/78 134/78/78 109/72/78
f 101/48/79 110/71/79 134/78/79
f 113/85/80 134/78/80 122/108/80
f 114/84/81 123/106/81 134/78/81
f 100/50/61 109/72/61 135/52/61
f 101/48/60 136/46/60 110/71/60
f 113/85/59 122/108/59 137/110/59
f 114/84/58 138/104/58 123/106/58
usemtl MaterialBottom
f 1/1/1 3/153/1 4/155/1 2/3/1
usemtl MaterialSide
f 1/1/18 2/153/18 51/154/18 50/2/18
f 1/153/19 50/154/19 88/2/19 3/1/19
f 2/1/20 4/153/20 89/154/20 51/2/20
f 3/153/21 88/154/21 89/2/21 4/1/21
